<?xml version="1.0" encoding="utf-8"?>
<!-- Generator: Adobe Illustrator 21.0.0, SVG Export Plug-In . SVG Version: 6.00 Build 0)  -->
<svg version="1.1" id="Capa_1" xmlns="http://www.w3.org/2000/svg" xmlns:xlink="http://www.w3.org/1999/xlink" x="0px" y="0px"
	 viewBox="0 0 512 512" style="enable-background:new 0 0 512 512;" xml:space="preserve">
<style type="text/css">
	.st0{fill:#F8BB46;}
</style>
<g>
	<g>
		<path class="st0" d="M20.3,104.8h78.1l79.2,252.3c2.7,8.5,10.5,14.2,19.4,14.2h247.3c11.2,0,20.3-9.1,20.3-20.3
			s-9.1-20.3-20.3-20.3H211.9L196,280.3h253.9c17.8,0,34.1-13.1,37.9-30.5l23.4-106.7c2.2-9.9-0.1-19.8-6.1-27.4
			c-6.1-7.5-15.3-11.8-25.4-11.8h-339l-8-25.4c-2.7-8.5-10.5-14.2-19.4-14.2h-93C9.1,64.2,0,73.3,0,84.5S9.1,104.8,20.3,104.8z
			 M448.7,239.6l-264,0.1c-0.3-0.1-0.7-0.3-0.8-0.3c-0.1,0-0.1,0-0.1,0.1l-8.9-27.1h279.7L448.7,239.6z M153.4,144.5h315.9
			l-5.9,27.2H162h-0.5l-9-27.2H153.4z"/>
		<circle class="st0" cx="224" cy="419" r="28.8"/>
		<circle class="st0" cx="402.5" cy="419" r="28.8"/>
	</g>
</g>
</svg>
