<?xml version="1.0" encoding="iso-8859-1"?>
<!-- Generator: Adobe Illustrator 19.0.0, SVG Export Plug-In . SVG Version: 6.00 Build 0)  -->
<svg version="1.1" id="Capa_1" xmlns="http://www.w3.org/2000/svg" xmlns:xlink="http://www.w3.org/1999/xlink" x="0px" y="0px"
	 viewBox="0 0 512 512" style="enable-background:new 0 0 512 512;" xml:space="preserve">
<path style="fill:#f8bb46" d="M256,512C114.507,512,0,397.503,0,256C0,114.507,114.497,0,256,0
	c141.492,0,256,114.497,256,256C512,397.493,397.503,512,256,512z M256,40C136.615,40,40,136.607,40,256
	c0,119.385,96.607,216,216,216c119.384,0,216-96.607,216-216C472,136.615,375.393,40,256,40z M276,363.123V234.33
	c0-11.046-8.954-20-20-20s-20,8.954-20,20v128.792c0,11.046,8.954,20,20,20C267.046,383.122,276,374.168,276,363.123z M256,135.841
	c-14.912,0-27,12.088-27,27s12.088,27,27,27c14.912,0,27-12.088,27-27S270.912,135.841,256,135.841z"/>
<g>
</g>
<g>
</g>
<g>
</g>
<g>
</g>
<g>
</g>
<g>
</g>
<g>
</g>
<g>
</g>
<g>
</g>
<g>
</g>
<g>
</g>
<g>
</g>
<g>
</g>
<g>
</g>
<g>
</g>
</svg>
