<svg xmlns="http://www.w3.org/2000/svg" viewBox="0 0 33.69 19.22"><defs><style>.cls-1{fill:#fff;}</style></defs><title>Asset 24</title><g id="Layer_2" data-name="Layer 2"><g id="Layer_1-2" data-name="Layer 1"><path class="cls-1" fill="#ffffff" d="M33.16.08c-4.7-.5-10.2,1.5-14.5,3.1a71.76,71.76,0,0,0-6.9,3c-2.8,1.5-5,3.9-8.1,4.7a.76.76,0,0,0-.5.2c.2-.5.4-1.1.7-1.7a24.51,24.51,0,0,1,2.6-5.1c.5-.7-.5-1.6-1.1-1.1-2.2,1.5-3.2,4.1-4.3,6.5-.9,1.7-1.6,3.6-.5,5.4,1.3,2.1,4.5,2.9,6.7,3.5a34.19,34.19,0,0,0,4.5.4c1.4.2,2.1.5,3.4-.2a.9.9,0,0,0,.2-1.4l-.2-.2c-3.1-1.9-6.8-1.3-10.2-2.5A2.72,2.72,0,0,1,3,13a1.15,1.15,0,0,0,1.4.5c4.4-1,7.9-4.7,12.1-6.6,5.1-2.3,11.2-4.7,16.7-5.4a.72.72,0,0,0,.5-.9A1.2,1.2,0,0,0,33.16.08Z"/></g></g></svg>