<svg xmlns="http://www.w3.org/2000/svg" viewBox="0 0 53.52 13.3"><defs><style>.cls-1{fill:#fff;}</style></defs><title>Asset 18</title><g id="Layer_2" data-name="Layer 2"><g id="Layer_1-2" data-name="Layer 1"><path class="cls-1" fill="#ffffff" d="M53.3,5.9c-1.4-2.5-5.5-2.5-7.9-3-2-.4-6.4-.3-8-2a.61.61,0,0,0-.1-.8A.37.37,0,0,0,37,0h-.6a.68.68,0,0,0-.7.7V.9c.4,2.2,3.3,3,5.1,3.5l.5.1A241.89,241.89,0,0,0,15.7,7.7c-2.3.4-15.9.8-15.7,5a.65.65,0,0,0,.6.6.55.55,0,0,0,.5-.3c1.3-2.1,6.8-1.7,9-2,3.8-.5,7.5-1,11.3-1.6,8.4-1.2,17.1-1.7,25.5-2.3a1.2,1.2,0,0,0,1.2-.9,5.77,5.77,0,0,1,1.7.6c-1.8,1.4-4,1.7-4.9,4.5a.92.92,0,0,0,.7,1.1,1.27,1.27,0,0,0,.6-.1c2.3-1.5,5.3-2.6,7-4.8A1.36,1.36,0,0,0,53.3,5.9Z"/></g></g></svg>