<?xml version="1.0" encoding="iso-8859-1"?>
<svg xmlns="http://www.w3.org/2000/svg" viewBox="0 0 171.72 62.28"><defs><style>.cls-1{fill:#fff;}</style></defs><title>Asset 25</title><g id="Layer_2" data-name="Layer 2"><g id="Layer_1-2" data-name="Layer 1"><path class="cls-1" d="M78,6.48a139.31,139.31,0,0,1-12.2,7.7c-2.5,1.4-5.1,2.8-7.5,4.3-2,1.3-3.8,3-6.3,3.5a.52.52,0,0,0-.2.4.22.22,0,0,0,.2.2,11.64,11.64,0,0,0,5-2.1c2.6-1.5,5.3-2.9,7.9-4.4a92.28,92.28,0,0,0,13.6-8.7C79.17,7,78.47,6.08,78,6.48Z"/><path class="cls-1" d="M69.77,8.58c-4,1.7-7.8,4.1-11.7,6-4.1,2-8,5.2-12.5,6.3-.3.1-.2.5.1.4,4.5-.7,8.8-3.8,12.9-5.6s7.8-4.3,11.9-6C71.17,9.38,70.57,8.28,69.77,8.58Z"/><path class="cls-1" d="M61,7.18c-1,1.8-4.1,2.7-5.9,3.5-2.2,1.1-4.3,2.3-6.4,3.6-4.4,2.5-8.9,5.4-14,6.6a.26.26,0,0,0,.1.5c5.3-.5,10.1-3.3,14.6-5.9,2.7-1.6,5.4-3,8.2-4.5,1.6-.9,3.6-1.5,4.5-3.2C62.27,7.18,61.37,6.58,61,7.18Z"/><path class="cls-1" d="M52.87,7.88c-1.4,2-4,2.2-6.1,3a51.82,51.82,0,0,0-5.8,2.8c-3.9,1.9-8.9,5.1-13.3,5.7a.2.2,0,0,0,0,.4h0a9.43,9.43,0,0,0,4.7-.9c3.1-1.3,6.2-2.7,9.2-4.2,2.8-1.4,5.7-2.6,8.6-3.8,1.5-.6,2.8-1.1,3.5-2.6a.45.45,0,0,0-.8-.4Z"/><path class="cls-1" d="M29.87,16.18Z"/><path class="cls-1" d="M92.37,23.08a101.1,101.1,0,0,0-17,5.2c-.6.2-.4,1.3.3,1,5.6-2,11.2-3.8,16.8-5.7.1-.1.1-.2-.1-.5Z"/><path class="cls-1" d="M95.67,25.68c-3.3.4-6.4,1.7-9.7,2.5a39,39,0,0,0-4.8,1.7c-1.6.6-2.9.6-4.3,1.3a.4.4,0,1,0,.4.7,27.46,27.46,0,0,1,4.1-1.1c1.6-.5,3.1-1.1,4.8-1.5,3.2-.8,6.3-2,9.5-2.9A.35.35,0,0,0,95.67,25.68Z"/><path class="cls-1" d="M99,28.58c-2.2-.2-4,.8-6.1,1.4a36.23,36.23,0,0,1-8.6,1.6.62.62,0,0,0-.4.6c0,.2.2.3.4.4a36,36,0,0,0,7.3-1.3c2.5-.6,4.8-2.1,7.4-2.3.1-.1.2-.2,0-.4Z"/><path class="cls-1" d="M171.17,27.18c0-3,.1-6.3-.7-9.2-1.8-6.3-7.7-7.8-13.2-9.9a106.43,106.43,0,0,0-23.7-5.7c-8.6-1-17.4-.7-26.2-.7h-9.9c-5.2-.5-10.3-.7-15.6-.7h-1.3c.2-.1.5-.3.7-.4s-.1-.8-.4-.5c-1.3.8-2.9.3-4.3.4-1.9.1-3.8.5-5.8.8-4.1.1-8.1.3-12.2.4-.8,0-1.5.1-2.2.1-3.2.2-6.4.5-9.7.5a111.4,111.4,0,0,0-14.1,1c-4.4.5-8.1,2.2-12.2,3.7a26.52,26.52,0,0,0-7.2,2.9c-5,3.2-10.5,6.2-11.9,12.3a45.83,45.83,0,0,0-.9,16.5c.2,1.7-.1,3.7.5,5.3a9.37,9.37,0,0,0,4.7,4.9,50.14,50.14,0,0,0,9,3.7c4.4,1.2,8.8,2.4,13.2,3.4,4,.9,8.1,1.1,12.1,1.9,8,1.5,16,2.2,24.1,3.3,4.4.6,8.7.1,13.1.6a92.26,92.26,0,0,0,13.9.4c8.5-.4,17-1,25.5-1.7,8-.6,15.8-1.8,23.7-2.7,3.9-.5,7.8-1.4,11.7-2.1,3.1-.5,6.4-.7,9.2-2.4,5.4-3.2,9-10,10.4-16C172.17,34,171.17,30.68,171.17,27.18ZM136.87,6c-1.9,1.8-4.1,3.5-6.3,5.2-.4,0-.7.1-1.1.1-1.1.1-2.3.1-3.4.1a76.8,76.8,0,0,0,6.9-5.9c1.3.1,2.6.3,3.9.5Zm3.5,10.4-3.5.3c.9-.7,1.9-1.4,2.8-2.2l3.1-.3Zm1.2,1.7,1.5-.2-1.4,1-.4.3-2.1.3,1.4-1.3Zm-9.9,2.5,2.5-1.8,4-.4-1.6,1.4a38.51,38.51,0,0,0-4.9.8Zm2.7,1.1-1.9,1.6c-1.5.1-3,.2-4.4.4l-1.1.2,2-1.4,3.1-.5Zm.4-4.8-3.2.3,2.6-2.3.7-.1a26.42,26.42,0,0,1,2.9-.2c-1,.8-2,1.5-3,2.3ZM132,19l-2.7,2h0l-3.1.5c.9-.7,1.8-1.4,2.6-2l.2-.1Zm-23.3,1.2c-2.7.4-5.4.8-8,1a.76.76,0,0,0-.4.2.3.3,0,0,0,0-.4l-.1-.1c.2.1,2-1.4,3.1-2.3l1.9-.4c2.1-.4,4.3-.7,6.5-1-1,.9-2.1,1.8-3,2.7a.19.19,0,0,0,0,.3Zm-14-5.1,1.5-.9,2-.4c3.8-.8,7.6-1.6,11.5-2.3-.8.6-1.4,1.3-2.1,1.9l-.2.2c-4.6.6-9.1,1.2-13.7,2l-.6.1a10.41,10.41,0,0,1,1.6-.6Zm-5.4-1-1.7.4,4.2-2.3c3.3-.6,6.6-1.2,10-1.7a44,44,0,0,0-5,2.1q-3.9.6-7.5,1.5Zm20.1-.8c.7-.7,1.5-1.4,2.3-2.1,3.4-.6,6.9-1.1,10.3-1.4-1.1.8-2.2,1.6-3.3,2.3q-4.8.6-9.3,1.2Zm12.1,0-.3.3-1.4,1.2h-.4l-2.7.3,1.9-1.3Zm-5.6.7a10.92,10.92,0,0,0-1.7,1.3c-2.4.3-4.8.6-7.2,1l-1.1.2a8.64,8.64,0,0,0,1.4-1.3l.1-.2.7-.1Zm-2,3,3.6-.4c-1.1,1-2.3,1.9-3.5,2.9h-.1l-4.7.6c1.6-1.1,3.1-2.1,4.7-3.1Zm6-.7,1-.1c1.4-.2,2.8-.3,4.1-.4l-3.2,2.6c-1.8.3-3.6.5-5.4.8,1.1-1,2.3-2,3.5-2.9Zm2.2,3.7,4-.5-3,2.3c-1.3.2-2.6.4-3.9.5.9-.8,1.8-1.6,2.8-2.4Zm2.1,3.1,2.4-.4c-.8.5-1.5,1-2.2,1.5l-2.2.4a17.35,17.35,0,0,1,2-1.5Zm4.5-5.6-1.1.1c-1,.1-2.1.3-3.1.4l2.8-2.5,4.3-.4Zm-1.2-3.7h0c-1.7.2-3.3.3-5,.5l1.8-1.4c1.6-.2,3.2-.3,4.8-.5-.7.5-1.2.9-1.8,1.4Zm19.6,26.1a23.22,23.22,0,0,1-1.8,3.9,26,26,0,0,0-1,2.5,21.6,21.6,0,0,1,2.6-6.5Zm17.8,6c-4.2,6.9-11.8,6.9-18.9,8.4a48.89,48.89,0,0,1-5.3.9,24.19,24.19,0,0,0,1.8-3.6.64.64,0,0,0,.6,0c2.4-2.1,3.4-5.3,4.5-8.3.5-1.3,1.9-4.1.7-5.4a.75.75,0,0,0-.9,0,.1.1,0,0,1-.1.1c-.7,1.4-1.3,2.7-1.9,4.1.1-.3.2-.7.3-1,.5-1.1,1-2.1,1.6-3.2a.61.61,0,0,0-.4-.9.78.78,0,0,0-.8.2l-.2.3a.54.54,0,0,0-.4.3,22.18,22.18,0,0,0-2,4.8c-.4,1.1-.9,2.3-1.3,3.4-.3.8-.6,1.5-.9,2.3h-.1l.6-1.8c.8-2.5,2.3-5.2,2.5-7.9.1-1-1.5-1-1.6,0-.1,1.4-1.1,2.8-1.5,4.1-.6,1.6-1,3.3-1.6,4.9-.8,2.2-2.8,4.1-2.9,6.5-.3,1,1.5,1.4,1.6.4.2-1.6,1.2-2.7,1.9-4a7.22,7.22,0,0,0,.9-2,.9.9,0,0,1-.1.5,19.22,19.22,0,0,0-1.6,5.8c0,.2,0,.4.2.5-5.1.6-10.3.9-15.4,1.5-7.1.8-14.3,1.9-21.4,2.2-8.3.3-16.6,1.1-24.9.2-3.5-.4-7,0-10.6-.3-3.9-.3-7.9-.9-11.8-1.3-7.2-.8-14.2-2.4-21.3-3.1a68.46,68.46,0,0,1-10.9-2.4c-4.1-1.1-8.3-1.9-12.1-3.8-3-1.5-6.4-2.3-7.4-5.8s-.9-8-.8-11.6a27.51,27.51,0,0,1,1.4-9.4c.4,1.4,1.8,2,2.9,2.9,2.4,1.7,4.5,4,7.1,5.4s6.4,2.2,9.3,2.8c2.4.5,4.4,1.7,6.8,2.3a56.06,56.06,0,0,0,9,1.4,113.15,113.15,0,0,1,11.3,2.3,74.59,74.59,0,0,0,10.5,1c3.8.2,7.4,1,11.2,1.3,7.2.5,14.4-.3,21.6-.3a104,104,0,0,0,19.3-1.5,206.89,206.89,0,0,1,20.8-2.4c3.5-.3,7.1-.8,10.5-1.4a85.68,85.68,0,0,0,10.2-3,.72.72,0,0,0-.2-1.4c-2.8.2-5.6,1.5-8.4,2.1a100.31,100.31,0,0,1-12.2,2.1c-5.9.5-11.8.5-17.7,1-13,1-25.8,2.3-38.9,2.6-7.1.2-14.1-.7-21.2-1.2-6.5-.5-12.8-2.5-19.3-3.3a23,23,0,0,1-8.6-2.4c-2.2-1.3-4.7-1.5-7.1-2.2-3.7-1.1-6.5-2-9.6-4.3-1.4-1.1-5.5-2.8-6.2-4.3a.55.55,0,0,0-.8-.3h0a9.32,9.32,0,0,1,2.2-3,63.85,63.85,0,0,1,8.6-6.1c3.8-2.1,8.2-2.9,12.5-3.5,4-.6,8-1.5,12-2l5.7-.7a71.17,71.17,0,0,0,8,.1,115.09,115.09,0,0,1,11.8-.6c16.1.2,32.2,0,48.2,0,6,0,12,.2,17.9.7-2.4,2.2-5.1,4.2-7.7,6.2a3.75,3.75,0,0,0-1.1.1l-1.7.2c.9-.7,1.8-1.5,2.7-2.2h.4a.43.43,0,0,0,.4-.4c0-.1,0-.1-.1-.2,1.1-.9,2.1-1.9,3.2-2.8a.28.28,0,1,0-.4-.4,28.83,28.83,0,0,1-3.9,3,42.16,42.16,0,0,0-9.4.8,21.15,21.15,0,0,1,2.1-1.1c.4-.2.3-.9-.2-.7a15.3,15.3,0,0,0-4,2.1l-6.4.9a.75.75,0,0,0,0-.9h0c2.6-.5,5.3-.9,7.9-1.6.2,0,.2-.4-.1-.4-5.8.7-11.7,1.2-17.5,2.1a.67.67,0,0,0-.3-.8.45.45,0,0,0-.5,0c-.9.4-1.8.9-2.6,1.3l-.9.2c-3.3.7-6.5,1.3-9.8,2,3.2-1.7,6.4-3.5,9.4-5.3a.49.49,0,0,0,.1-.7.48.48,0,0,0-.6-.2,136.51,136.51,0,0,1-12.5,6.8,23.8,23.8,0,0,0-2.6.5c-1.4.4-2.8,1.2-4.3,1.3a.5.5,0,0,0,0,1l.7-.1c-5.4,2.3-10.2,5.4-16,6.9-.3.1-.3.6.1.5,6.4-.6,11.8-4.8,17.7-7.1,1.1-.4,2.1-.9,3.2-1.4.9-.2,1.8-.4,2.6-.6,2.8-.5,5.6-1,8.4-1.6-1.6.9-3.2,1.7-4.9,2.5-2.4.5-4.9.9-7.4,1.2a.2.2,0,0,0,0,.4c1.5,0,3,0,4.6-.1l-.2.1c-2.4,1.2-5,2-7.4,3.3a29.67,29.67,0,0,1-8,3.4c-.2,0-.2.4.1.4,4.9-.6,9.6-3.3,14-5.3,1.6-.7,3.2-1.5,4.8-2.3,2.5-.3,5-.8,7.5-1.3-.8.3-1.5.6-2.3.9a21.92,21.92,0,0,0-6.8,1.7.57.57,0,0,0-.2.7.1.1,0,0,0,.1.1c-.7.3-1.5.6-2.2.9-3.1,1.3-7,4.1-10.4,4a.27.27,0,0,0-.3.3c0,.2.1.3.2.3,2.2.5,3.5-.1,5.5-1,3.9-1.7,7.7-3.5,11.7-4.8l2.4-.8c1.7-.2,3.4-.3,4.9-.5,3.9-.6,7.8-1.1,11.7-1.6l-2.4,1.8A64,64,0,0,1,92.07,19a.6.6,0,0,0,0,1.2,65.86,65.86,0,0,0,8.8-1,20.28,20.28,0,0,0-1.3,1.8.44.44,0,0,0,.1.5h.7a.48.48,0,0,0,0,.7c.1.1.2.1.4.1,3.6-.1,7.2-.5,10.9-.9-.6.4-1.1.8-1.7,1.2a.22.22,0,0,0,.2.4,16.16,16.16,0,0,0,3.7-1.9c1.9-.2,3.8-.5,5.7-.7-.8.7-1.6,1.5-2.4,2.3a47.42,47.42,0,0,1-6.5.5.65.65,0,0,0,0,1.3c1.7,0,3.4-.2,5.2-.3-.2.2-.3.4-.5.6s.1.7.4.5l1.5-1.2c1.3-.1,2.5-.3,3.8-.5l-1.7,1.4c-.5,0-1.1.1-1.6.1a.5.5,0,1,0,0,1h.3l-.5.4a.3.3,0,0,0,.3.5,18.94,18.94,0,0,0,2.1-.9,19.41,19.41,0,0,0,2.4-.2,9.34,9.34,0,0,0-1.6,1.8v.2a4.42,4.42,0,0,1-1.6-.6c-.6-.4-1.3.5-.8,1,1.6,1.4,3.9,1.1,5.9,1,4.4-.2,8.7-.8,13.1-1q6.9-.3,13.8-1.2c3-.4,6.8-.4,9.3-2.2.2-.1.2-.3.1-.5s-.3-.2-.5-.1c-3.1,1.6-8.3,1-11.8,1.3s-6.7.5-10.1.8c-3.7.2-7.3.9-11,1.2a39.15,39.15,0,0,1-5.9.5l3.3-2.3c1.2-.2,2.4-.3,3.7-.4.7-.1,1.5-.1,2.2-.2-.6.5-1.3,1-1.9,1.5a.22.22,0,1,0,.2.4h0a13.52,13.52,0,0,0,4.2-2c2.2-.1,4.3-.2,6.5-.5,6.8-.8,13.7-1.2,20.5-2.3.4-.1.3-.7-.1-.8-7-.6-14.2.6-21.1,1.4l-3.3.3,2-1.7,1.3-.2a7.52,7.52,0,0,0-1.6,1.5c-.1.1.1.2.1.1.7-.6,1.4-1.2,2.1-1.7,5.8-.6,11.7-1,17.5-1.8.4-.1.3-.6-.1-.7a72.62,72.62,0,0,0-14,.4c.5-.3.9-.6,1.3-.8l.5-.4c1.2-.1,2.4-.1,3.6-.2,2.1-.2,4.2-.8,6.3-1a.3.3,0,1,0,0-.6,47,47,0,0,0-7.5,0,20,20,0,0,0,1.9-2.2c.3-.4-.4-.8-.6-.4a11.31,11.31,0,0,1-2.3,2.6l-2.8.2c1-.9,2-1.9,3-2.8l.3-.1a.52.52,0,0,0,.2-.4l.7-.6c.6-.5-.3-1.5-.9-.9l-1.7,1.5a28.26,28.26,0,0,1-2.9.2l1.7-1.4c.6-.5-.3-1.3-.8-.8-.9.8-1.8,1.5-2.7,2.2h-3.5l3.3-3a.64.64,0,0,0-.9-.9c-1.5,1.4-3.1,2.7-4.6,4h-.1l-4.1.3c.7-.6,1.4-1.1,2.1-1.7a25.85,25.85,0,0,1,4-.9.3.3,0,1,0,0-.6,9.74,9.74,0,0,0-2.4.2,45,45,0,0,0,5.2-4.6,89.47,89.47,0,0,1,18.3,4.7c2.6,1,7,2.1,8.8,4,2.4,2.5,3,6.3,3.1,9.6.1,1.8-.2,3.6,0,5.5a41,41,0,0,1,.6,4.9c-.1,3.9-2.3,7.9-4.3,11.1Z"/><path class="cls-1" d="M140.17,37.28c-1,2.5-1.8,4.9-2.9,7.3a48.34,48.34,0,0,0,2.2-6.4c.3-.9-1.1-1.2-1.3-.4-1.9,5.5-4.6,10.2-7.4,15.1a.37.37,0,0,0-.5.2v.1l-.1,1a.47.47,0,0,0,.5.5h.2a3.77,3.77,0,0,0,1.5-.9.65.65,0,0,0,.6.6h0a1.54,1.54,0,0,0,1.6-.9,30.49,30.49,0,0,0,2.3-4.4,95.44,95.44,0,0,0,4.9-11.4C142.07,36.78,140.57,36.28,140.17,37.28Z"/><path class="cls-1" d="M133.27,39.28c-1.2,2.7-2.2,5.5-3.5,8.2-1,2.2-2.8,4.2-3.5,6.5a.52.52,0,0,0,.3.7.44.44,0,0,0,.5-.1c3.8-3.8,5.3-9.7,7.4-14.5C134.87,39.18,133.57,38.48,133.27,39.28Z"/><path class="cls-1" d="M129,41.38c-1.3,1.4-1.8,3.3-2.5,5a30.34,30.34,0,0,1-4.3,7.9c-.2.2.1.6.3.4a12.61,12.61,0,0,0,4.2-5.2c1-2.2,1.6-5.3,3.3-7C130.67,41.68,129.67,40.68,129,41.38Z"/><path class="cls-1" d="M124.07,39.18c-1.9,2.2-2.8,5-4.4,7.4-1.9,2.9-3.6,5.9-5.7,8.7-.2.3.2.5.4.3,2.5-2,3.8-4.5,5.6-7.1s2.9-5.9,5.1-8.4C125.67,39.48,124.67,38.48,124.07,39.18Z"/><path class="cls-1" d="M114.37,43.08a8.53,8.53,0,0,0-1.3,2.5c-.7,1.5-1.4,2.9-2.2,4.3-.9,1.9-1.7,4-3.4,5.4a.45.45,0,0,0,0,.5.37.37,0,0,0,.3.1c2,0,3-2.5,3.7-4.1.6-1.3,1.3-2.5,2-3.8s1-2.9,1.9-4.2C115.77,43.28,114.77,42.48,114.37,43.08Z"/><path class="cls-1" d="M105.47,48.78a17,17,0,0,1-2.4,4.4,9.24,9.24,0,0,1-1.7,2.2,4.74,4.74,0,0,0-1,1c-.1.2.1.5.3.3a18.58,18.58,0,0,0,1.9-1.1,13.93,13.93,0,0,0,1.5-1.9,19.51,19.51,0,0,0,2.6-4.7C107,48.38,105.77,48.08,105.47,48.78Z"/><path class="cls-1" d="M100.57,48.08a29.24,29.24,0,0,0-1.7,3.6c-.4.9-1.2,1.7-1.3,2.7-.1.4.5.5.7.2a13.25,13.25,0,0,0,1.6-2.5,20.16,20.16,0,0,1,1.8-3.2A.68.68,0,1,0,100.57,48.08Z"/><path class="cls-1" d="M71.07,43.68c-1.5,2.4-2.9,4.9-4.4,7.4-.9,1.5-1.7,3.5-3.3,4.2-.1.1-.2.2-.1.4a.1.1,0,0,0,.1.1c1.8.3,2.8-1.3,3.7-2.6,1.8-2.8,3.4-5.8,5.2-8.7A.72.72,0,1,0,71.07,43.68Z"/><path class="cls-1" d="M63.47,46.08a16.89,16.89,0,0,1-1.9,3.2c-.3.4.4,1,.7.6a19.92,19.92,0,0,0,2.4-3.3A.66.66,0,1,0,63.47,46.08Z"/><path class="cls-1" d="M59,48.88c-.9.7-1.8,1.5-2.7,2.3a10,10,0,0,0-2.2,1.9c-.3.4.3.8.7.5.7-.6,1.7-1,2.4-1.6s1.6-1.3,2.5-2S59.67,48.38,59,48.88Z"/><path class="cls-1" d="M150.07,38.38a89.89,89.89,0,0,1-3.8,9c-.7,1.7-1.8,4.7-1.3,6.5.1.2.4.3.5.1,1.1-2.5,1.6-5,2.8-7.3a43.71,43.71,0,0,0,3.1-7.8A.7.7,0,1,0,150.07,38.38Z"/><path class="cls-1" d="M154.37,42a55.41,55.41,0,0,1-3,5.3c-.6.9-1.7,2.4-.9,3.4.1.1.3.2.4.1,1-.6,1.5-2.3,2.1-3.3a46.17,46.17,0,0,0,2.8-4.8C156.37,41.88,154.87,41,154.37,42Z"/><path class="cls-1" d="M38.57,40.78a57.24,57.24,0,0,0-3.9,5.7c-1.1,1.9-2.4,3.6-3.4,5.5l-.1.1-.4.7a.7.7,0,0,0,1.2.7,80.76,80.76,0,0,1,7.6-11.7C40.17,41.08,39.17,40.08,38.57,40.78Z"/><path class="cls-1" d="M33.67,39.48a.68.68,0,0,0-.8-.4.78.78,0,0,0-.4.4c-1,3.1-2,6.3-3.2,9.3a.48.48,0,0,0,.2.6h.1a4.42,4.42,0,0,1-.5,1.5.3.3,0,0,0,0,.4l.1.1.4.1a.48.48,0,0,0,.6-.2,42.44,42.44,0,0,0,4.2-10.9c.1-.4-.1-.8-.7-.9Z"/><path class="cls-1" d="M30.47,40.28a34.61,34.61,0,0,0-2.9,4.5,55.8,55.8,0,0,1-3.9,5.6.21.21,0,1,0,.3.3c2.8-2.9,4.7-6.5,7.4-9.5A.64.64,0,1,0,30.47,40.28Z"/><path class="cls-1" d="M25,41.68a25.14,25.14,0,0,1-4.5,7.1c-.1.2,0,.5.3.3a14.17,14.17,0,0,0,5.4-7.1C26.27,41.28,25.17,41,25,41.68Z"/><path class="cls-1" d="M21.17,45.38a2.23,2.23,0,0,0-2.6,1.2c-.2.3.3.7.6.4a2.58,2.58,0,0,1,1.9-1C21.47,46,21.57,45.48,21.17,45.38Z"/></g></g></svg>