<?xml version="1.0" encoding="utf-8"?>
<svg xmlns="http://www.w3.org/2000/svg" viewBox="0 0 175.66 68.34"><defs><style>.cls-1{fill:#fff;}</style></defs><title>Asset 3</title><g id="Layer_2" data-name="Layer 2"><g id="Layer_1-2" data-name="Layer 1"><path class="cls-1" d="M97.86,7.92c-1.7-1.3-3.4-1.2-5.3-.5a4.81,4.81,0,0,0-2.9.4c-1.6.7-4,1.2-4.8,3-1.8,4.1,4,7.2,7.3,6.9a16.77,16.77,0,0,0,4.9-1.7,5,5,0,0,0,3.2-3.8C100.46,10.42,99.16,9,97.86,7.92Zm-2.8,1.4h0a9,9,0,0,0-.8,2.3,3.89,3.89,0,0,0-.2-1.5.86.86,0,0,0-1.1-.6,1,1,0,0,0-.5.4,5.69,5.69,0,0,0-.4,2.6,27.38,27.38,0,0,0,0-2.9c-.1-.3-.2-.5-.5-.6a20.68,20.68,0,0,0,3.5.3Zm-7.8,2.8c.1-1.6,1.1-1.6,2.4-2.3l.6-.3a3.19,3.19,0,0,0-.3,1.4.43.43,0,0,0-.4.4,15.28,15.28,0,0,0-.7,3.6,2.76,2.76,0,0,1-1.6-2.8Zm8,2.1a15.46,15.46,0,0,0,.7-2.3,1.34,1.34,0,0,0,.7.6.78.78,0,0,0,.8-.2.45.45,0,0,0,0-.5,7.49,7.49,0,0,1-.4-1.6c.1.1.2.3.3.4,1,2-.5,2.9-2.1,3.6Z"/><path class="cls-1" d="M77.66,15a6.19,6.19,0,0,0-3.8.4c-3-.5-7.2,1.1-7.8,4.4-.6,3.9,4.2,4.2,6.8,3.9,3.2-.3,6.8-2.5,6.7-6A2.41,2.41,0,0,0,77.66,15ZM71,17.52l.4-.2c-.2.2-.5.3-.7.5a6.2,6.2,0,0,0-2.2,1.7l-.1-.1C68.66,18.52,70.26,17.92,71,17.52Zm3.5,3.7a6.53,6.53,0,0,1-2,.5,10,10,0,0,0,1.4-.8,9.91,9.91,0,0,0,1.7-1.1c.7-.4,1.3-.9,2.1-1.4h0C77.26,19.42,75.26,20.82,74.46,21.22Z"/><path class="cls-1" d="M57.66,17.32a.55.55,0,1,1-1.1-.1h0c-2.7.1-5.7,1.9-5.9,4.7s2.3,4.6,5.1,4.4c2.4-.2,5.8-2.3,6.6-4.6C63.26,18.72,60.26,16.52,57.66,17.32Zm1.9,4.7a8.07,8.07,0,0,1-2.4,1.7,4.47,4.47,0,0,0,1.6-2,3,3,0,0,0,1.3-2.1c.6,1,.2,1.7-.5,2.4Z"/><path class="cls-1" d="M92.46,21.72c-1.7-1.8-5.9,0-7.5,1.2-2.3,1.7-1.8,3.6-.3,5h0a.77.77,0,0,0,.7.8h.2a9.5,9.5,0,0,0,3.3,1.3c2.6.4,8.6.5,9.3-3C98.76,23.92,95.26,21.32,92.46,21.72Zm.9,3.8a6,6,0,0,0,.1,2.3l-.7.1a.35.35,0,0,1,.1-.2A5.09,5.09,0,0,1,93.36,25.52Zm-1.7-2.7a2.7,2.7,0,0,0-.7.8,3,3,0,0,0-.4-1,1.39,1.39,0,0,1,1.1.2Zm-5,4.2c0-.1-.1-.1,0,0a4,4,0,0,1,.6-1.5,7.49,7.49,0,0,0-.4,1.6Zm4.5.9a13.33,13.33,0,0,1-2.8-.3c.1-.3.1-.6.2-.9a6.55,6.55,0,0,1,.8-1.3,9.25,9.25,0,0,0,.5-1c.1.7-.1,1.6,0,2.1a.72.72,0,0,0,.9.5h.1a2.84,2.84,0,0,0,.8-1.1l-.3,1.8a.37.37,0,0,0,.1.3Zm3.3-.4a2.5,2.5,0,0,0-.4-1.8c.1-.6.1-1.1.2-1.7a3.39,3.39,0,0,1,1.4,1.5c.5,1.1-.2,1.7-1.2,2Z"/><path class="cls-1" d="M175.56,44.22c-.3-5.2-3-10-6-14.1-2.1-2.9-4.9-5-7.6-7.4a50.13,50.13,0,0,0-6.6-5.6,75.46,75.46,0,0,0-18.2-7.9c-3.3-1-6.8-1.7-10.1-2.4-1.4-.3-2.7-.7-4-1-2-.4-4,.1-6.1-.5h-.6c-1.7-2.6-8-3.3-10-2.9-3.5.8-7.1,3.8-10.2.5A8.3,8.3,0,0,0,89.26,0c-3.1.1-4.7,3-7.5,3.4-2.2.3-3.2-1.1-5-2a12.16,12.16,0,0,0-4.6-.9c-3.2-.2-5.3,1.3-7.7,3.3-2.2,1.8-5.5,1.9-8.2,3.1l-.6-.6c-1.1-1.5-3.1-1.8-5.3-1.1a15.74,15.74,0,0,0-5.7,3.4c-1.9,1.6-4.3.5-6.7,1.2a81.83,81.83,0,0,0-8.2,3.2,54.37,54.37,0,0,0-8.6,3.7,41.56,41.56,0,0,0-10.3,7.9A24.21,24.21,0,0,0,6,29.32c-3.2,4.1-4.7,9.3-5.5,14.3-.6,4.1-1,11,1.4,14.7,2.8,4.3,8.5,3.9,13,4.4,11.2,1.2,22.4,2,33.6,2.8,3.5.3,6.8,1.1,10.3,1.3s7,.2,10.5.4c6.2.4,12.4.6,18.6,1,6.6.4,13.2-.4,19.8-.3,6.1,0,12.3-.4,18.3-.9,11.2-.8,22.3-1.5,33.4-3.3,4.7-.8,10.5-3.1,13.7-6.7C176,53.82,175.76,48.42,175.56,44.22Zm-70.4-38a2.55,2.55,0,0,1,1.2-.8,23.76,23.76,0,0,1,3.7-.6.52.52,0,0,0,0,.8c.1.1.2.2.3.2,1.5.3,4.3,0,3.7,2.4a2.45,2.45,0,0,1-2.1,1.9,17.63,17.63,0,0,0,0-2.3,1.06,1.06,0,0,0-1.2-1c-.2,0-.3.1-.5.1a1.06,1.06,0,0,0-1.4-.2,2.2,2.2,0,0,0-.1-.8,1,1,0,0,0-1.3-.6.1.1,0,0,0-.1.1c-.2.2-.5.4-.7.6a.6.6,0,0,0-.4.1,5.26,5.26,0,0,0-1.5,2.6C104.26,8.12,104.16,7.32,105.16,6.22Zm-13-1.6a3,3,0,0,0,1-.4l.4.4a11.55,11.55,0,0,1-1.6.2h-.3C91.86,4.72,92.06,4.72,92.16,4.62ZM86.66,4h.5a2.84,2.84,0,0,0-1,.9.37.37,0,0,0-.1.3c-.2,0-.4-.1-.6-.1.5-.4.8-.8,1.2-1.1Zm-14.6,1.8c.3-.1,1.6-.6,1.7-.3s-.9.7-1.4.8a1,1,0,0,0-.5-.4Zm.1,2.8.3-.3c.6-.3,1.1-.5,1.5-.7,1-.5,2.1-1.4,1.8-2.6,0-.1,0-.2-.1-.2,2.3,1.7-2.8,4.1-4.1,4.6a4.25,4.25,0,0,1-1.1.2Zm-5.3-2.5a7.33,7.33,0,0,1,2.3-1.6.35.35,0,0,0,.2.1c-.3.1-.5.2-.8.3a10.38,10.38,0,0,0-1.7,1.2l-.2.3Zm-19.6,7.3c.5-.5,1-1.1,1.5-1.6.2-.3.5-.8.8-1.3l.1-.1h0c-.1.5-.3.9-.4,1.4a8.64,8.64,0,0,1-2.1,2.9h0c0,.1-.1.1-.1.2a3.55,3.55,0,0,1-1-.2A7.69,7.69,0,0,0,47.26,13.42Zm5.8-6a4.87,4.87,0,0,1,1.1.4,1,1,0,0,1,.4.5,1.09,1.09,0,0,0,.2,1.4,2.38,2.38,0,0,0-1.1.6,4.13,4.13,0,0,0,.2-1.9,1,1,0,0,0-1.8-.2l-.3.6v-.1h0c0-.1-.1-.3-.1-.4a6.71,6.71,0,0,1,1.4-.9Zm-6.8,3.8a12,12,0,0,1,1.2-1.1L46,12c-.4.5-.9,1-1.3,1.5C44.46,12.32,45.46,12.12,46.26,11.22Zm126.2,40.1c-1.3,6.3-9.1,9-14.9,9.8-9.6,1.3-19.1,2.1-28.7,2.8-10,.7-20.1,1.2-30.1,1.7-10.9.5-21.8-.5-32.7-.9-10.5-.5-20.9-1.4-31.3-2.5-4.7-.5-9.4-.7-14.2-1.1s-14.5-.2-16.7-5-1.1-12.4.4-17.2c2.1-6.7,6.1-10.1,11.6-14,4.2-3.1,8.9-6.6,13.7-8.7,2.3-1,4.6-1.8,7-2.6,1.5-.4,3.2-1,4.9-1.4h.1a2,2,0,0,1,.8.1c-1.3,2.7,1.4,4.7,4.3,4.8,3.3.2,8.5-1.1,9.8-4.6a8.73,8.73,0,0,0,.5-2.2,1,1,0,0,0,.9-.1c.9-.5,1.9-.9,2.8-1.4.4-.2.9-.4,1.3-.6a3.21,3.21,0,0,0,1.4-.1h.1c0,3.1,5,4.3,7.4,3.9,2.9-.5,7.3-2.6,7.5-6,.1,0,.2.1.4.1a10.54,10.54,0,0,0,5-.2,4.49,4.49,0,0,0,2.7,1,26.8,26.8,0,0,0,4.9-.2,10.53,10.53,0,0,0,3.6-.8A5,5,0,0,0,98.86,7a12.57,12.57,0,0,0,3.3-.5c-1.2,2.8,2.5,5.2,5,5.8a25.12,25.12,0,0,0,2.7.4.64.64,0,0,0,.9.1l.1-.1h0c2.4-.1,4.7-1.1,5.3-3.9,0-.2.1-.4.1-.6,2.4.7,5,.4,7.5,1,2.2.4,4.4,1,6.6,1.6,5.5,1.6,11.2,2.5,16.5,4.9a47.29,47.29,0,0,1,12.6,8.7c4.2,3.9,8.3,7.2,11.1,12.3A21.17,21.17,0,0,1,172.46,51.32Z"/><path class="cls-1" d="M119.76,19.62c-.9-1.7-2.1-1.1-3.5-1.4,0-.2-.2-.4-.5-.5-2-.3-3.6-.9-5.6-.6a9.67,9.67,0,0,0-5.7,2.6c-2.8,3.4,2.1,5.9,4.8,6.4,3.2.6,8.4,1,10.3-2.4A4.27,4.27,0,0,0,119.76,19.62Zm-1.9,2.7a6.92,6.92,0,0,0-1.9-1,1.67,1.67,0,0,0-.1-1.2c0-.1-.1-.2-.2-.3,1.1.8,2.6,1.5,2.2,2.5Zm-7.3-1.3a.35.35,0,0,1-.2-.1,1.27,1.27,0,0,1,.6-.1,5.7,5.7,0,0,1,1.3.1h.1l-1.1.3a6.37,6.37,0,0,1-.7-.2Zm4.2-1.9a6.94,6.94,0,0,0-1.3-.5l1.1.1c.1.1.1.3.2.4Zm-5.3,4.9c-1.5-.3-4.8-1-2.6-3.5a2.11,2.11,0,0,0,.5,1.3,1.78,1.78,0,0,0,.4,1,3.07,3.07,0,0,0,2.4.8,20.44,20.44,0,0,0,3.5,0,11.53,11.53,0,0,1,2.6.3c-2,1-4.7.5-6.8.1Z"/><path class="cls-1" d="M68.76,29c-1.1-.8-2.1-.3-3.2.3-.1,0-.1.1-.2.1a5.12,5.12,0,0,0-3.8.8c-1.1.8-2.5,2.3-2.6,3.8-.2,3.2,3.8,4.1,6.2,3.5,2.2-.5,5.3-2,5.4-4.6A4.68,4.68,0,0,0,68.76,29Zm-5.9,2.6c-.1.2-.2.3-.3.5a17.38,17.38,0,0,0-1.3,1.5A3.89,3.89,0,0,1,62.86,31.62Zm5.7,1.6c-.4,1.3-2.3,2-3.4,2.3a6,6,0,0,0,.8-.8c.5-.6,1.3-.8,1.7-1.6a3.55,3.55,0,0,0,.4-.9,2.51,2.51,0,0,0,.4-.7h0A3.22,3.22,0,0,1,68.56,33.22Z"/><path class="cls-1" d="M41.26,23.12a2.25,2.25,0,0,0-2.2-1.9.43.43,0,0,0-.4-.4,14.27,14.27,0,0,0-5.4,1.3,16.76,16.76,0,0,0-3.8,2.3c-2,1.6-3.3,4.7,0,5.9s7.5-1.5,9.8-3.6C40.26,25.72,41.36,24.42,41.26,23.12Zm-5.7,1h0l-.4.5a2.85,2.85,0,0,1-1.4.8l-.4.2c.4-.4.9-.8,1.3-1.2l.6-.3Zm-6.2,3.5c-.1-.8.7-1.7,1.6-2.3-.7,1.2-.4,2.8,1,3-1.1.2-2.4.3-2.6-.7Zm9.3-3.3c-.2.2-.3.4-.5.6a1.28,1.28,0,0,0-.9-1.6h-.1a1.27,1.27,0,0,0-.7-.9,15.39,15.39,0,0,1,1.9-.8c0,.1,0,.1.1.2.7,1,1,1.4.2,2.5Z"/><path class="cls-1" d="M45.56,32.52c-.5.1-.7.8-.1.9s1.5.5,1.6,1.1-.8,1.3-1.1,1.6a10.25,10.25,0,0,1-4.2,2.6c0-.1.1-.2.1-.3s.2-.3.3-.6l.7-.5c.9-.6,2.2-1.5,2.3-2.7a1.1,1.1,0,0,0-.6-1c.1-.2.1-.5-.1-.6a.47.47,0,0,0-.5-.5c-2.1-.3-5,2.2-5.9,3.9-1.2,2.3-.1,4.5,2.5,4.6,3,.1,6.4-2.3,8.1-4.7C50.46,33.72,48.06,32.22,45.56,32.52Z"/><path class="cls-1" d="M90.16,35.82a4.19,4.19,0,0,0-1.4-.9.82.82,0,0,0-1-1.1,14.13,14.13,0,0,0-2.2.6c-2-.1-5.4,2.2-5.6,3.6-.2,2,2.4,3.1,4,3.3,2,.2,5.2.6,5.6-2,.1-.2-.1-.4-.3-.5h-.2a10.41,10.41,0,0,0-1.6.6,11.3,11.3,0,0,1-2.6,0,4.19,4.19,0,0,1-2.2-.5c-1.2-.7-.6-1.3.3-1.8.2-.1.5-.3.7-.4a2.12,2.12,0,0,0,1.8,1.7,5,5,0,0,0,1.7.1,2.54,2.54,0,0,0,.7-.2,1.33,1.33,0,0,0,.5-.3l.1-.1v-.1a.71.71,0,0,0,.3-.6v-.3c1.3,1.1.9,2.9,1.7,4.3a.65.65,0,0,0,.8.2c.1,0,.1-.1.2-.2C92.36,39.72,91.56,37.12,90.16,35.82Z"/><path class="cls-1" d="M136.36,24a13.57,13.57,0,0,1-4.8,1.2,6.6,6.6,0,0,1-1.4-.1,3.18,3.18,0,0,0,2.6-1.7.88.88,0,0,0-.5-1h-.1l-.2-.1a1,1,0,0,0-.1-.9l-.2-.2a3.37,3.37,0,0,1,1.7.5c.6.4,1.3-.5.8-1-2.2-2-10-1.6-9.3,2.6.8,4.5,10.9,5.7,12.2,1.1a.49.49,0,0,0-.3-.6C136.66,23.92,136.46,23.92,136.36,24Zm-5.7-1.6c-.3.1-.5.2-.8.3a3.18,3.18,0,0,1-1.4.2c.7-.5,1.6-.9,2.2-.5Z"/><path class="cls-1" d="M161,31.52c-1.5-3.3-3.1-6.8-6.6-8.3a.48.48,0,0,0-.6.2.44.44,0,0,0,.1.5c2.9,1.9,4.2,5.1,5.6,8.2.7,1.5,1.2,3.2,1.9,4.7a13.16,13.16,0,0,1,1.5,3.9c-.1.1-.2.2-.2.3-.8,2.5-.7,5.2-1.3,7.7-.3,1.1-.7,2.1-.9,3.2-.1.3-1,3.3-1.2,3a.37.37,0,0,0-.3-.1c-.1,0-.1.1-.1.2v.4a.32.32,0,0,0,.3.3h.1c1.8-.4,2-2.2,2.4-3.7s.9-3.2,1.2-4.9a55.8,55.8,0,0,1,.8-5.7C165,38.92,162.06,33.82,161,31.52Z"/><path class="cls-1" d="M154.76,26.72a.67.67,0,0,0-.7-.4.62.62,0,0,0-.4.6,32,32,0,0,0,1.6,3.9c.7,1.7,1.2,3.5,2,5.3.4.9,3.4,6.1,2.5,6.9-.2.2,0,.4.2.4C162.46,42.92,155,27.82,154.76,26.72Z"/><path class="cls-1" d="M155.86,40.82a46.9,46.9,0,0,0-3.3-12.6c-.3-.6-1.3-.1-1,.4.4.8,4.2,13.3,3.2,15.3-.1-.3-.4-.6-.7-.5a.56.56,0,0,0-.5.6,27.43,27.43,0,0,1-2.2,9.8c-.9,2.5-1.8,5.3-4.3,6.7-.2.1-.2.3-.1.5s.2.2.3.2c2.4-.1,3.6-2.3,4.5-4.3,1.6-3.8,3-7.9,3.1-12C156.36,45.42,156,41.52,155.86,40.82Z"/><path class="cls-1" d="M151.46,40.52a42.09,42.09,0,0,0-1.1-6c-.4-1.3-.5-3.1-1.3-4.2-.4-.5-1.3,0-.9.5a7.87,7.87,0,0,1,.8,3,48.16,48.16,0,0,1,1.1,5.2c0,.3.5,6.4.2,6.3a.52.52,0,0,0-.4.2.37.37,0,0,0,.1.3l.2.4a.47.47,0,0,0,.6.1C152.46,45.32,151.56,42,151.46,40.52Z"/><path class="cls-1" d="M146.56,39.22c-.1-1.6-.3-3.2-.3-4.8a3.7,3.7,0,0,0-.6-2.9c-.4-.6-1.4,0-1,.6.7,1.1.3,2.5.4,3.7s.3,2.6.3,3.9c0,.7.1,7-.5,6.6-.1-.1-.3,0-.4.1v.2a1.12,1.12,0,0,0,.8.7.37.37,0,0,0,.5-.2C147.36,44.92,146.76,41.62,146.56,39.22Z"/><path class="cls-1" d="M143,41.52c-.1-1.6-.3-3.2-.5-4.7a12,12,0,0,0-.9-4.5c-.3-.6-1.3-.1-1,.6,1,2,.9,5.4,1.1,7.6s.5,4.9-.1,7.1v-.7c0-.5-.9-.7-1-.1a58.22,58.22,0,0,1-1.8,8.5,16.75,16.75,0,0,1-3.5,6.9c-.2.2,0,.7.3.6,2.4-.9,3.5-3.8,4.4-6a27.09,27.09,0,0,0,1.6-7.9.37.37,0,0,0,.3-.1C143.76,46.92,143.06,44,143,41.52Z"/><path class="cls-1" d="M139,44.12c-.1-3.3-.3-6.6-.5-9.8,0-.7-1.1-.7-1,0,.2,2.6.3,5.2.4,7.8,0,1.1.7,4.3-.4,5.1-.2.1-.1.5.1.5C139,47.52,139,45.22,139,44.12Z"/><path class="cls-1" d="M132.76,34.62c-.1-.3-.4-.2-.4.1.6,3.9,1.1,8.3,0,12.1a.22.22,0,0,0,.4.2C134.86,43.72,133.76,38.22,132.76,34.62Z"/><path class="cls-1" d="M129.36,35.92a.5.5,0,0,0-1,0h0c0,2.5.5,5.1.4,7.6-.1,1.8-.3,4.3-1.3,5.8-.1.2.1.5.3.3,1.6-1.2,1.5-2.5,1.8-4.4C130.06,42.12,129.36,39,129.36,35.92Z"/><path class="cls-1" d="M124.26,37.92a.3.3,0,0,0-.6,0c-.1,1.6-.1,3.2-.2,4.8,0,1-.1,3.6-.6,4.5-.1.2.2.5.4.3a7,7,0,0,0,1.1-3.7A38.53,38.53,0,0,0,124.26,37.92Z"/><path class="cls-1" d="M118.86,42.62a6.26,6.26,0,0,0-.3,2.7c.1.4.8.5.9,0a20.48,20.48,0,0,1,.5-2.4.57.57,0,1,0-1.1-.3Z"/><path class="cls-1" d="M144.56,23.52a37.11,37.11,0,0,0-2.2-5.5c-.3-.6-1.3-.1-1,.6a47.07,47.07,0,0,1,2.1,5.2,14.17,14.17,0,0,0,.8,1.8,5.83,5.83,0,0,1,.6,2.6c0,.2.4.2.5,0C146,26.12,145.26,25.42,144.56,23.52Z"/><path class="cls-1" d="M140.56,24.52a25.16,25.16,0,0,0-1.3-4.7c-.3-.7-1.4-.4-1.2.3a25.16,25.16,0,0,1,1.3,4.7,11.4,11.4,0,0,0,1.5,3.4c.1.3.6.1.6-.2C141.56,26.82,140.76,25.72,140.56,24.52Z"/><path class="cls-1" d="M122.56,34.82a40.92,40.92,0,0,0-1.8-4.9c-.3-.6-1.3-.1-1,.6.6,1.4,1.1,2.9,1.6,4.3a17.1,17.1,0,0,1,.9,3h-.2a.22.22,0,0,0-.3.3,1,1,0,0,0,.8.7.37.37,0,0,0,.5-.2C123.66,37.22,123.06,36,122.56,34.82Z"/><path class="cls-1" d="M118.76,35.42c-.6-2.1-1.4-4.2-2.1-6.3-.2-.7-1.3-.4-1,.3.3.9,3.6,10,2.9,10.3-.2.1-.2.5.1.5h.3c.1,0,.3-.1.3-.2C119.76,38.42,119.26,37,118.76,35.42Z"/><path class="cls-1" d="M115.86,39.82a21.62,21.62,0,0,0-1.4-6.1c-.2-.4-.8-.2-.6.2a24.24,24.24,0,0,1,1,4.5c.2,1.1.7,3-.4,3.8a.19.19,0,0,0,0,.3c0,.1.1.1.2.1C115.86,42.42,116,40.82,115.86,39.82Z"/><path class="cls-1" d="M111.06,39.92a.6.6,0,0,0-1.2,0V41a4.1,4.1,0,0,0,.1,1.1.42.42,0,0,0,.6.3.32.32,0,0,0,.3-.3A2,2,0,0,0,111,41Z"/><path class="cls-1" d="M121.66,18.42c-.8-1.5-2.2-3.1-2.6-4.8-.1-.6-.9-.3-.8.2a15,15,0,0,0,1.9,3.8c.3.6.6,1.3.9,1.9s.8,1,1.1,1.6a.37.37,0,0,0,.3.1.1.1,0,0,0,.1-.1C123.16,20.32,122.06,19.32,121.66,18.42Z"/><path class="cls-1" d="M123.56,16.72c-1.1-1.6-2.1-3.4-3.3-5-.4-.5-1.2.2-.8.8,1.1,1.4,1.8,2.9,2.8,4.4a12.3,12.3,0,0,1,1.9,3.1c.1.2.3.3.4,0C125.06,18.92,124.16,17.62,123.56,16.72Z"/><path class="cls-1" d="M127.36,17.22a5,5,0,0,1-1.1-2.7,14.76,14.76,0,0,0-1-2.7.51.51,0,1,0-.9.5,19.43,19.43,0,0,1,1.5,3.6,2.31,2.31,0,0,0,1.3,1.7c.1,0,.3-.1.3-.2A.31.31,0,0,0,127.36,17.22Z"/><path class="cls-1" d="M168.26,39.12a.55.55,0,0,0-1.1,0c0,1.3.4,2.7.4,4a33.41,33.41,0,0,1-.5,4.3c-.2,1.5-.3,4.7-1.9,5.4-.1.1-.2.3-.1.4s.1.1.2.1C169.86,54,168.36,41.12,168.26,39.12Z"/><path class="cls-1" d="M158.46,42.72c-.4,2.4-.7,4.8-1.3,7.2-.5,1.9-1,4.8-2.7,6.1-.2.2-.2.6.2.6,4.4-.3,4-10.9,4.3-13.8C159,42.52,158.46,42.52,158.46,42.72Z"/><path class="cls-1" d="M146.76,47.62a28.8,28.8,0,0,1-1.3,3.1c-.4.8-.5,1.8-.9,2.6-.7,1.6-2.4,2.6-3.4,4.1-.2.3.2.5.4.3,1.4-1.1,3.1-2.2,3.9-3.9.4-.9.5-1.9.9-2.9a28.5,28.5,0,0,0,1.2-3.1C148,47.22,147,46.92,146.76,47.62Z"/><path class="cls-1" d="M135.66,49.22a30.14,30.14,0,0,1-2.8,5.7c-.9,1.4-2,4.1-3.9,3.6a.52.52,0,0,0-.4.2.37.37,0,0,0,.1.3c1.8,1.1,2.8.1,3.8-1.4a39.2,39.2,0,0,0,4.3-8.1C137.06,48.82,136,48.52,135.66,49.22Z"/><path class="cls-1" d="M131.26,46.62a19.14,19.14,0,0,0-2.2,5.3c-.9,2.5-2.3,6.6-5.1,7.4-.1,0-.2.2-.2.3a.22.22,0,0,0,.2.2c5.3.5,6.1-9.5,8.3-12.6C132.56,46.62,131.66,46,131.26,46.62Z"/><path class="cls-1" d="M124.56,47.92a39.1,39.1,0,0,1-2.7,6.7c-1,1.8-1.7,4.2-3.3,5.5a.37.37,0,0,0-.1.3c.1.1.1.1.2.1,2.2-.5,2.6-2.6,3.7-4.3a37.74,37.74,0,0,0,3.4-8C126.06,47.52,124.86,47.22,124.56,47.92Z"/><path class="cls-1" d="M118.86,47.92c-1.1,3.8-2.2,10.6-6.1,12.6-.1.1-.2.3-.1.4s.1.1.2.1c2-.2,3.1-1.8,3.9-3.5a60,60,0,0,0,3.2-9.3.75.75,0,0,0-.5-.8C119.26,47.52,119,47.62,118.86,47.92Z"/><path class="cls-1" d="M113.16,48a39.78,39.78,0,0,1-5.4,12.3c-.1.2.2.5.4.4,3.4-2.5,5.1-8.4,6.2-12.4a.58.58,0,0,0-.6-.6A.42.42,0,0,0,113.16,48Z"/><path class="cls-1" d="M107.06,50c-.5,1.9-1.9,3.6-2.8,5.4a12.3,12.3,0,0,1-3,4.4c-.2.2,0,.4.2.4,1.9-.3,2.8-2,3.6-3.6,1-2,2.5-4.1,3-6.3a.57.57,0,0,0-.4-.7C107.36,49.52,107.16,49.72,107.06,50Z"/><path class="cls-1" d="M106.76,39.92c-.1,2.6-1.6,5.3-2.8,7.5l-1.2,2.4a.54.54,0,0,0-.8-.2l-.3.3c-.3,1.1-1.4,2.2-2,3.1s-1.1,2.2-1.7,3.2a10.46,10.46,0,0,0-1.3,2.3.22.22,0,0,0,.4.2c.6-.9,1.3-1.7,1.9-2.6s1.1-2,1.8-3a.1.1,0,0,0,.1.1c1.7.7,3-3.4,3.5-4.5,1.4-2.7,3-5.8,3.1-8.9C107.66,39.42,106.76,39.42,106.76,39.92Z"/><path class="cls-1" d="M102.46,43.12a.57.57,0,0,0-1.1.3c.4,1.4-1.8,3.8-2.4,5a36,36,0,0,1-2.9,5c-.1-.2-.2-.2-.4-.2a.22.22,0,0,0-.2.2,3.55,3.55,0,0,0-.2,1,.63.63,0,0,0,.6.8c1.2-.2,1.3-.9,1.9-1.9.9-1.5,1.6-2.8,2.4-4.4S103.16,44.92,102.46,43.12Z"/><path class="cls-1" d="M99.36,42.82c-.1-1-1.7-1-1.6,0s-1.9,2.8-2.5,3.5a16.8,16.8,0,0,1-1.8,2.1c-.7.7-2.2,1.7-1.8,2.8a.72.72,0,0,0,.9.5c.2,0,.3-.2.4-.3a33.77,33.77,0,0,1,3.1-3.5,35,35,0,0,1,2.4-3C99.06,44.22,99.46,43.82,99.36,42.82Z"/><path class="cls-1" d="M88.56,50.22c-.8,1-2.3,2.3-2,3.8a.57.57,0,0,0,.7.4.78.78,0,0,0,.4-.4,10.62,10.62,0,0,1,2.1-3.1C90.36,50.22,89.16,49.52,88.56,50.22Z"/><path class="cls-1" d="M26.46,35.62c.1-.7-1-1-1.1-.3a35.53,35.53,0,0,1-1.7,6.4c-.5,1.4-1.2,2.7-.4,4,.1.1.2.2.3.1h.3c.2,0,.2-.2,0-.3-.6-.4,1.1-4.3,1.3-4.9A18.47,18.47,0,0,0,26.46,35.62Z"/><path class="cls-1" d="M27.66,39.82c-.3,2.4-1,5.1-.7,7.5a.3.3,0,0,0,.6,0h0c.3-2.5.7-4.9.9-7.4C28.36,39.52,27.66,39.42,27.66,39.82Z"/></g></g></svg>