<?xml version="1.0" encoding="iso-8859-1"?>
<svg xmlns="http://www.w3.org/2000/svg" viewBox="0 0 202.26 84.5"><defs><style>.cls-1{fill:#CE6C59;}</style></defs><title>Asset 11</title><g id="Layer_2" data-name="Layer 2"><g id="Layer_1-2" data-name="Layer 1"><path class="cls-1" d="M17.63,71.2a.92.92,0,0,0,1.3.8c3.2-1.6,6.5-3.1,9.9-4.6a20.75,20.75,0,0,0,.3,4.3,40,40,0,0,0,.8,4.8.84.84,0,0,0,.6,1.4c29.6,1.8,59.3,3.3,89,4.7,14.2.7,28.4,1.5,42.6,1.6,6.8.1,13.5-.1,20.3-.4,4-.2,12.2.8,15.1-2.7,1.4-1.7,1.4-4.7,1.6-6.7q.75-5.7,1.2-11.4c.7-8.2,1.2-16.4,1.3-24.6a.89.89,0,0,0-.8-1c-5.7-.7-11.4-1.4-17.1-2h-.3c.3-2.3.6-4.6.7-6.9a.45.45,0,0,0,0-.5,71.73,71.73,0,0,0,0-13.9c.1,0,.2-.1.3-.2.3-.6.1-1.9-.8-1.8a.78.78,0,0,0-.7,1.1c.1.1.2.1.4.1h0c-.2,3-.3,6-.5,9-12.2-7.3-27.8-10.2-41.7-11.8a187.36,187.36,0,0,0-43,.4c-32.4,3.9-63.3,15.2-93.2,28C3.73,34.6,2.83,30.3,2,26a.52.52,0,0,0-.2-.4c27.5-13.2,57.4-20.2,87.7-22.4a340.66,340.66,0,0,1,46.3,0c15.4,1.1,32.7,1.6,46.2,9.9.5.3,1.2-.4.6-.8-9.4-6.9-21.1-8.5-32.4-9.7-12-1.3-24.1-2-36.2-2.1C89.33.4,64.43,3,40.53,9.4A226,226,0,0,0,.73,24a.94.94,0,0,0-.1,1.6.6.6,0,0,0-.1.4,134.72,134.72,0,0,0,7.6,27.8c1.8,4.6,3.8,9.1,6,13.4C15.33,68.8,16,70.6,17.63,71.2Zm179.5,3.6c-.3,2.3-.1,3.9-2.2,5.2s-3.8,1.2-6.1,1.4c-6.9.5-13.9.8-20.9.8-29,.2-58.1-2-87-3.5-16.7-.8-33.4-1.8-50.1-2.8,0-1.5-.1-3.1-.2-4.6V70.1c29.2-.1,58.5.4,87.7,1.4,14.5.5,29,1.1,43.5,1.9,12.2.6,23.9,1.4,35.7-1.8A27.92,27.92,0,0,1,197.13,74.8Zm.5-3.7c-13.5,2.9-27.1,1.5-40.8.7q-21.3-1.2-42.6-1.8c-27.8-.9-55.7-1.3-83.5-1.3a14.92,14.92,0,0,0-.2-2.1,23.29,23.29,0,0,1,2.8-1.1q43.8,0,87.6,1.3,21.75.75,43.5,1.8c11.1.5,23.4,2.2,33.9-2.4A44.44,44.44,0,0,0,197.63,71.1Zm.6-6.1v.2c-12.8,4.6-26.6,2.4-39.9,1.7q-21.3-1.05-42.6-1.8c-26.2-.8-52.5-1.3-78.7-1.2a204,204,0,0,1,59.9-13.2c27.9-1.8,54.6,2.9,81.3,10.9.6.2,1-.7.4-.9h0c0-.1.1-.2.1-.3a51.59,51.59,0,0,1,.9-5.2,183.07,183.07,0,0,0,19.6,0C198.83,58.6,198.63,61.8,198.23,65Zm.9-10.5c-6.5-.2-12.9-.2-19.4-.5.3-1.2.5-2.4.8-3.5a.62.62,0,0,0,.2-.7c0-.1.1-.2.1-.4a127.62,127.62,0,0,0,18.5,2C199.33,52.4,199.23,53.5,199.13,54.5ZM193.93,38c1.2.2,4.2,0,5.1.7,1.5,1.1.8,3.3.8,5l-.3,6.9a113.41,113.41,0,0,0-18.3-2.5c.2-.9.4-1.7.6-2.6a.52.52,0,0,0,.3-1h0a67.52,67.52,0,0,0,1.4-7.6.6.6,0,0,1,.1-.4c.1,0,.1.1.2.1C187.13,37,190.53,37.5,193.93,38ZM5.63,40.1c29.1-12.5,59.1-23.7,90.7-27.8a185.42,185.42,0,0,1,43.4-.9c14.6,1.5,30.2,4.6,43.2,11.6h.1c-.1,1.2-.1,2.5-.2,3.7-9.1-5.8-21.3-7.7-31.7-9.4a200.22,200.22,0,0,0-35.4-2.6,240.72,240.72,0,0,0-70.9,12A268.91,268.91,0,0,0,6.33,42.6,18.25,18.25,0,0,1,5.63,40.1Zm2.6,8.4c-.5-1.4-1-2.9-1.4-4.3,27.1-13.5,56.3-23,86.5-26.4a212.51,212.51,0,0,1,45.1-.5c14.9,1.4,31,3.8,44.4,10.8-.2,3.1-.5,6.3-.9,9.4-.3,2.2-.7,4.3-1.1,6.5-24.9-11.6-54.1-15-81.3-13.1C68.73,33,38.73,42.3,11,55.8,10,53.3,9,50.9,8.23,48.5Zm3.9,9.9c-.2-.4-.4-.9-.6-1.3,27.1-13.2,56.4-22.4,86.6-24.7,28.5-2.2,55.8,2.5,82.4,12.6l-.6,3a.55.55,0,0,0-.2,1v.2c-23.9-10.1-51.3-13.4-77-11.3C88.23,39.1,74,42.5,60,46.3c-15.4,4.2-31.3,8.7-45.6,16.1a.55.55,0,0,0-.3.5C13.23,61.1,12.63,59.3,12.13,58.4Zm2.2,5.2a.45.45,0,0,0,.5,0c27.4-11.5,56.7-21.4,86.6-24.1,26.8-2.4,52.7,2,78,10.7-.9,3.3-2.1,6.7-2.2,10.1-24.6-10.1-52.8-13.1-79.2-11.6a202.36,202.36,0,0,0-79.3,21.1C17.13,69.3,15.53,66.4,14.33,63.6Z"/><path class="cls-1" d="M165.33,84.5h-3.2c-12.8-.1-25.7-.7-38.2-1.3l-4.4-.2c-31.5-1.5-59.9-2.9-89-4.7a1.23,1.23,0,0,1-1.1-.7,1.48,1.48,0,0,1,0-1.3,40.41,40.41,0,0,1-.8-4.6l-.1-.7a25.82,25.82,0,0,1-.3-2.9C25,69.5,22,70.9,19,72.4a1.27,1.27,0,0,1-1.2,0,1.6,1.6,0,0,1-.7-.9c-1.4-.6-2.1-2-2.8-3.4a2.51,2.51,0,0,0-.4-.7,119.49,119.49,0,0,1-6-13.5A138.23,138.23,0,0,1,.33,26.1v-.4a1.31,1.31,0,0,1-.3-1,1.17,1.17,0,0,1,.8-1.1A231.47,231.47,0,0,1,40.63,8.9,285,285,0,0,1,114.23,0c11.8.1,24,.8,36.2,2.1,12.4,1.3,23.4,3,32.6,9.7a1.08,1.08,0,0,1,.7-.3,1.29,1.29,0,0,1,1.1.5,2.18,2.18,0,0,1,.2,1.9c-.1.1-.1.2-.2.3a77,77,0,0,1,0,13.6.62.62,0,0,1-.1.7c-.2,1.9-.4,3.9-.7,6.3,4.3.4,8.6.9,12.8,1.4l4.1.5a1.43,1.43,0,0,1,1.2,1.5c-.1,7.8-.6,16.1-1.3,24.6q-.45,5.55-1.2,11.4a5.28,5.28,0,0,0-.1,1.3c-.2,2-.4,4.2-1.6,5.7-2.4,3-8.3,2.9-12.5,2.9h-2.9C177,84.4,171.43,84.5,165.33,84.5ZM30.43,76.4h0l-.1.2a1.27,1.27,0,0,0-.1.6c0,.1.1.2.3.2,29,1.8,57.5,3.2,89,4.7l4.4.2c12.5.6,25.5,1.2,38.2,1.3,7.3.1,14-.1,20.2-.4h3c4.1,0,9.6.1,11.8-2.5,1.1-1.3,1.2-3.4,1.4-5.2,0-.5.1-.9.1-1.3q.75-5.85,1.2-11.4c.8-8.5,1.2-16.7,1.3-24.5,0-.1,0-.5-.4-.5l-4.1-.5c-4.2-.5-8.6-1-12.9-1.5l-.4.1.3.2c3.3.6,6.5,1,10.3,1.6.3,0,.8.1,1.4.1,1.5.1,3.2.1,3.9.7,1.4,1,1.2,2.8,1,4.3,0,.4-.1.7-.1,1.1-.1,2-.2,4.2-.3,6.9v.8c0,.7-.1,1.3-.1,2l-.1,2c-.3,3.7-.5,6.8-.8,9.6l-.1.5-.3.1c-10.6,3.8-21.9,3-32.8,2.2-2.4-.2-4.8-.3-7.2-.5-14.4-.7-28.7-1.3-42.6-1.8-27.1-.9-53.5-1.3-78.7-1.2h-2.4l2.3-.9A204.28,204.28,0,0,1,97,50.4c25.3-1.6,51.2,1.8,81.4,10.9l.1-.1L178,61l.2-.5v-.1c.2-1.6.5-3.3.9-5.2l.1-.4h.4c5.7.2,12.4.4,19,0-1.6,0-3.3-.1-4.9-.1-4.5-.1-9.2-.2-13.9-.4h-.5l.1-.5c.3-1.2.5-2.4.8-3.6V50l.2-.1-.1-.2.3-1,.4.1a123,123,0,0,0,17.7,2,122.94,122.94,0,0,0-17.5-2.4h-.5l.3-1.3c.1-.6.3-1.2.4-1.8l.1-.4.4.1c.1-.1.1-.1,0-.1l-.3-.2v-.4a61.35,61.35,0,0,0,1.4-7.6l.1-1.1h0v-.4c.3-2.7.6-4.9.7-6.9v-.1l.1-.1-.1-.1v-.2a79.22,79.22,0,0,0,0-13.8v-.2c-.2,2.6-.3,5.1-.4,7.6l-.1,1.3h0l-.1,1.3c0,.9-.1,1.9-.1,2.8v.8l-.6-.4c-8.7-5.6-20.3-7.5-30.6-9.2l-.9-.2a196.11,196.11,0,0,0-35.4-2.6,239,239,0,0,0-70.7,12A265,265,0,0,0,6.43,43.1l-.5.2-.2-.5a13.32,13.32,0,0,1-.5-1.9l-.3-1,.4-.2c26.3-11.3,57.6-23.5,90.8-27.9a187.64,187.64,0,0,1,43.5-.9c17.8,1.8,32,5.6,43.2,11.5l-.1-.1c-13-7.8-30-10.4-41.5-11.7a187.13,187.13,0,0,0-42.9.4c-34,4.1-66.1,16.4-93,28l-.5.2-.1-.5c-1.1-4.1-2.1-8.5-2.9-13a.1.1,0,0,0-.1-.1l-.3-.3-.2.3v.1a137.33,137.33,0,0,0,7.6,27.7,126.27,126.27,0,0,0,6,13.4c.1.2.3.5.4.7.7,1.4,1.3,2.7,2.5,3.1l.3.1V71a.55.55,0,0,0,.3.5.48.48,0,0,0,.4,0c3.2-1.6,6.5-3.1,9.9-4.6l.7-.3-.1.8a21.14,21.14,0,0,0,.2,3.5l.1.7a42,42,0,0,0,.8,4.7h0V76a24.37,24.37,0,0,0-.1-2.7c0-.6-.1-1.2-.1-1.8V69.9h.4c29.2-.1,58.8.4,87.7,1.4,13.5.5,27.8,1.1,43.5,1.9l1.5.1c9.6.5,18.7,1,27.9-.5-9.6,1.2-19.2.6-28.6,0l-5.9-.3c-13.7-.7-28-1.4-42.6-1.8-27.1-.9-55.2-1.3-83.5-1.3h-.4V69a15,15,0,0,0-.2-2l-.1-.4.3-.1c.8-.3,1.6-.7,2.3-1l.6-.2h.6c31.6,0,60.1.4,87,1.3,13.4.4,27.6,1,43.5,1.8l5,.3c9.8.6,19.9,1.2,28.7-2.6l.7-.3-.1.8c-.2,1.6-.3,3.2-.5,4.8l-.2,1.3c-.1.8-.2,1.6-.3,2.3h0c0,.3-.1.6-.1,1-.2,1.9-.3,3.3-2.3,4.6-1.8,1.2-3.5,1.3-5.5,1.4l-.8.1c-6.5.5-13.3.8-20.9.8-22.3.2-44.9-1.1-66.8-2.4-6.7-.4-13.5-.8-20.2-1.1-16.6-.8-33.5-1.8-50.1-2.8Zm.8-.8c16.5,1,33.2,1.9,49.7,2.8,6.7.3,13.5.7,20.2,1.1,21.9,1.2,44.5,2.5,66.8,2.4,7.6-.1,14.4-.3,20.8-.8l.9-.1a9.26,9.26,0,0,0,5.1-1.3c1.6-1,1.7-2.1,1.9-4,0-.3.1-.6.1-1,.1-.8.2-1.6.3-2.3h0c-11.2,2.8-22.2,2.3-33.8,1.7l-1.5-.1c-15.7-.8-29.9-1.4-43.5-1.9-28.8-1-58.1-1.5-87.2-1.4v.7a10.87,10.87,0,0,0,.1,1.8A19.27,19.27,0,0,1,31.23,75.6Zm3.9-7.3c26.8,0,53.4.4,79.1,1.3,14.6.5,28.9,1.1,42.6,1.8l5.9.3c11.3.7,23.1,1.4,34.5-1,.1-1.2.3-2.5.4-3.7-8.9,3.6-18.8,3-28.4,2.4l-5-.3c-15.9-.8-30.1-1.4-43.4-1.8-26.9-.9-55.4-1.3-87-1.3h-.5l-.3.1c-.7.3-1.3.5-2,.8a6.15,6.15,0,0,1,.1,1.3C32.43,68.3,33.73,68.3,35.13,68.3Zm8-4.8c23.4,0,47.8.4,72.7,1.2,13.9.4,28.2,1,42.6,1.8,2.4.1,4.9.3,7.3.5,10.8.8,21.9,1.5,32.2-2.1.3-2.7.5-5.6.8-9.1-6.5.4-13.1.2-18.8,0-.3,1.7-.6,3.3-.8,4.7h0a.76.76,0,0,1,.2.9.93.93,0,0,1-1.2.6c-30.2-9.1-55.9-12.5-81.1-10.9a203.85,203.85,0,0,0-57.4,12.3C40.73,63.5,41.93,63.5,43.13,63.5Zm137.2-10c4.4.2,8.9.3,13.3.4,1.7,0,3.4.1,5.1.1l.1-.7c0-.5.1-1,.1-1.5a137,137,0,0,1-17.6-1.9v.3a.55.55,0,0,1-.3.5A28.64,28.64,0,0,0,180.33,53.5Zm1.4-5.9A133.53,133.53,0,0,1,199,50q.15-3.6.3-6.3c0-.4.1-.7.1-1.1.1-1.4.3-2.8-.7-3.5-.5-.4-2.3-.5-3.4-.5-.6,0-1.1-.1-1.5-.1h0c-3.7-.5-6.8-1-10-1.5-.4,2.7-.9,5.3-1.4,7.3a1,1,0,0,1,.3,1,.9.9,0,0,1-.6.6,8.33,8.33,0,0,1-.4,1.5ZM6.13,40.4l.1.3c.1.4.3.9.4,1.3a277.89,277.89,0,0,1,38.1-15.7,241.62,241.62,0,0,1,71-12.1,197.9,197.9,0,0,1,35.5,2.6l.9.2c10.1,1.7,21.5,3.5,30.3,8.9,0-.7.1-1.3.1-2v-.6c-11.1-5.9-25.1-9.6-42.9-11.4a185.93,185.93,0,0,0-43.3.9C63.43,17.1,32.33,29.2,6.13,40.4ZM2.73,25.6h0c.8,4.4,1.7,8.5,2.8,12.5,26.9-11.5,58.9-23.7,92.8-27.8a188.9,188.9,0,0,1,43.1-.4c11.5,1.3,28.1,3.9,41.3,11.4.1-2.6.2-5.2.4-7.8a.1.1,0,0,1-.1-.1,1,1,0,0,1-.9-.1c-12.4-7.6-28.5-8.7-42.6-9.6-1.1-.1-2.3-.1-3.4-.2a323.73,323.73,0,0,0-46.2,0C58,5.8,28.73,13.2,2.73,25.6ZM112.73.9a280.22,280.22,0,0,0-71.8,8.9A219.29,219.29,0,0,0,1.23,24.4c-.2.1-.2.2-.3.4a.76.76,0,0,0,.2.5l.1.1.5-.3C27.93,12.5,57.53,5,89.63,2.7a340.57,340.57,0,0,1,46.3,0c1.1.1,2.2.2,3.4.2,14.3.9,30.5,2,43,9.7h.1c-9.1-6.7-19.9-8.3-32.2-9.6s-24.4-2-36.1-2.1ZM184,13.2v.3h.3a1.15,1.15,0,0,0-.1-1l-.1-.1Zm-.1-.9c-.1,0-.2.1-.3.2Zm-165.2,58-.2-.1c-1.3-.4-2.7-2.3-4.3-5.7h0l-.9-2.1h0c-.3-.8-.6-1.5-.9-2.2s-.5-1.4-.7-1.8h0c-.1-.3-.3-.6-.4-.9l-.3-.8.4-.2c29.3-14.3,58.5-22.6,86.7-24.7,27.7-2.1,54.7,2,82.5,12.7l.4.1-.1.4-.6,3-.1.3-.3.1a.1.1,0,0,0-.1.1v.1l.2.2-.2.8h-.5c-22.5-9.5-49.7-13.5-76.8-11.2-15.2,1.3-30.1,4.9-42.6,8.4-13.7,3.8-30.7,8.4-45.5,16.1-.1,0-.1.1-.1.2v.2l.1.1h.1c21.3-8.9,53.4-21.1,86.7-24.1,25-2.2,50.6,1.2,78.2,10.7l.4.1-.1.4c-.2.8-.5,1.7-.7,2.5a32.42,32.42,0,0,0-1.5,7.4v.7l-.6-.2c-22.5-9.2-49.8-13.2-79-11.5a202.57,202.57,0,0,0-79.2,21.1ZM15,64.1c1.4,3,2.6,4.8,3.6,5.3a203,203,0,0,1,79.3-21.1c29-1.7,56.3,2.3,78.8,11.4a41.53,41.53,0,0,1,1.5-7l.6-2.1c-27.3-9.3-52.7-12.7-77.4-10.5-33.1,2.9-65.2,15-86.4,24Zm-2.5-5.9c.2.5.5,1.1.8,1.8s.5,1.3.8,2h0c14.8-7.7,31.9-12.4,45.7-16.2,12.6-3.4,27.5-7.1,42.8-8.4,26.8-2.2,53.9,1.7,76.4,11v-.1a1.16,1.16,0,0,1,.5-.7c.2-.8.3-1.6.5-2.4-27.6-10.5-54.3-14.6-81.8-12.5-28,2.1-56.9,10.3-86,24.4a8.11,8.11,0,0,0,.3,1.1Zm-1.8-1.9-.2-.4c-1-2.4-1.9-4.8-2.8-7.2h0c-.5-1.3-.9-2.7-1.4-4.4l-.1-.4.3-.2c28.7-14.2,57.8-23.2,86.6-26.5a207.48,207.48,0,0,1,45.2-.5c14.4,1.4,31,3.8,44.6,10.8l.3.1v.3c-.2,3.7-.5,6.7-.9,9.5-.3,2-.6,4.2-1.1,6.5l-.1.6-.5-.2c-28.9-13.4-60-14.5-81.1-13.1-28.7,1.9-58.4,10.3-88.3,24.9Zm-2.1-7.9c.8,2.2,1.6,4.5,2.6,6.7C41,40.6,70.73,32.3,99.43,30.4c21-1.4,52.1-.3,81,12.9.4-2.1.7-4.1,1-5.9.4-2.7.7-5.6.9-9.1-13.4-6.9-29.8-9.2-44-10.6a218.88,218.88,0,0,0-45,.5c-28.6,3.3-57.5,12.1-86,26.2.5,1.5.9,2.8,1.3,4Z"/><path class="cls-1" d="M8.43,24A15.67,15.67,0,0,0,13,20.1c.2-.3-.2-.6-.5-.4A26.87,26.87,0,0,1,8,23.4C7.83,23.6,8.13,24.1,8.43,24Z"/><path class="cls-1" d="M8.33,24.4a.55.55,0,0,1-.6-.4.75.75,0,0,1,.2-1l.4-.3a25.06,25.06,0,0,0,4-3.3.91.91,0,0,1,1.1-.1.77.77,0,0,1,.1,1,16.66,16.66,0,0,1-4.8,4h0A.76.76,0,0,1,8.33,24.4Z"/><path class="cls-1" d="M15.73,23a32.92,32.92,0,0,0,6.7-6.2c.3-.3-.2-.7-.5-.4-2.1,2.2-4.3,4.1-6.6,6.1C15,22.7,15.43,23.2,15.73,23Z"/><path class="cls-1" d="M15.63,23.5a.71.71,0,0,1-.6-.3.91.91,0,0,1,.1-1.1,63.65,63.65,0,0,0,6.6-6,.78.78,0,0,1,1.1,0,.77.77,0,0,1,.1,1,32.56,32.56,0,0,1-6.8,6.3h0A1.09,1.09,0,0,1,15.63,23.5Z"/><path class="cls-1" d="M29.93,17.8c2.4-2,4.7-4.3,7-6.5.3-.3-.1-.9-.4-.6a86.86,86.86,0,0,0-7,6.6C29.23,17.6,29.63,18.1,29.93,17.8Z"/><path class="cls-1" d="M29.73,18.3a.86.86,0,0,1-.6-.3.67.67,0,0,1,0-1C31,15,33,13.2,35,11.4l1.1-1a.78.78,0,0,1,1.1,0,.82.82,0,0,1,0,1.2l-1.1,1.1c-1.9,1.8-3.8,3.7-5.9,5.4h0C30.13,18.3,29.93,18.3,29.73,18.3ZM33,14.4a6.47,6.47,0,0,1-.9.8A6.47,6.47,0,0,0,33,14.4Z"/><path class="cls-1" d="M40.93,15.1c2.2-1.6,4-3.6,6.3-5.2.4-.3-.1-.9-.5-.6-2.2,1.4-4.8,3.1-6.2,5.4A.28.28,0,0,0,40.93,15.1Z"/><path class="cls-1" d="M40.73,15.6a.76.76,0,0,1-.6-1.2c1.5-2.4,4.3-4.2,6.3-5.5a.86.86,0,0,1,1.2.3c.2.4.2.9-.2,1.1A29.71,29.71,0,0,0,44,13.1a23.12,23.12,0,0,1-2.9,2.4h0A.6.6,0,0,1,40.73,15.6Zm4.7-4.9a21.8,21.8,0,0,0-4,3.4l2-1.7A16.32,16.32,0,0,1,45.43,10.7Z"/><path class="cls-1" d="M53.73,11.1c1.8-1.6,3.6-3.3,5.3-5.1.2-.2-.2-.6-.4-.4-1.8,1.6-3.6,3.2-5.3,4.9C52.93,10.8,53.33,11.4,53.73,11.1Z"/><path class="cls-1" d="M53.53,11.6a.76.76,0,0,1-.5-.2.91.91,0,0,1,0-1.2c1.7-1.7,3.5-3.3,5.3-5a.68.68,0,0,1,1,.1.67.67,0,0,1,0,1q-2.7,2.7-5.4,5.1h0A.76.76,0,0,1,53.53,11.6Zm-.1-.9Z"/><path class="cls-1" d="M61.73,11.2a31.2,31.2,0,0,0,6.4-5.1c.2-.2-.1-.6-.4-.5a31.41,31.41,0,0,0-6.6,4.9C60.93,11,61.33,11.5,61.73,11.2Z"/><path class="cls-1" d="M61.53,11.8a.91.91,0,0,1-.7-.3.92.92,0,0,1,.1-1.2,32,32,0,0,1,6.7-4.9.65.65,0,0,1,.9.2.75.75,0,0,1,0,.9A32.54,32.54,0,0,1,62,11.6C61.83,11.7,61.73,11.8,61.53,11.8Zm5.4-5a32.75,32.75,0,0,0-5.1,3.9A32.75,32.75,0,0,0,66.93,6.8Z"/><path class="cls-1" d="M75.63,7.1c1.9-1.4,3.7-3.2,5.5-4.8a.32.32,0,0,0-.4-.5c-1.8,1.6-3.8,3.1-5.6,4.8C74.83,6.9,75.33,7.3,75.63,7.1Z"/><path class="cls-1" d="M75.43,7.6a.71.71,0,0,1-.6-.3.67.67,0,0,1,0-1,41.26,41.26,0,0,1,3.9-3.4l1.7-1.4a.67.67,0,0,1,1,.1.71.71,0,0,1-.1,1.1c-.5.5-1.1,1-1.6,1.5a42.36,42.36,0,0,1-3.9,3.3h0A.6.6,0,0,1,75.43,7.6Zm-.1-.8Z"/><path class="cls-1" d="M83.43,6.9a22.16,22.16,0,0,1,4.4-3.7c.4-.2,0-.7-.4-.5a15.34,15.34,0,0,0-4.6,3.8A.36.36,0,0,0,83.43,6.9Z"/><path class="cls-1" d="M83.23,7.5a.76.76,0,0,1-.5-.2.68.68,0,0,1-.1-1,15.74,15.74,0,0,1,4.7-4,.91.91,0,0,1,1.1.3.75.75,0,0,1-.2,1,22.7,22.7,0,0,0-4.4,3.7A1.42,1.42,0,0,1,83.23,7.5Z"/><path class="cls-1" d="M92.23,6.5A23,23,0,0,1,96.33,3c.3-.2,0-.8-.4-.6A13.57,13.57,0,0,0,91.63,6C91.33,6.4,91.93,6.8,92.23,6.5Z"/><path class="cls-1" d="M91.93,7.1a.76.76,0,0,1-.5-.2.78.78,0,0,1-.1-1.1A13.46,13.46,0,0,1,95.83,2a.69.69,0,0,1,1,.3.89.89,0,0,1-.2,1.1,20.67,20.67,0,0,0-4,3.4A1.33,1.33,0,0,1,91.93,7.1Z"/><path class="cls-1" d="M102.43,4.4a20.57,20.57,0,0,0,3-2.9c.2-.2-.1-.6-.4-.4A20.57,20.57,0,0,0,102,4C101.83,4.3,102.23,4.6,102.43,4.4Z"/><path class="cls-1" d="M102.33,4.9a.76.76,0,0,1-.5-.2.67.67,0,0,1,0-1l.1-.1a20.57,20.57,0,0,1,3-2.9.63.63,0,0,1,.9.1.76.76,0,0,1,.1.9,21.27,21.27,0,0,1-3,3l-.3-.3.3.3A1,1,0,0,1,102.33,4.9Z"/><path class="cls-1" d="M109.53,6.9a14.89,14.89,0,0,1,4.1-4.2c.3-.2,0-.8-.3-.6a10.38,10.38,0,0,0-4.4,4.4C108.83,7,109.33,7.3,109.53,6.9Z"/><path class="cls-1" d="M109.33,7.5a.6.6,0,0,1-.4-.1.71.71,0,0,1-.3-1,10.24,10.24,0,0,1,4.6-4.6.78.78,0,0,1,1,.3.75.75,0,0,1-.2,1,13.86,13.86,0,0,0-4,4h0A.87.87,0,0,1,109.33,7.5Zm-.1-.8Z"/><path class="cls-1" d="M121.93,5.5c1.2-.8,2.4-1.8,3.6-2.7.3-.3-.1-.8-.4-.5L121.53,5C121.23,5.2,121.63,5.7,121.93,5.5Z"/><path class="cls-1" d="M121.73,6a.71.71,0,0,1-.6-.3.79.79,0,0,1,.1-1.1,25.6,25.6,0,0,1,2.6-2l1-.7a.73.73,0,0,1,1.1.2.78.78,0,0,1-.1,1.1,8.75,8.75,0,0,1-1,.8,25.6,25.6,0,0,1-2.6,2C122,5.9,121.93,6,121.73,6Z"/><path class="cls-1" d="M131.43,5.3a15.72,15.72,0,0,1,3.3-3c.1-.1,0-.3-.1-.2a8.08,8.08,0,0,0-3.5,3.1A.19.19,0,0,0,131.43,5.3Z"/><path class="cls-1" d="M131.33,5.8a.6.6,0,0,1-.4-.1.66.66,0,0,1-.2-.7,8.14,8.14,0,0,1,3.7-3.3.57.57,0,0,1,.7.2.54.54,0,0,1-.2.8,10.67,10.67,0,0,0-2.5,2.2,4.62,4.62,0,0,1-.7.7h0A.52.52,0,0,1,131.33,5.8Zm.3-.5Zm3.3-2.8Zm-.4-.6Z"/><path class="cls-1" d="M139.43,6.2a19.28,19.28,0,0,0,3-2.7c.4-.4-.1-1.1-.5-.7a20.57,20.57,0,0,0-3,2.9C138.73,6,139.13,6.3,139.43,6.2Z"/><path class="cls-1" d="M139.23,6.7a1.42,1.42,0,0,1-.6-.2.92.92,0,0,1-.1-1,10,10,0,0,1,2.3-2.3c.3-.2.5-.5.8-.7a.91.91,0,0,1,1.2,0,.93.93,0,0,1,0,1.3l-.7.7a12.07,12.07,0,0,1-2.4,2.1h0C139.53,6.6,139.43,6.7,139.23,6.7Zm2.4-3c-.1,0-.1.1-.2.1a12.88,12.88,0,0,0-1.7,1.6,12.48,12.48,0,0,0,1.7-1.6C141.53,3.8,141.53,3.7,141.63,3.7Z"/><path class="cls-1" d="M148.23,7a14.79,14.79,0,0,1,2.5-2.5.36.36,0,0,0-.4-.6,5.89,5.89,0,0,0-2.7,2.7C147.33,7.1,147.93,7.4,148.23,7Z"/><path class="cls-1" d="M147.93,7.6a.9.9,0,0,1-.5-.1.78.78,0,0,1-.3-1A7.34,7.34,0,0,1,150,3.6c.5-.3.9,0,1.2.3a.75.75,0,0,1-.2,1,9,9,0,0,0-2,1.9c-.1.2-.3.3-.4.5h0A1.33,1.33,0,0,1,147.93,7.6ZM149,5.4a2.7,2.7,0,0,0-.7.8C148.53,6,148.73,5.7,149,5.4Z"/><path class="cls-1" d="M156.23,8.3a10.7,10.7,0,0,0,1.6-1.4l1.5-1.5c.3-.3-.2-.9-.6-.6-.5.5-1.1,1-1.6,1.5a6.19,6.19,0,0,0-1.4,1.4C155.53,7.9,155.83,8.5,156.23,8.3Z"/><path class="cls-1" d="M156,8.8a1.42,1.42,0,0,1-.6-.2.91.91,0,0,1-.1-1.2,6.28,6.28,0,0,1,1.1-1.2,1.38,1.38,0,0,1,.4-.3c.5-.5,1.1-1,1.6-1.5a.82.82,0,0,1,1.2.1.91.91,0,0,1,0,1.2l-1.5,1.5-.3.3a5.53,5.53,0,0,1-1.4,1.2h0C156.33,8.7,156.13,8.8,156,8.8Zm0-.9h0l.2.4Zm2.5-2.4c-.4.3-.7.7-1.1,1a1.38,1.38,0,0,1-.4.3,4.74,4.74,0,0,0-1,1,5,5,0,0,0,1.1-1l.3-.3A11,11,0,0,0,158.53,5.5Z"/><path class="cls-1" d="M164.83,8.3c.6-.5,1-1.1,1.6-1.6a12.73,12.73,0,0,1,1.9-1.3c.3-.2,0-.8-.3-.6a7.47,7.47,0,0,0-3.6,3.2C164.23,8.2,164.63,8.5,164.83,8.3Z"/><path class="cls-1" d="M164.63,8.8a.52.52,0,0,1-.4-.2.65.65,0,0,1-.2-.9c.7-1.7,2.5-2.7,3.8-3.4a.78.78,0,0,1,1,.3.69.69,0,0,1-.3,1,8.32,8.32,0,0,0-1.8,1.3l-.7.7-.9.9A.55.55,0,0,1,164.63,8.8Zm-.1-.9Z"/><path class="cls-1" d="M170.43,11.7A28.19,28.19,0,0,1,174,8.4c.3-.2,0-.9-.4-.7a9.85,9.85,0,0,0-3.9,3.4A.46.46,0,0,0,170.43,11.7Z"/><path class="cls-1" d="M170.13,12.3a.76.76,0,0,1-.5-.2.83.83,0,0,1-.2-1.2,9.86,9.86,0,0,1,4.1-3.6.69.69,0,0,1,1,.3c.2.4.2.9-.2,1.1a17,17,0,0,0-2.8,2.6l-.7.7A1.33,1.33,0,0,1,170.13,12.3Zm2.8-3.7a8.09,8.09,0,0,0-2.8,2.7h0l.7-.7C171.53,10,172.13,9.3,172.93,8.6Z"/><path class="cls-1" d="M176,14.7c1.9-1.2,3.5-2.6,5.6-3.7.4-.2.2-.9-.3-.7a19.1,19.1,0,0,0-5.8,3.9C175.23,14.5,175.73,14.9,176,14.7Z"/><path class="cls-1" d="M175.83,15.2a.91.91,0,0,1-.7-.3.67.67,0,0,1,0-1,20.47,20.47,0,0,1,5.9-4,.84.84,0,0,1,1.1.4.89.89,0,0,1-.4,1.2,19.18,19.18,0,0,0-3.5,2.3,14.29,14.29,0,0,1-2,1.4Zm3.7-3.4a15.39,15.39,0,0,0-3.2,2.3c.5-.3,1-.7,1.5-1A7,7,0,0,1,179.53,11.8Z"/><path class="cls-1" d="M181.23,18.1a16.07,16.07,0,0,0,4.7-3.9c.2-.3-.2-.7-.4-.4a51.94,51.94,0,0,1-4.6,3.6C180.53,17.6,180.83,18.3,181.23,18.1Z"/><path class="cls-1" d="M181.13,18.6a.75.75,0,0,1-.7-.4.83.83,0,0,1,.2-1.2c1.9-1.4,3.3-2.5,4.6-3.6a.76.76,0,0,1,1,0,.77.77,0,0,1,.1,1,15.33,15.33,0,0,1-4.8,4C181.33,18.5,181.23,18.6,181.13,18.6Zm-.1-.9h0l.2.4Zm3.2-2.3c-.8.6-1.6,1.3-2.6,2A25.6,25.6,0,0,0,184.23,15.4Z"/><path class="cls-1" d="M178.63,31.6a22.56,22.56,0,0,0,4.5-3.1c.4-.3-.1-.8-.4-.6a28.27,28.27,0,0,0-4.5,3.2C178,31.4,178.33,31.8,178.63,31.6Z"/><path class="cls-1" d="M178.53,32.1a.71.71,0,0,1-.6-.3.63.63,0,0,1,.1-.9,16.15,16.15,0,0,1,3.6-2.7,8.79,8.79,0,0,1,1-.6c.4-.2.9-.2,1.1.2a.72.72,0,0,1-.2,1.1c-.3.2-.6.5-.9.7a18.5,18.5,0,0,1-3.7,2.5h-.4Zm-.1-.9Zm3.1-2a17.68,17.68,0,0,0-2.2,1.6C180,30.3,180.83,29.8,181.53,29.2Z"/><path class="cls-1" d="M178.93,36.4a51.94,51.94,0,0,0,4.6-3.6c.4-.3-.1-1-.5-.7-1.6,1.2-3.2,2.2-4.7,3.5C178,36.1,178.43,36.7,178.93,36.4Z"/><path class="cls-1" d="M178.63,36.9a.85.85,0,0,1-.6-1.5,21.83,21.83,0,0,1,3.4-2.6,11.32,11.32,0,0,0,1.3-1,.83.83,0,0,1,1.2.2.91.91,0,0,1-.1,1.2l-1.3,1c-1.1.9-2.2,1.8-3.4,2.6h0A4.34,4.34,0,0,1,178.63,36.9Zm3.6-3.6c-.1.1-.2.1-.2.2a23.4,23.4,0,0,0-3.1,2.4,23.4,23.4,0,0,0,3.1-2.4Z"/><path class="cls-1" d="M187.23,39.9a31.3,31.3,0,0,0,4.5-2.2c.4-.2.1-.8-.2-.6a28.22,28.22,0,0,0-4.6,2.3C186.63,39.6,186.93,40,187.23,39.9Z"/><path class="cls-1" d="M187.13,40.4a.84.84,0,0,1-.7-.4.65.65,0,0,1,.2-.9,20.58,20.58,0,0,1,3.3-1.7c.4-.2.9-.4,1.3-.6a.78.78,0,0,1,1,.3.91.91,0,0,1-.3,1.1,7.46,7.46,0,0,0-1.2.7,24.94,24.94,0,0,1-3.3,1.6h0A.37.37,0,0,0,187.13,40.4Zm0-.9Z"/><path class="cls-1" d="M193.33,41.2c1.2-.8,2.4-1.8,3.6-2.7.4-.3-.1-.9-.5-.6-1.2.9-2.5,1.7-3.6,2.7C192.53,40.9,192.93,41.4,193.33,41.2Z"/><path class="cls-1" d="M193.13,41.7a1.08,1.08,0,0,1-.7-.3.91.91,0,0,1,.1-1.2,26.93,26.93,0,0,1,2.7-2,8.65,8.65,0,0,1,1-.7.71.71,0,0,1,1.1.2.77.77,0,0,1-.1,1.1c-.3.2-.6.5-.9.7a26.93,26.93,0,0,1-2.7,2C193.43,41.6,193.33,41.7,193.13,41.7Z"/><path class="cls-1" d="M195.93,44.7a43.46,43.46,0,0,0,5.7-3.8c.4-.3-.1-.8-.4-.6a54.24,54.24,0,0,0-5.6,3.7C195.33,44.3,195.53,44.9,195.93,44.7Z"/><path class="cls-1" d="M195.83,45.2a.62.62,0,0,1-.6-.4c-.2-.4-.2-.9.1-1.1a42.7,42.7,0,0,1,4.4-3,14.8,14.8,0,0,1,1.3-.8.84.84,0,0,1,.9,1.4,8.34,8.34,0,0,1-1.2.8,32.92,32.92,0,0,1-4.6,3A.37.37,0,0,1,195.83,45.2Zm3.6-3.3a27.51,27.51,0,0,0-2.8,1.9A27.5,27.5,0,0,0,199.43,41.9Z"/><path class="cls-1" d="M194.83,60.3c1.8-.7,3.4-2.2,5-3.2.3-.2,0-.7-.4-.5-1.6,1-3.6,1.8-5,3.1C194.23,60,194.43,60.5,194.83,60.3Z"/><path class="cls-1" d="M194.73,60.8a.55.55,0,0,1-.6-.4.91.91,0,0,1,.1-1.1,14.76,14.76,0,0,1,3.6-2.3c.5-.3,1-.5,1.5-.8a.8.8,0,0,1,1.1.3.75.75,0,0,1-.2,1,12.13,12.13,0,0,0-1.4,1,16.18,16.18,0,0,1-3.7,2.3h-.4Zm-.1-.9h0l.2.4Zm3.1-1.8a21.28,21.28,0,0,0-2.5,1.6A17.45,17.45,0,0,0,197.73,58.1Z"/><path class="cls-1" d="M196.43,63.7c1.2-.8,2.4-1.8,3.6-2.7.4-.3-.1-.9-.5-.6l-3.6,2.7C195.63,63.5,196,64,196.43,63.7Z"/><path class="cls-1" d="M196.23,64.3a.71.71,0,0,1-.6-.3.78.78,0,0,1,.1-1.1c1.2-1,2.5-2,3.6-2.8a.83.83,0,0,1,1.2.2.91.91,0,0,1-.1,1.2,33.78,33.78,0,0,1-3.6,2.7A3.53,3.53,0,0,0,196.23,64.3Zm-.1-.9h0l.3.4Z"/><path class="cls-1" d="M169.63,61.5c1.3-.5,2.5-1.1,3.8-1.7a.27.27,0,0,0-.2-.5,25.9,25.9,0,0,0-3.8,1.7C169,61.1,169.23,61.6,169.63,61.5Z"/><path class="cls-1" d="M169.53,61.9a1,1,0,0,1-.7-.4.73.73,0,0,1,.4-1,35.24,35.24,0,0,1,3.8-1.7.7.7,0,0,1,.9.4.78.78,0,0,1-.3,1c-1.4.7-2.6,1.3-3.8,1.8h0A.37.37,0,0,0,169.53,61.9Z"/><path class="cls-1" d="M161.73,58.5a46.53,46.53,0,0,0,5.2-2,.38.38,0,1,0-.3-.7,46.1,46.1,0,0,0-5.1,2.2C161,58.1,161.23,58.6,161.73,58.5Z"/><path class="cls-1" d="M161.53,58.9a.75.75,0,0,1-.7-.5.73.73,0,0,1,.4-1c1.3-.7,2.7-1.2,4.1-1.8l1.1-.4a.81.81,0,0,1,1.1.5.84.84,0,0,1-.4,1.1,5.36,5.36,0,0,0-1.1.5,26.13,26.13,0,0,1-4.2,1.6Zm0-.9h0l.1.4Z"/><path class="cls-1" d="M151.53,57.1a44.9,44.9,0,0,0,5.4-2.6.32.32,0,0,0-.2-.6c-1.8.8-3.8,1.5-5.5,2.4C150.83,56.6,151.13,57.3,151.53,57.1Z"/><path class="cls-1" d="M151.43,57.6a.75.75,0,0,1-.7-.5.84.84,0,0,1,.4-1.1,27.56,27.56,0,0,1,3.9-1.8,11.11,11.11,0,0,0,1.6-.7.76.76,0,1,1,.6,1.4c-.5.3-1,.5-1.6.8-1.3.6-2.6,1.3-3.9,1.8A.37.37,0,0,1,151.43,57.6Zm2.2-1.9c-.4.2-.9.4-1.3.6C152.83,56.1,153.23,55.9,153.63,55.7Z"/><path class="cls-1" d="M144.33,55.8c1.5-.5,2.9-1.1,4.4-1.7a.38.38,0,1,0-.3-.7c-1.5.5-3,1.1-4.4,1.7C143.63,55.2,143.83,55.9,144.33,55.8Z"/><path class="cls-1" d="M144.23,56.2a.89.89,0,0,1-.8-.5.84.84,0,0,1,.4-1.1c1.1-.5,2.2-.9,3.3-1.3l1.1-.4a.85.85,0,1,1,.6,1.6l-1.1.4c-1.1.4-2.2.9-3.3,1.3h-.2Z"/><path class="cls-1" d="M137,54.2a21.14,21.14,0,0,1,3.8-1.7c.3-.1.2-.6-.1-.5a7.4,7.4,0,0,0-4.2,1.7C136.13,53.9,136.63,54.4,137,54.2Z"/><path class="cls-1" d="M136.83,54.7a.75.75,0,0,1-.7-.4.8.8,0,0,1,.2-1.1,8.13,8.13,0,0,1,4.4-1.8.76.76,0,0,1,.8.6.62.62,0,0,1-.5.8,21.9,21.9,0,0,0-3.8,1.7A.4.4,0,0,1,136.83,54.7Zm1.6-1.8c-.1.1-.3.1-.4.2A.76.76,0,0,0,138.43,52.9Z"/><path class="cls-1" d="M129.73,53.5a14.6,14.6,0,0,1,4.1-2.7.38.38,0,1,0-.3-.7,12.06,12.06,0,0,0-4.3,2.7C128.83,53.2,129.33,53.9,129.73,53.5Z"/><path class="cls-1" d="M129.43,54.1a.86.86,0,0,1-.6-.3.93.93,0,0,1,0-1.3,12.75,12.75,0,0,1,4.5-2.8.81.81,0,0,1,1.1.5.84.84,0,0,1-.4,1.1,15.14,15.14,0,0,0-4,2.6h0A1.42,1.42,0,0,1,129.43,54.1Zm0-.9h0l.3.3Z"/><path class="cls-1" d="M118.63,53.3c2.7-1.1,5.4-2.3,8.2-3.5a.32.32,0,0,0-.2-.6c-2.7,1.1-5.5,2.2-8.2,3.4C117.93,52.8,118.23,53.5,118.63,53.3Z"/><path class="cls-1" d="M118.53,53.8a.75.75,0,0,1-.7-.5.84.84,0,0,1,.4-1.1c2.5-1.1,5-2.1,7.5-3.1l.7-.3a.76.76,0,1,1,.6,1.4l-.7.3c-2.4,1.1-4.9,2.2-7.5,3.1C118.73,53.8,118.63,53.8,118.53,53.8Zm0-.9h0l.2.4Z"/><path class="cls-1" d="M109.23,52a17,17,0,0,1,6.1-2.8c.4-.1.3-.7-.1-.6a14.94,14.94,0,0,0-6.4,2.9C108.53,51.7,108.93,52.2,109.23,52Z"/><path class="cls-1" d="M109,52.5a.71.71,0,0,1-.6-.3.79.79,0,0,1,.1-1.1,15.34,15.34,0,0,1,6.6-3,.64.64,0,0,1,.8.5.78.78,0,0,1-.6.9,16,16,0,0,0-5.9,2.8A.52.52,0,0,1,109,52.5Z"/><path class="cls-1" d="M98.83,53.1c2.2-1.3,4.4-2.6,6.6-4,.4-.2,0-.7-.4-.5-2.2,1.3-4.4,2.6-6.6,4C98,52.8,98.43,53.3,98.83,53.1Z"/><path class="cls-1" d="M98.63,53.6a.84.84,0,0,1-.7-.4.75.75,0,0,1,.2-1c2.2-1.3,4.4-2.6,6.6-4a.8.8,0,0,1,1.1.3.75.75,0,0,1-.2,1c-2.3,1.4-4.4,2.7-6.6,4h0A.6.6,0,0,1,98.63,53.6Z"/><path class="cls-1" d="M90.13,53a22.18,22.18,0,0,0,6-3.4c.4-.3-.1-.8-.4-.6a33.85,33.85,0,0,1-5.8,3.4C89.43,52.5,89.73,53.1,90.13,53Z"/><path class="cls-1" d="M89.93,53.5a.75.75,0,0,1-.7-.5.73.73,0,0,1,.4-1,25.87,25.87,0,0,0,5.7-3.3.72.72,0,0,1,1.1.2.78.78,0,0,1-.1,1.1,25.2,25.2,0,0,1-6.1,3.5h0C90.13,53.4,90,53.5,89.93,53.5Zm0-.9Z"/><path class="cls-1" d="M80.53,55.9c1.9-1.4,3.8-2.9,5.7-4.4.4-.3-.1-.9-.5-.6-1.9,1.4-3.9,2.9-5.7,4.4C79.63,55.6,80.13,56.2,80.53,55.9Z"/><path class="cls-1" d="M80.23,56.4a1.08,1.08,0,0,1-.7-.3.91.91,0,0,1,.1-1.2c1.7-1.3,3.4-2.6,5-3.8l.7-.5a.71.71,0,0,1,1.1.2.77.77,0,0,1-.1,1.1l-.7.6c-1.6,1.3-3.3,2.6-5,3.8A1,1,0,0,1,80.23,56.4Zm0-.9h0l.3.4Z"/><path class="cls-1" d="M13.33,21.8a23.81,23.81,0,0,1-.5,2.6,12.54,12.54,0,0,1-.9,2.5c-.3.8-.4,1.8-1.2,2.3a5.39,5.39,0,0,1-1.3.7,3.08,3.08,0,0,1-1.7.2l-.3-.3a5.55,5.55,0,0,1-.2-1.7,2.77,2.77,0,0,1,.3-1.3c.2-.8,1.1-1.1,1.7-1.7s1.2-1.1,1.8-1.7,1.2-1.2,1.9-1.8Z"/><path class="cls-1" d="M19.83,20.6a9.86,9.86,0,0,1-.3,2.4,20.94,20.94,0,0,1-.8,2.3c-.3.7-.5,1.7-1.3,2.1a5,5,0,0,1-1.3.4,4.68,4.68,0,0,1-1.6-.2l-.2-.3a8.38,8.38,0,0,1,0-1.6c.1-.4.2-.8.3-1.1.2-.7,1-.8,1.6-1.2l1.6-1.3c.6-.5,1.1-1,1.7-1.5Z"/><path class="cls-1" d="M23.63,17.4a8.49,8.49,0,0,1,1.1,2.6,9.25,9.25,0,0,1,.4,2.9v1.5a2.39,2.39,0,0,1-.5,1.4,4.29,4.29,0,0,1-2.9,1.7l-.3-.2c-.2-.7-.3-1.2-.4-1.7a6.15,6.15,0,0,1-.1-1.3,1.28,1.28,0,0,1,.4-1,3.33,3.33,0,0,0,.6-1,15.55,15.55,0,0,0,.8-2.3,18.43,18.43,0,0,0,.5-2.5Z"/><path class="cls-1" d="M30.33,16.5a27.49,27.49,0,0,1-1.5,3.6,37.18,37.18,0,0,1-1.9,3.4c-.7,1.1-1.2,2.4-2.3,3.1a5.08,5.08,0,0,1-1.8.9,7.8,7.8,0,0,1-2.2.4l-.3-.3a6.46,6.46,0,0,1,.6-2.1,9.15,9.15,0,0,1,.9-1.7c.6-1.1,1.8-1.6,2.8-2.4l2.8-2.5c.9-.8,1.8-1.7,2.8-2.6Z"/><path class="cls-1" d="M41.53,12.8c-.4,1.2-.8,2.3-1.2,3.5s-.9,2.3-1.4,3.4-.7,2.4-1.5,3.3A5.26,5.26,0,0,1,36,24.2a6.1,6.1,0,0,1-2,.9l-.3-.2a5.52,5.52,0,0,1-.1-2.2,8,8,0,0,1,.4-1.8c.4-1.2,1.5-1.9,2.2-2.9s1.6-1.9,2.4-2.8,1.7-1.8,2.6-2.7Z"/><path class="cls-1" d="M37.13,18.4a14.52,14.52,0,0,1-.2,3.6,23.25,23.25,0,0,1-.8,3.6c-.4,1.2-.5,2.5-1.4,3.4a4.43,4.43,0,0,1-1.5,1.2,5.91,5.91,0,0,1-2,.7l-.3-.3a7,7,0,0,1,.1-2.1,8.47,8.47,0,0,1,.4-1.7c.3-1.1,1.3-1.7,1.9-2.6s1.2-1.9,1.8-2.8,1.1-2,1.7-3Z"/><path class="cls-1" d="M35.73,15.4c-.6,1.4-1.2,2.7-1.8,4.1s-1.3,2.7-2,4-1.1,2.8-2.1,3.9a9,9,0,0,1-4,2.6l-.3-.2a10.15,10.15,0,0,1,1-4.7c.6-1.4,1.8-2.3,2.8-3.4l3-3.3c1-1.1,2-2.2,3.1-3.2Z"/><path class="cls-1" d="M45.53,16.1,44,19.2l-1.5,3.1c-.5,1-.6,2.2-1.4,3a15.39,15.39,0,0,1-1.3,1.2,5.08,5.08,0,0,1-1.8.9l-.4-.2a5.34,5.34,0,0,1-.3-2.1,4.84,4.84,0,0,1,.3-1.8c.3-1.2,1.4-1.9,2.2-2.8a29.49,29.49,0,0,1,2.5-2.5,30.13,30.13,0,0,1,2.8-2.2Z"/><path class="cls-1" d="M52.83,13.9a21.66,21.66,0,0,1,.4,2.5,20.9,20.9,0,0,1,.1,2.5,4.25,4.25,0,0,1-.3,2.5,2.4,2.4,0,0,1-1,1,3.38,3.38,0,0,1-1.6.7L50,23a4.82,4.82,0,0,1-.7-1.5,6.88,6.88,0,0,1-.2-1.3c-.1-.8.7-1.4,1-2.1a21.16,21.16,0,0,1,1.1-2.1l1.1-2.2Z"/><path class="cls-1" d="M63.23,8.9c-.2,1.3-.5,2.5-.8,3.7s-.8,2.4-1.2,3.6-.7,2.6-1.6,3.5a6.39,6.39,0,0,1-1.5,1.3,4.41,4.41,0,0,1-2.1.8l-.3-.2a7.94,7.94,0,0,1,.1-2.2,7.76,7.76,0,0,1,.5-1.8c.4-1.2,1.5-1.9,2.2-2.9l2.2-2.9,2.2-3Z"/><path class="cls-1" d="M70.23,7.5a47,47,0,0,1-3.5,4.3,37.05,37.05,0,0,1-4.2,3.7c-1.5,1.1-2.8,2.5-4.6,3.1a13.16,13.16,0,0,1-5.7.9l-.2-.4A14.24,14.24,0,0,1,56,15c1.4-1.1,3.2-1.5,4.8-2.3s3.2-1.6,4.7-2.5a44,44,0,0,0,4.5-3Z"/><path class="cls-1" d="M53,8.9a37.38,37.38,0,0,1-3.4,6.2,39.53,39.53,0,0,1-4.7,5.4c-.4.4-.9.8-1.3,1.2l-1.4,1.2c-.5.4-1,.7-1.5,1.1a11.94,11.94,0,0,1-1.6.8c-.6.2-1.1.4-1.7.6a11.63,11.63,0,0,1-1.8.4,11,11,0,0,1-1.8.2,12.75,12.75,0,0,1-1.9-.1l-.1-.4a5.26,5.26,0,0,1,1.4-1.2,13.45,13.45,0,0,1,1.4-1.1,7.1,7.1,0,0,1,1.4-1l1.3-1c.4-.3.9-.6,1.4-.9s.9-.5,1.4-.8l1.5-.8c.5-.3.9-.6,1.4-.9a53,53,0,0,0,5.2-4.2,32.13,32.13,0,0,0,4.6-5.1Z"/><path class="cls-1" d="M77.43,5.5a22.18,22.18,0,0,1-.3,3.7,25.4,25.4,0,0,1-1,3.7c-.4,1.2-.7,2.6-1.7,3.5a6.1,6.1,0,0,1-1.6,1.2,4.69,4.69,0,0,1-2.1.6l-.3-.3a12.48,12.48,0,0,1,.2-2.1,8.45,8.45,0,0,1,.5-1.7c.4-1.1,1.4-1.7,2.1-2.7s1.3-1.9,2-2.9,1.2-2,1.8-3.1Z"/><path class="cls-1" d="M92.23,4.9c-1.3.7-2.6,1.4-3.8,2.2s-2.5,1.5-3.7,2.3-2.2,1.9-3.6,2.3a11.14,11.14,0,0,1-4.6.7l-.2-.3a8.08,8.08,0,0,1,2.9-3.8c1.2-1,2.8-1.2,4.2-1.7a34.52,34.52,0,0,1,4.3-1.2,33.54,33.54,0,0,1,4.4-.7Z"/><path class="cls-1" d="M100.13,2.9a28.12,28.12,0,0,1-1,3.1c-.4,1-.8,2-1.3,3a7.28,7.28,0,0,1-1.7,2.8,5.3,5.3,0,0,1-1.5.8,4.23,4.23,0,0,1-2,.3l-.3-.3a5.57,5.57,0,0,1,.1-1.9,5.27,5.27,0,0,1,.5-1.5c.4-1,1.4-1.4,2.2-2.1l4.5-4.3Z"/><path class="cls-1" d="M104.23,8.9a20,20,0,0,1-.4,2.4,15.54,15.54,0,0,1-.8,2.3c-.3.7-.4,1.7-1.2,2.2a6.12,6.12,0,0,1-1.2.5,3.24,3.24,0,0,1-1.7,0l-.3-.3a4.67,4.67,0,0,1-.1-1.6,2.13,2.13,0,0,1,.3-1.2c.2-.7,1.1-1,1.6-1.5l3.5-3.1Z"/><path class="cls-1" d="M121.43,2.6a35.29,35.29,0,0,1-2.1,3.2c-.8,1-1.6,2-2.5,3s-1.6,2.1-2.9,2.6a6.5,6.5,0,0,1-4.2.5l-.2-.3a9.05,9.05,0,0,1,2.1-3.5c.8-.9,2.1-1.2,3.1-1.8s2.1-1.3,3.2-1.9,2.1-1.4,3.2-2.1Z"/><path class="cls-1" d="M128.73,4.4a18.67,18.67,0,0,1-1.5,3.2c-.6,1-1.2,2-1.9,3s-1.1,2.2-2.2,2.8a5.09,5.09,0,0,1-1.7.7,4.71,4.71,0,0,1-2.1.2L119,14a9.73,9.73,0,0,1,.5-2,5.3,5.3,0,0,1,.8-1.5c.6-1,1.7-1.4,2.6-2l2.7-2.1,2.7-2.2Z"/><path class="cls-1" d="M140,5.6a31.55,31.55,0,0,1-2.2,2.9c-.8.9-1.6,1.8-2.5,2.7s-1.5,2-2.7,2.4a12.09,12.09,0,0,1-1.8.5,8.07,8.07,0,0,1-2.2,0l-.2-.3a9.26,9.26,0,0,1,.8-2,8.28,8.28,0,0,1,1.1-1.5c.8-.9,2-1.1,3.1-1.7s2.1-1.1,3.1-1.7,2.1-1.1,3.2-1.6Z"/><path class="cls-1" d="M153.63,7.4a17.26,17.26,0,0,1-1.1,3.2,21.86,21.86,0,0,1-1.6,3c-.6,1-1,2.2-2.1,2.7a6.69,6.69,0,0,1-1.7.7,6.56,6.56,0,0,1-2,.1l-.2-.3a7.39,7.39,0,0,1,.5-1.9c.2-.6.5-1,.7-1.5.5-.9,1.6-1.2,2.4-1.9s1.6-1.3,2.4-2.1,1.6-1.5,2.4-2.2Z"/><path class="cls-1" d="M163.23,8.6a33.75,33.75,0,0,1-2.8,3.8,36.36,36.36,0,0,1-3.4,3.4c-1.2,1-2.3,2.4-3.8,2.9a8.4,8.4,0,0,1-5,.5l-.2-.4a14.36,14.36,0,0,1,3.2-3.6c1.1-1,2.6-1.3,4-2s2.6-1.5,3.9-2.3,2.6-1.7,3.8-2.6Z"/><path class="cls-1" d="M140.93,32c-.8,1.8-1.7,3.4-2.6,5.2l-2.7,5.1a21.83,21.83,0,0,1-2.9,4.9,14.58,14.58,0,0,1-4.7,3.7l-.3-.2a14.7,14.7,0,0,1,1.8-5.7c.8-1.7,2.4-3,3.6-4.5s2.5-2.9,3.7-4.4,2.6-2.9,3.9-4.3Z"/><path class="cls-1" d="M142.13,34.3a8.93,8.93,0,0,1-.8,4.3c-.5,1.4-1,2.6-1.4,3.8a12.86,12.86,0,0,0-.4,1.9,6.36,6.36,0,0,1-.6,1.8,11.33,11.33,0,0,1-2.6,3.5l-.4-.1a6.9,6.9,0,0,1-.8-4.6c.1-1.5,1.2-2.7,2-3.9a20.27,20.27,0,0,1,1.3-1.8l1.3-1.6a10.78,10.78,0,0,0,2.1-3.4Z"/><path class="cls-1" d="M150.33,38.4c-.9.9-1.8,1.7-2.6,2.5s-1.6,1.7-2.3,2.5a6.38,6.38,0,0,0-.8,1.4,3.6,3.6,0,0,1-.8,1.2,6.53,6.53,0,0,1-1.2,1.1c-.4.4-.9.8-1.5,1.3l-.4-.1a3.6,3.6,0,0,1-.7-2.2,4.92,4.92,0,0,1,.4-2.1,4.34,4.34,0,0,1,1.2-1.7,16.68,16.68,0,0,1,1.6-1.2,18.62,18.62,0,0,1,3.3-1.9A24.15,24.15,0,0,1,150,38Z"/><path class="cls-1" d="M164.13,38.7a34.84,34.84,0,0,1-2.8,3.9,37.28,37.28,0,0,1-3.2,3.6c-1.1,1.1-2.1,2.5-3.6,3.2a10.23,10.23,0,0,1-5,1.1l-.2-.3a12.53,12.53,0,0,1,2.9-4c1.1-1.1,2.6-1.6,3.9-2.4s2.6-1.7,3.9-2.6l3.9-2.7Z"/><path class="cls-1" d="M155.93,42.2a40.48,40.48,0,0,0-2.3,3.4c-.7,1.1-1.4,2.3-2.1,3.4s-.9,2.5-1.9,3.5a9.71,9.71,0,0,1-3.5,2.6l-.4-.2a7.87,7.87,0,0,1,.4-4.6c.5-1.4,1.8-2.3,2.7-3.3a29.86,29.86,0,0,1,3.2-2.9,26.37,26.37,0,0,1,3.5-2.3Z"/><path class="cls-1" d="M171.83,40.8c-1.5,1.3-3,2.6-4.4,3.9a54.39,54.39,0,0,0-4.1,4.2c-1.3,1.4-2.3,3.1-3.8,4.4a21.36,21.36,0,0,1-5.1,3.3l-.3-.2a12.69,12.69,0,0,1,2.5-5.8c1.2-1.7,3-2.8,4.6-4a45.2,45.2,0,0,1,5.1-3.4q2.7-1.5,5.4-2.7Z"/><path class="cls-1" d="M176.63,43.4c-1.6,1.1-3.1,2.1-4.5,3.2a48.67,48.67,0,0,0-4.2,3.5c-1.4,1.2-2.4,2.7-4,3.7a18,18,0,0,1-5.2,2.5l-.3-.3a12.31,12.31,0,0,1,2.8-5.3c1.3-1.5,3.1-2.3,4.7-3.3a35,35,0,0,1,5.1-2.6,49.28,49.28,0,0,1,5.4-1.9Z"/><path class="cls-1" d="M125.23,43.2a106.42,106.42,0,0,1,12.6-.7,89,89,0,0,1,12.6.9c4.2.6,8.5,1,12.5,2.5,1,.4,2,.7,3,1.1s1.9.9,2.9,1.3,1.9,1,2.8,1.5l2.7,1.8-.2.4c-1.1-.1-2.1-.3-3.2-.5l-3.1-.6-3-.6c-1-.2-2-.4-3-.7-4-.8-7.9-2.3-11.9-3.1a100.07,100.07,0,0,0-12.2-2c-4.1-.5-8.3-.8-12.4-.9Z"/><path class="cls-1" d="M188.63,36.9c-.7,1.9-1.4,3.8-2.2,5.8s-1.6,3.8-2.4,5.6-1.4,3.9-2.7,5.5a17.75,17.75,0,0,1-4.7,4.3l-.3-.2a16.62,16.62,0,0,1,1.6-6.1,24.49,24.49,0,0,1,3.4-5c1.1-1.7,2.3-3.3,3.5-5s2.3-3.3,3.6-5Z"/><path class="cls-1" d="M193.63,39.2c-.7,1.8-1.5,3.6-2.2,5.4s-1.5,3.6-2.4,5.3-1.3,3.7-2.5,5.2a15.79,15.79,0,0,1-4.4,4.1l-.3-.2a15.94,15.94,0,0,1,1.3-5.9c.7-1.8,2.1-3.2,3.2-4.8s2.2-3.2,3.4-4.7,2.3-3.1,3.6-4.6Z"/><path class="cls-1" d="M196.63,42.5c-.8,2-1.7,4-2.5,6s-1.8,3.9-2.7,5.9c-.5,1-.9,2-1.3,3a15.57,15.57,0,0,1-1.6,2.8,16.38,16.38,0,0,1-2.1,2.5,15.17,15.17,0,0,1-2.7,2.2l-.3-.2a12.76,12.76,0,0,1,.6-3.4,28.26,28.26,0,0,1,1.1-3.1,15.57,15.57,0,0,1,1.6-2.8c.7-.9,1.3-1.7,1.9-2.6,1.2-1.8,2.5-3.5,3.8-5.2s2.6-3.5,3.9-5.2Z"/><path class="cls-1" d="M194.73,48.7c.4,1.7.6,3.4.9,5.2a24.39,24.39,0,0,1,.1,5.4c-.1.9-.1,1.8-.2,2.8a9.24,9.24,0,0,1-.8,2.7,7.67,7.67,0,0,1-4.2,3.9l-.3-.2a32.2,32.2,0,0,1,.8-5.1,14.16,14.16,0,0,1,.7-2.2c.3-.7.6-1.5.9-2.3.4-1.6.7-3.2,1-4.9s.5-3.4.7-5.1Z"/><path class="cls-1" d="M33.83,77.7a17.1,17.1,0,0,1,.9-3,24.37,24.37,0,0,1,1.4-2.8c.6-.9,1-2,2-2.6a4.13,4.13,0,0,1,1.5-.7,3.46,3.46,0,0,1,1.8-.2l.2.2c-.2.6-.4,1.1-.6,1.6a5.67,5.67,0,0,1-.8,1.3c-.5.8-1.4,1.2-2.1,1.9s-1.4,1.4-2,2.1a15.45,15.45,0,0,0-1.9,2.4Z"/><path class="cls-1" d="M40.33,78.3a5,5,0,0,1,.2-2.1,8.64,8.64,0,0,1,.7-2.1c.3-.7.5-1.5,1.2-1.9a3,3,0,0,1,2.5-.3l.2.2a5.3,5.3,0,0,1-.6,2.2c-.2.6-.9.7-1.4,1.1l-1.3,1.3c-.4.5-.8,1-1.2,1.6Z"/><path class="cls-1" d="M46.43,76.7c.4-.9,1-1.8,1.5-2.7a23.27,23.27,0,0,1,1.7-2.6,9.14,9.14,0,0,1,2-2.4,6.11,6.11,0,0,1,1.4-.7,4.84,4.84,0,0,1,1.8-.3l.2.2a6.87,6.87,0,0,1-.5,1.7,5.67,5.67,0,0,1-.8,1.3,14.54,14.54,0,0,1-2.3,1.9L49.13,75c-.8.6-1.6,1.3-2.4,1.9Z"/><path class="cls-1" d="M57.13,77.9a9.18,9.18,0,0,1-.1-3.7,7.79,7.79,0,0,1,1.5-3.5,6.32,6.32,0,0,1,2.8-2.8,5,5,0,0,1,4-.1v.3c-1,1-1.8,1.7-2.5,2.3s-1.7,1-2.5,1.8a11.78,11.78,0,0,0-1.9,2.5,8.57,8.57,0,0,0-1,3.2Z"/><path class="cls-1" d="M65,77.4a8.52,8.52,0,0,1-.3-2.3,5.93,5.93,0,0,1,.5-2.3c.3-.7.5-1.7,1.3-2.1a2.9,2.9,0,0,1,2.6-.2l.1.3a8.14,8.14,0,0,1-.7,2.2c-.2.5-.9.7-1.3,1.1a5.83,5.83,0,0,0-1.1,1.5,10.09,10.09,0,0,0-.9,1.8Z"/><path class="cls-1" d="M74.73,79.7a11.1,11.1,0,0,1-.8-3.7,12.86,12.86,0,0,1,.3-3.9,7.12,7.12,0,0,1,1.5-3.7,5.64,5.64,0,0,1,3.5-2l.2.2a19,19,0,0,1-1.2,3.4c-.4,1-1.2,1.8-1.7,2.8a17.26,17.26,0,0,0-1.1,3.2,13.42,13.42,0,0,0-.4,3.5Z"/><path class="cls-1" d="M79.23,80.6a11.91,11.91,0,0,1,.7-4.9,18.82,18.82,0,0,1,2.4-4.4,16.41,16.41,0,0,1,3.2-3.7,11.25,11.25,0,0,1,2.1-1.2,16.88,16.88,0,0,1,2.4-.8l.2.2a15.92,15.92,0,0,1-1.3,2.2,14.28,14.28,0,0,1-1.5,1.8c-1,1.2-2.3,1.9-3.4,3a18.71,18.71,0,0,0-2.8,3.5,12.81,12.81,0,0,0-1.7,4.2Z"/><path class="cls-1" d="M88.83,79.1a21.47,21.47,0,0,1,.9-4.4,20,20,0,0,1,1.9-4.2c.8-1.3,1.5-2.8,2.8-3.7a8.5,8.5,0,0,1,4.4-1.7l.2.3a29.63,29.63,0,0,1-2.5,3.7,27.55,27.55,0,0,1-3,2.9A27,27,0,0,0,91,75.4a23.83,23.83,0,0,0-2,3.9Z"/><path class="cls-1" d="M102.73,80.2a43.41,43.41,0,0,1,.1-5.1,30.64,30.64,0,0,1,1-5.1,17,17,0,0,1,1.8-4.9,10.61,10.61,0,0,1,1.7-2,8.34,8.34,0,0,1,2.1-1.6l.2.2a11,11,0,0,1-.6,2.6,15.54,15.54,0,0,1-.8,2.3,43.7,43.7,0,0,1-2.2,4.3,36.56,36.56,0,0,0-1.8,4.6c-.5,1.6-.9,3.2-1.3,4.8Z"/><path class="cls-1" d="M32.13,74.7a51.83,51.83,0,0,1,5.6-1.7,54.15,54.15,0,0,1,5.8-1.2,23.19,23.19,0,0,1,5.9-.6c1,.1,2,.2,3,.4a10,10,0,0,1,2.9,1v.3a18.15,18.15,0,0,1-2.9.8,29.31,29.31,0,0,1-2.9.5,36.16,36.16,0,0,1-5.7,0,57.82,57.82,0,0,0-5.8.3c-1.9.1-3.9.3-5.8.5Z"/><path class="cls-1" d="M59.43,73.7l3.7-1.7,3.7-1.7a12.21,12.21,0,0,1,3.7-1.6,6.93,6.93,0,0,1,2-.3,5.52,5.52,0,0,1,2.2.1l.1.3a7.81,7.81,0,0,1-1.5,1.6,8.16,8.16,0,0,1-1.7,1.1,13.36,13.36,0,0,1-3.9,1.1l-4,.9c-1.4.2-2.7.5-4.1.6Z"/><path class="cls-1" d="M91.33,67.7c-1.6,1.2-3.2,2.2-4.7,3.4s-3.2,2.2-4.8,3.2a31.16,31.16,0,0,1-4.9,3.1c-.9.4-1.8.7-2.7,1a13.28,13.28,0,0,1-3,.6l-.1-.3a11,11,0,0,1,2.1-2.2,13,13,0,0,1,2.3-1.8,42,42,0,0,1,5.2-2.6c1.7-.8,3.5-1.7,5.3-2.4s3.5-1.6,5.3-2.3Z"/><path class="cls-1" d="M94.23,69.4c-.7.9-1.5,1.8-2.2,2.7s-1.5,1.7-2.3,2.6a14.21,14.21,0,0,1-2.4,2.5,8,8,0,0,1-1.6.8,5.85,5.85,0,0,1-1.9.4l-.2-.2a4.84,4.84,0,0,1,.7-1.8,13,13,0,0,1,1-1.5,9.51,9.51,0,0,1,2.8-2A29,29,0,0,1,91,71l3-1.8Z"/><path class="cls-1" d="M100.53,69.8a7,7,0,0,1-.9,4.2,14.47,14.47,0,0,1-2.4,3.5,9.53,9.53,0,0,1-3.1,2.9,11.92,11.92,0,0,1-2,.8,5.83,5.83,0,0,1-2.3.2l-.1-.3a21.43,21.43,0,0,1,2.7-3.1,25.71,25.71,0,0,1,3.2-2.2,23.28,23.28,0,0,0,2.8-2.6,7,7,0,0,0,1.8-3.4Z"/></g></g></svg>