<?xml version="1.0" encoding="utf-8"?>
<!-- Generator: Adobe Illustrator 22.0.0, SVG Export Plug-In . SVG Version: 6.00 Build 0)  -->
<svg version="1.1" id="Layer_1" xmlns="http://www.w3.org/2000/svg" xmlns:xlink="http://www.w3.org/1999/xlink" x="0px" y="0px"
	 viewBox="0 0 170.6 32.7" style="enable-background:new 0 0 170.6 32.7;" xml:space="preserve">
<style type="text/css">
	.st0{fill:#7DBB0E;}
</style>
<g>
	<g>
		<path class="st0" d="M49.4,12.3c-0.2-0.2-0.5-0.3-0.8-0.5c0.2,0,0.3-0.2,0.3-0.4s-0.1-0.3-0.3-0.3c-0.6-0.2-1-0.9-1.6-1.3
			c-0.6-0.3-1.2-0.5-1.9-0.5c-0.6,0-1.1,0-1.7,0.1c-0.2-0.3-0.5-0.5-0.9-0.7c-0.9-0.4-1.6,0.8-1,1.3l0,0c-0.2,0.1-0.4,0.3-0.6,0.5
			c-0.5,0.7-0.4,1.7,0.3,2.2c0.1,0.1,0.3,0.2,0.4,0.2c1.5,0.6,3.2,0.7,4.7,0.2c0.9,0.3,2,0.3,2.9-0.1C49.5,13,49.6,12.6,49.4,12.3
			L49.4,12.3z M42.5,11.7c-0.3-0.1-0.4-0.2-0.1-0.3c0.1-0.1,0.2-0.1,0.3-0.2c0.3,0.2,0.5,0.5,0.8,0.7h-0.1
			C43.1,11.9,42.8,11.9,42.5,11.7z"/>
	</g>
	<g>
		<path class="st0" d="M57.6,10.4c-0.3-0.9-1.2-1.5-2.1-1.2c-1.8-0.4-5.5,0.3-5.9,2.2c-0.3,1.5,1.2,2.1,2.5,2.1
			c1.8,0.1,3.6-0.5,4.9-1.7c0.1-0.1,0.2-0.3,0.2-0.5l0.2-0.1C57.5,11.1,57.7,10.8,57.6,10.4z M51.2,11.4c0.1-0.2,0.2-0.3,0.4-0.4
			c-0.1,0.3-0.1,0.7,0.1,1C51.2,11.9,50.9,11.8,51.2,11.4L51.2,11.4z"/>
	</g>
	<g>
		<path class="st0" d="M63.8,10.7c-0.8-0.1-1.7,0-2.5,0.3c-0.4,0.2-0.8,0.4-1.1,0.7c-0.3,0.3-0.7,0.5-1.2,0.6
			c-0.9,0.3-1.5,1.3-1.2,2.2c0,0.1,0.1,0.2,0.1,0.3c-0.1,0.5,0.1,0.9,0.5,1.2c0.9,0.5,2,0.6,3,0.3c1.1-0.1,1.9-0.9,2.1-2
			c0.2-0.3,0.3-0.6,0.2-0.9c-0.1-0.2-0.3-0.3-0.5-0.3c-0.1,0-0.1,0.1-0.2,0.1l0,0c-0.5-0.3-1.1-0.1-1.4,0.4h-0.1l-0.1,0.1l0,0
			l-0.2,0.1l0.8-0.6c0.5-0.4,0.2-1.2-0.3-1.4c0.1-0.1,0.2-0.1,0.4-0.2c0.6-0.2,1.2-0.3,1.8-0.4C64,11.1,64,10.9,63.8,10.7
			C63.9,10.8,63.9,10.7,63.8,10.7z"/>
	</g>
	<g>
		<path class="st0" d="M48.1,16.4c-0.3-0.1-0.6-0.2-0.9-0.3c0.2,0,0.3-0.2,0.3-0.4v-0.3c0-0.2-0.2-0.4-0.4-0.5
			c-1.6-0.6-5-0.3-5.7,1.7c-0.1,0.6,0.2,1.2,0.8,1.3c1.9,0.6,4.1,0.4,5.9-0.5c0.3-0.2,0.3-0.5,0.2-0.8
			C48.2,16.5,48.1,16.4,48.1,16.4z"/>
	</g>
	<g>
		<path class="st0" d="M55,15.8c-0.4-0.4-0.9-0.3-1.3-0.3c-0.3,0-0.6,0-0.9,0.1c-0.1-0.4-0.4-0.7-0.9-0.7c-0.1,0-0.2,0-0.2,0.1
			c-0.2,0.1-0.3,0.1-0.5,0.2c-0.2,0.1-0.5,0.2,0,0.3c-0.9-0.1-1.8,0.7-1.2,1.6c0.6,0.8,1.5,1.2,2.5,1c0.6-0.1,1.1-0.3,1.6-0.5
			c0.4-0.2,0.8-0.2,1.1-0.6C55.4,16.7,55.3,16.1,55,15.8z"/>
	</g>
	<g>
		<path class="st0" d="M117,8.6c-1.4-1.4-3.6,0-4.1,1.4c-0.8,0.3-1.6,0.6-2.4,1c-0.4,0.3-0.6,0.8-0.3,1.3c0.1,0.1,0.2,0.2,0.3,0.3
			c2.3,1,4.9-0.8,6.5-2.3C117.4,9.8,117.4,9.1,117,8.6L117,8.6z"/>
	</g>
	<g>
		<path class="st0" d="M126,9.9c-0.2-0.6-0.8-1-1.5-0.8c-0.2,0.1-0.4,0.2-0.6,0.3c-1.5,0-3.6,0.7-4.1,2.1c-0.2,0.5,0.2,1,0.7,1.2
			C122.3,13.4,126.8,12.6,126,9.9z"/>
	</g>
	<g>
		<path class="st0" d="M168.7,18.1c-2.7-4.5-8.2-6.1-13-7.3c-5.3-1.4-10.5-3.3-15.8-4.7c-6.7-1.8-13.4-3-20.3-3.8
			c-7.6-0.7-15.1-2.1-22.9-2.2C91.4,0,84.3-0.5,79.7,2.7c-0.3,0.2-0.4,0.6-0.2,1c0.1,0.1,0.1,0.1,0.2,0.2l-1.7-0.1
			c-4.8-0.4-9.6-0.6-14.5-1.1C57.7,2.2,52,2.3,46.3,2.9c-2.8,0.3-5.7,0.1-8.5,0.4c-2.6,0.3-5.1,0.8-7.7,1.2
			c-0.6,0.1-1.1,0.1-1.7,0.2c-0.4,0-0.8,0.1-1.2,0.1c-0.1,0-0.2,0.1-0.2,0.1c-2.9,0.4-5.8,1-8.6,1.6c-3.6,0.8-7,1.8-10.4,3.2
			C5,10.8,0.7,13.7,0.2,17c-0.4,2.4-0.3,6.2,1.3,8.3c2.1,2.5,7.3,2.7,10.3,3.2c2.5,0.4,5.2,0.1,7.7,0.3c2.5,0.2,5.1,0.9,7.6,1.3
			c4.2,0.6,8.4,0.9,12.7,1.1c5.7,0.3,11.5,0,17.1,0c0.9,0,1.8,0,2.8,0.1c0.2,0.2,0.3,0.4,0.5,0.5c0.3,0.2,0.6,0.1,0.9-0.1l0.3-0.3
			c3.5,0.3,6.9,0.3,10.4,0c5.5-0.7,11.4-1.1,16.7-2.9c2.3-0.7,4.7-1.7,6.7-3c5.5,2.8,12,4.1,18.2,4.7c6.8,0.6,13.5,1.2,20.4,1.4
			c6.9,0.2,13.8,0.9,20.7,0.9c3.8,0,11.2,1.4,14.1-1.7C171.6,27.6,170.7,21.4,168.7,18.1z M52.3,28.2c-0.2,0-0.3,0.2-0.3,0.3
			c0,0,0,0,0,0.1h-1.9c0.7-0.5,1.3-1.1,1.8-1.9c0.6-0.6,1.1-1.3,1.6-2c0.3-0.4-0.3-0.9-0.7-0.6c-0.6,0.6-1.2,1.3-1.8,1.9
			c-0.6,0.5-1.2,1.2-1.6,1.8c-0.1,0.3,0,0.6,0.2,0.7h-1.7c-7.5,0.1-15-0.4-22.6-1.5c-4-0.7-7.6-0.6-11.6-1c-2.2-0.2-4.5-0.6-6.6-1.2
			c-3.3-1.1-4.8-3.2-4.3-6.7c0.1-0.6,0.2-1.1,0.4-1.6c2.4,1.6,5.1,2.7,7.9,3.3c3.5,0.6,6.9,1.1,10.5,1.3c8.4,0.7,16.8,1.1,25.2,1.4
			c3.7,0.1,7.3,0.2,11,0.1c-0.6,1.1-1.5,2.1-2.4,3C54.6,26.3,53.4,28,52.3,28.2z M56.3,27.9c-0.1-0.1-0.3-0.1-0.4,0
			c-0.1,0.1-0.1,0.1-0.1,0.2c0,0.2,0,0.4,0.1,0.6L54,28.6c1-0.8,1.9-1.7,2.7-2.7c1-0.9,1.7-2,2.1-3.4c1.3,0,2.7-0.1,4.1-0.2
			c-1.1,1-2,2.4-3.2,3.6C59,26.9,57.5,29.3,56.3,27.9L56.3,27.9z M59.1,28.8c1.7-1.7,3-4,4.8-5.7c0.2-0.2,0.2-0.5,0-0.7l0,0
			c0.9-0.1,1.8-0.1,2.6-0.2c-0.3,0.3-0.5,0.7-0.7,1.1c-0.5,1-1.1,2-1.8,2.9c-0.5,0.6-1.3,1.8-2.1,2.7L59.1,28.8z M67.2,23.6
			c0.3-0.6,0.8-1.1,1.1-1.7l0,0l2-0.3c-0.7,1.2-1.6,2.3-2.5,3.5c-0.6,0.9-1.4,1.5-2.5,1.8l0.4-0.5C66.3,25.4,66.8,24.5,67.2,23.6
			L67.2,23.6z M63.8,28.9c0.3-0.4,0.6-0.7,0.9-1.1c0.9,0.7,2.9,0.1,3.6-0.5c0.7-0.8,1.3-1.6,1.9-2.5c0.7-0.9,1.3-1.9,1.8-3
			c0-0.1,0-0.1,0-0.2l2.3-0.3c-1.8,2.5-3.8,5.1-5.7,7.6C67.1,28.8,65.4,28.9,63.8,28.9z M71.9,27.2l0.3-0.5c1-1.4,2.1-2.9,3.2-4.4
			c-0.5,1-1.1,1.9-1.8,2.8C73.1,25.7,72.5,26.4,71.9,27.2L71.9,27.2z M76,28l-1.4,0.2c0.4-0.3,0.8-0.7,1.1-1.1
			c0.7-0.8,1.3-1.8,2-2.6c1.1-1.4,2.1-2.9,3.4-4.3l1.4-0.2c-0.8,1.8-2.4,3.3-3.6,4.8C78,25.9,77,27,76,28L76,28z M76.9,22.9
			c0.3-0.6,0.6-1.2,0.9-1.9c0-0.1,0.1-0.2,0.1-0.3l0.9-0.1C78.1,21.3,77.5,22.1,76.9,22.9L76.9,22.9z M80.4,26.3
			c-0.3,0.1-0.6,0.6-0.2,0.9c0.1,0.1,0.3,0.2,0.4,0.2L79,27.7c0.4-0.4,0.7-0.9,0.9-1.3c1.4-2,3.5-4,4.4-6.4c0-0.1,0-0.2,0-0.3
			l1.2-0.2c-0.1,0.1-0.1,0.2-0.1,0.4c0.1,1.4-1.3,2.8-2.1,3.9C82.4,24.7,81.6,25.8,80.4,26.3L80.4,26.3z M84.4,26.9L83.7,27
			c0.5-0.7,0.9-1.4,1.4-2.1l0.7-1C85.4,24.8,84.8,25.8,84.4,26.9L84.4,26.9z M87.2,19.5c-0.2,0.4-0.4,0.8-0.7,1.2
			c0.1-0.4,0.1-0.7,0-1.1c0-0.2-0.1-0.3-0.3-0.4c0.8-0.2,1.5-0.3,2.3-0.5c-0.1,0.2-0.3,0.5-0.4,0.7c-0.1-0.3-0.4-0.4-0.7-0.3
			C87.2,19.3,87.1,19.3,87.2,19.5L87.2,19.5z M96.8,17.1c-0.2,5.1-4.1,7.6-8.7,8.9c0.1-0.2,0.2-0.3,0.3-0.5c0.4-1,0.8-1.9,1.1-2.9
			c0.5-1.4,0.8-2.8,0.8-4.4l0,0c0.7-0.2,1.4-0.4,2-0.6c0.4-0.1,0.7-0.6,0.5-1c-0.1-0.4-0.5-0.6-0.9-0.5c-14.7,2.3-29.5,4.5-44.4,4.3
			c-4.2,0-8.3-0.2-12.5-0.2c-4,0-7.8-0.6-11.8-0.8c-3.5-0.2-6.9-0.6-10.4-1.3c-1.6-0.2-3.4-0.5-5-0.9c-1.4-0.4-2.6-1.3-4.1-1.8
			c1.8-2.7,5.7-3.8,8.6-4.8c3.4-1.1,6.7-2,10.2-2.7c5.2-0.9,10-2.3,15.2-2.6c3.3-0.2,6.6-0.4,9.9-0.5c1.5,0,3,0,4.7,0
			c7.4,0.1,14.6,0.5,21.9,0.9c-1.6,1.2-3.5,2.1-5.4,2.8c-0.9,0.3-2.2,0.8-1.8,1.9c0.1,0.3,0.4,0.4,0.6,0.4c0.1,0,0.2-0.1,0.3-0.2
			c0.5-0.9,1.7-0.9,2.6-1.3c1.5-0.7,2.9-1.5,4.3-2.5c0.3-0.2,0.4-0.6,0.2-0.9l-0.1-0.1l1.5,0.1c1,0,2,0.1,2.9,0.3
			c-1.6,0.8-11.3,6.1-11.7,5.4c-0.1-0.3-0.5-0.1-0.5,0.1v0.3c0,0.2,0.1,0.3,0.3,0.4c1.7,0.6,3.5-0.3,5.1-1.1c2.6-1.3,5.1-2.8,7.8-4
			C80.9,7,81,6.7,80.9,6.4c0-0.1-0.1-0.1-0.1-0.2c0.8,0.1,1.6,0.3,2.4,0.5c-1.4,0.9-3.4,1.5-4.7,2.2c-1.3,0.7-2.6,1.2-4,1.8
			c-0.9,0.6-2,1-3,1.4c-0.2,0-0.2,0.4,0,0.4c0.9,0,1.7-0.2,2.5-0.6c1.4-0.6,2.9-0.9,4.5-1.5c1.9-0.9,4.8-1.8,6.4-3.4
			c1,0.3,2,0.5,3,0.8c-2.3,1.2-11,6.2-12,4.8c-0.1-0.1-0.4-0.1-0.4,0.1l-0.1,0.3c-0.1,0.2,0.1,0.4,0.3,0.4c1.8,0.6,3.7-0.3,5.3-1
			c2.6-1.1,5.3-2.4,7.9-3.7c0.2-0.1,0.3-0.3,0.3-0.5c1.4,0.3,2.7,0.6,4.1,1.1C96.9,10.7,96.8,13.5,96.8,17.1L96.8,17.1z M138.2,29.3
			l-1.7-0.1c0.5-0.3,1-0.7,1.4-1.1c0.7-0.7,1.2-1.4,1.9-2.1c0.4-0.4-0.2-1-0.6-0.6c-0.4,0.4-3,3.5-3.3,3.2c0-0.1-0.1-0.1-0.2-0.1
			l-0.1,0.1l-0.1,0.1c-0.2,0.2-0.2,0.4,0,0.6l-3.8-0.2c1.3-0.8,2.4-1.8,3.5-3c0.4-0.4-0.3-1.1-0.6-0.6c-0.6,0.9-1.4,1.7-2.2,2.5
			c-0.4,0.4-0.9,0.7-1.4,1.1c-11.5-0.7-23-1.6-34-4.9c0.3-0.3,0.5-0.5,0.7-0.9c1.1-1.7,1.7-3.9,1.8-5.9c10.3,4.3,21.2,4.9,32.2,5.9
			c4,0.4,8,0.8,12.1,0.9c-0.9,1-1.9,1.9-2.9,2.6S138.9,28.3,138.2,29.3L138.2,29.3z M141.7,29.5l-1.5-0.1c0.6-0.7,1.2-1.4,1.9-2
			c1.2-0.9,2.2-2,3-3.4h1.3c-1.7,1.3-2.4,3.8-4.5,4.7C141.7,28.9,141.6,29.2,141.7,29.5L141.7,29.5L141.7,29.5z M145.9,28.8
			c-0.1,0.3-0.3,0.5-0.4,0.8l-2.4-0.1c0.6-0.5,1.2-1.2,1.6-1.9c0.8-1.1,1.6-2.6,2.8-3.4c0.1-0.1,0.2-0.2,0.2-0.3
			c0.9,0,1.7-0.1,2.6-0.1c-1,1.1-2.1,2.1-3.2,3.4C146.7,27.7,146.3,28.3,145.9,28.8L145.9,28.8z M147.4,29.6
			c0.2-0.3,0.4-0.6,0.7-0.9c1.1-1.3,2.4-2.5,3.6-3.8c0.3-0.3,0.3-0.8,0-1.1l0,0h0.5l0.6-0.1C151.6,25.9,149.3,27.8,147.4,29.6
			L147.4,29.6z M154.3,23.7C154.3,23.7,154.3,23.6,154.3,23.7l1.3-0.2c-1.3,1.6-2.8,3.2-4.5,4.4C152.4,26.8,153.4,25.2,154.3,23.7
			L154.3,23.7z M152,29.8h-0.4c0.6-0.6,1.2-1.2,1.7-1.7l0.4-0.3L152,29.8z M155.4,28.1c-0.2,0.3-0.3,0.5-0.5,0.8
			c-0.1,0.1-0.1,0.2-0.2,0.2s-0.1-0.1-0.2-0.1l1.4-1.8C155.7,27.4,155.5,27.7,155.4,28.1L155.4,28.1z M165.8,29.5
			c-1.5,0.6-3.7,0.4-5.5,0.3c0.3-0.8,0.5-1.5,0.7-2.3c0.2-1.1,0.6-2.2,1.3-3.2c0.4-0.4-0.2-1.1-0.6-0.6c-0.3,0.3-0.5,0.6-0.7,1
			c-0.2-0.1-0.4,0-0.6,0.1c-0.3,0.3-0.5,0.7-0.6,1.1c-0.2,0.7-0.6,1.3-1,1.9c-0.4,0.6-0.9,1.3-1.3,1.9h-0.6c0-0.1,0-0.1,0-0.2
			c0-1.2,1.6-2.1,2.2-3.2c0.7-1.1,1.2-2.3,1.9-3.5c1.3-0.2,2.6-0.6,4-1.2c0.4-0.3,0.6-0.8,0.3-1.3c-0.1-0.2-0.3-0.3-0.5-0.4
			c-0.9-0.1-1.8-0.2-2.7-0.1h0.1c0.2,0,0.2-0.4,0-0.4c-3.6-0.6-7.1-0.7-10.7-1.3c-0.9-0.2-1.3,1.2-0.4,1.4c1.7,0.3,3.4,0.4,5.1,0.4
			c1.3,0,2.7,0.1,4.1,0.1c-1.9,0.2-3.9,0.5-5.5,0.7c-6.9,0.9-13.8,0.4-20.7-0.1c-6-0.5-11.9-1.1-17.8-1.7c-5.7-0.6-11-2-16.5-3
			c0-0.8,0-1.5,0-2.2c-0.2-3.6-2.5-5.7-5.7-6.8c-3.8-1.3-7.7-2.3-11.8-2.8C82.2,4,82.1,4,82,3.9l-1.3-0.1l0,0
			c2.7-1.4,6.4-1.4,9.5-1.6c3.8-0.2,7.4-0.1,11.1,0.3c6.7,0.7,13.5,1.4,20.2,2.3c8,1,16.1,2.6,23.8,4.9c-2.6,0.2-5.4,0-8.1,0.3
			c-2.7,0.3-5.1,1-7.6,1.2c-0.9,0.1-0.9,1.4,0,1.4c2.4-0.2,4.8-0.6,7.2-1.1c3-0.5,6.1-0.5,9-1.4c0.1,0,0.1-0.1,0.1-0.2
			c2.7,0.8,5.5,1.6,8.1,2.6c-6.7-0.5-13.4-0.3-20.1,0.5c-0.1,0-0.2,0.1-0.3,0.1l0,0c-0.4,0-0.7,0-1.1,0c-0.1-0.1-0.3-0.2-0.5-0.2
			c-0.9-0.1-1.9-0.2-2.8-0.2c-0.4,0-0.8,0.3-0.9,0.7c-0.3,1.4,1,2.1,2.2,2.2c1.1,0.3,2.3,0.3,3.5,0c0.6-0.2,1-0.9,0.8-1.5
			c6.7-0.7,13.4-0.7,20.1-1.1c0.1,0,0.2-0.1,0.2-0.1c1.5,0.5,2.9,1.1,4.5,1.6c4.1,1.6,7.4,3.5,8.4,8C168.4,25,168.6,28.4,165.8,29.5
			L165.8,29.5z"/>
	</g>
	<g>
		<path class="st0" d="M118.6,14.4c-0.4-0.2-0.9-0.3-1.4-0.2c-0.1-0.3-0.3-0.5-0.6-0.5c-1.3-0.1-2.7-0.3-3.9,0.8
			c-0.7,0.6-0.7,1.7,0,2.3c0.1,0.1,0.3,0.2,0.4,0.3c1.6,0.8,4.4-0.2,5.6-1.3C119.1,15.4,119,14.8,118.6,14.4
			C118.7,14.5,118.7,14.4,118.6,14.4z"/>
	</g>
	<g>
		<path class="st0" d="M123.3,15.9c-0.1-0.2-0.3-0.4-0.5-0.6c-0.2-0.1-0.5-0.2-0.7-0.3c-0.4-0.1-0.8-0.2-1.3-0.2
			c-0.7,0.1-1.2,0.6-1.1,1.3c0.1,0.6,0.5,1,1.1,1.1c0.2,0,0.2,0,0.1,0l0.3,0.1l0.4,0.1c0.5,0.2,1,0.1,1.4-0.1
			C123.5,17.1,123.6,16.5,123.3,15.9C123.4,16,123.3,15.9,123.3,15.9z"/>
	</g>
	<g>
		<path class="st0" d="M92.5,13c-0.8,0.1-1.5,0.4-2.2,0.9c-0.7,0.4-1.5,0.4-2,1.1c-0.1,0.1,0,0.4,0.2,0.2c0.6-0.3,1.3-0.6,2-0.7
			c0.6-0.3,1.3-0.5,2-0.6C93.1,13.9,93.1,13,92.5,13z"/>
	</g>
	<g>
		<path class="st0" d="M90.9,11c-1.7,0.8-3.4,1.7-5.1,2.6c-1.3,0.7-2.5,1.6-4,2.1c-0.2,0.1-0.1,0.4,0.1,0.4c1.3,0,2.5-0.8,3.8-1.4
			c1.9-0.9,3.8-2,5.7-2.9C92.2,11.6,91.6,10.7,90.9,11z"/>
	</g>
	<g>
		<path class="st0" d="M90.9,8.8c-1.8,1-3.6,2-5.4,3c-0.4,0.2-4.3,2.5-4.6,2.3c-0.1-0.1-0.2-0.1-0.3,0c0,0,0,0,0,0.1l-0.1,0.3
			c-0.1,0.2,0.1,0.5,0.3,0.5c0.1,0,0.1,0,0.2,0c3.9-0.9,7.1-3.3,10.5-5.2c0.3-0.2,0.3-0.6,0-0.9C91.5,8.8,91.2,8.8,90.9,8.8z"/>
	</g>
	<g>
		<path class="st0" d="M68.9,5.9c-2.6,1.3-5.2,2.5-7.7,4.1c-0.1,0.1-0.1,0.2,0,0.3c0,0.1,0.1,0.1,0.2,0.1c1.4-0.5,2.8-1,4.2-1.7
			c1.3-0.5,2.7-1,4-1.7C70.2,6.6,69.6,5.6,68.9,5.9z"/>
	</g>
	<g>
		<path class="st0" d="M63.2,5.6c-0.9,0.6-1.7,1.1-2.5,1.8c-0.4,0.3,0.1,0.8,0.5,0.6c0.9-0.4,1.7-1,2.5-1.6
			C64.2,6.1,63.7,5.3,63.2,5.6z"/>
	</g>
	<g>
		<path class="st0" d="M29,7.9c-1.8,0.4-3.6,1.1-5.2,2s-3.3,2-4.7,3.4c-0.5,0.4,0.2,1.1,0.7,0.7c1.4-1.3,3-2.3,4.8-3.3
			c0.8-0.4,1.7-0.6,2.5-1c0.8-0.4,1.3-0.9,2-1.2C29.6,8.3,29.3,7.7,29,7.9z"/>
	</g>
	<g>
		<path class="st0" d="M34.3,7.4c-1.4,1-3.3,0.9-4.9,1.7c-2,0.9-4.2,1.9-6.1,3c-0.6,0.4-0.1,1.3,0.6,1c2-1.1,4.3-2.1,6.3-3.2
			c1.4-0.7,3.3-0.8,4.4-2.1C34.9,7.6,34.5,7.3,34.3,7.4z"/>
	</g>
	<g>
		<path class="st0" d="M38.6,9.8c-2,0.1-4.1,0.7-5.9,1.6c-1.8,0.8-3.9,1-5.7,2.1c-0.3,0.2-0.3,0.5-0.2,0.7c0.2,0.3,0.5,0.3,0.7,0.2
			c1.7-0.8,3.8-1,5.6-1.7c1.8-0.7,3.6-1.5,5.5-2c0.2,0,0.4-0.3,0.4-0.5C39.1,9.9,38.8,9.7,38.6,9.8z"/>
	</g>
	<g>
		<path class="st0" d="M137.4,8.3c-1.5-0.1-2.8-0.8-4.5-0.7c-1.6,0.1-2.8,0.4-4.3,0.4c-0.3,0-0.6,0.3-0.6,0.6c0,0.3,0.3,0.6,0.6,0.6
			c1.5,0,3-0.3,4.6-0.4c1.5-0.1,2.8,0.4,4.2,0.1C137.9,8.8,137.7,8.3,137.4,8.3z"/>
	</g>
	<g>
		<path class="st0" d="M158.1,15c-6.6-0.7-13.3-0.9-19.9-0.6c-0.2,0-0.4,0.2-0.4,0.4c0,0.2,0.2,0.4,0.4,0.4
			c3.9,0.2,7.6,0.1,11.5,0.2c2.9,0.1,5.6,0.5,8.5,0C158.4,15.4,158.3,15,158.1,15z"/>
	</g>
	<g>
		<path class="st0" d="M160,17.3c0-0.1-0.1-0.2-0.2-0.3c-2.5-0.9-5.7-0.4-8.2-0.6c-2.9-0.3-5.9-0.4-8.7-0.6c-0.7,0-0.7,1,0,1.1
			c3.2,0.2,6.3,0.4,9.5,0.8c0.5,0.1,7.2-0.2,7.3,0c0.1,0.2,0.4,0.2,0.4-0.1L160,17.3z"/>
	</g>
	<g>
		<path class="st0" d="M130,25.6c-0.6,0.5-1.1,1.1-1.6,1.8c-0.2,0.3,0.2,0.7,0.5,0.5c0.6-0.5,1.2-1,1.8-1.6c0.2-0.2,0.2-0.5,0-0.6
			C130.5,25.6,130.2,25.5,130,25.6z"/>
	</g>
	<g>
		<path class="st0" d="M47.9,24c-0.4,0.4-0.8,1-1.4,1.2c-0.6,0.2-0.3,0.8,0.1,0.8c0.9,0.1,1.4-0.7,2-1.3
			C49.2,24.1,48.3,23.5,47.9,24z"/>
	</g>
</g>
</svg>
