<?xml version="1.0" encoding="iso-8859-1"?>
<svg xmlns="http://www.w3.org/2000/svg" viewBox="0 0 172.74 70.73"><defs><style>.cls-1{fill:#934A34;}</style></defs><title>Asset 13</title><g id="Layer_2" data-name="Layer 2"><g id="Layer_1-2" data-name="Layer 1"><path class="cls-1" d="M95.59,8c-2.5-3.2-6.4-4.8-10.3-5.8a40.14,40.14,0,0,0-7.7-1.4h-.4c-2.1-.2-4.1-.4-6.1-.5a.37.37,0,0,0-.3-.1A93.91,93.91,0,0,0,46,1.83c-1,.2-2,.4-2.9.5l-1,.2c-8.2,1.3-16.5,1.9-24.5,4.7-6.5,2.3-15.9,4.4-17.3,12.5s2.3,13.7,10,16a96.83,96.83,0,0,0,28.2,4.2c10.4,0,21,.4,31.2-2.3,8.8-2.3,17.5-4.3,24.6-10.3C99.29,22.83,99.69,13.23,95.59,8Zm-2.4,1.5a7.61,7.61,0,0,1,1.2,1.9l.6,1.5a7.84,7.84,0,0,1-.9,2.1c-.1,0-.2.1-.3.2-1,1.1-2.4,1.1-3.7,1.6l-.4.2a4.13,4.13,0,0,0-.6-4.4,11.9,11.9,0,0,0-2-1.9c2,.4,4.1-.7,6.1-1-.1-.2-.1-.2,0-.2Zm-21.6,15.8c-5.7,1.1-11.6,1.3-17.3,2.4-9.8,1.8-20.4,2.2-30.1-.4-2.6-.7-5.3-1.1-7.9-2a8.25,8.25,0,0,1-4.2-2.8c3.9-4.1,11.1-5.4,16.2-6.6,6.6-1.5,13-1.5,19.7-2.3a161.44,161.44,0,0,1,19.7-.9c3.1,0,6.3.1,9.4.4a18.8,18.8,0,0,0,5.8,0c.1,0,.2-.1.3-.2a7.72,7.72,0,0,0,1.5.2c.2.3.9.3,1-.1v-.6a4.62,4.62,0,0,1,.7.7c2.7,3.3-2.5,7.8-5,9.3a41,41,0,0,1-9.8,2.9Zm3.1,1.8c0,.1-.1.1-.1.2-.2.6-.4,1.3-.6,1.9,0-.4-.1-.9-.1-1.3a.55.55,0,0,0-.3-.5Zm9.3-4a7.72,7.72,0,0,0,1.5-.2,9.7,9.7,0,0,1,1.7-.1c.4,0,.6-.3.6-.7a.86.86,0,0,0-.3-.6,16.68,16.68,0,0,0,2-.8,30,30,0,0,1-3,3.2.66.66,0,0,0-.5-.4,17.33,17.33,0,0,0-3.2.3,7.46,7.46,0,0,0,1.2-.7Zm3.3-2.8.4-.4c.4-.1.7-.1,1-.2l.5-.1a10.66,10.66,0,0,1-1.9.7Zm1.6-1.9h-.2v-.1c.6-.2,1.3-.5,1.9-.7s1.2-.3,1.7-.5l-.5.6a13.65,13.65,0,0,1-2.9.7Zm2.5-10.5a8.3,8.3,0,0,1-2.1.6c-1.1.2-2.2.2-3.2.4a.47.47,0,0,0-.5.5c0,.1,0,.2.1.2-.4-.2-.7-.5-1.1-.7,2,.1,4.2-1.2,6.2-1.5a1.33,1.33,0,0,0,.6.5Zm-5.7-2.6.9.3.6.2a1.47,1.47,0,0,0-.5.6c-.2.5.4.8.8.6a6.12,6.12,0,0,1,1.2-.5h.1l.5.2a10.93,10.93,0,0,0-1.7.5c-1.3.5-2.5.7-3.8,1.1a.22.22,0,0,0-.2.2,16,16,0,0,0-2.7-1.2,25.57,25.57,0,0,0,2.4-1.1c.7-.3,1.6-.5,2.4-.9Zm-1.6-.5a6.9,6.9,0,0,0-.8.3,25.58,25.58,0,0,1-2.4,1.1c-.6.2-1.2.2-1.8.4H79a4.18,4.18,0,0,1,1-.4,10.39,10.39,0,0,0,3.4-1.5ZM82,4.33c-1.5.9-3.4,1.1-5,1.7l-.3-.1.3-.1a18.62,18.62,0,0,0,3.3-1.9,8.47,8.47,0,0,0,1.7.4Zm-10.1-1.4c-1.1.4-2.5.5-3.3,1.4a.45.45,0,0,0,0,.5c.1.1.1.1.2.1a10.53,10.53,0,0,0,4.3-1.1l1.5-.6c1.3.1,2.5.3,3.8.5-.5.3-1.1.6-1.6.9s-1.2.5-1.8.8a.76.76,0,0,1-.4.2h-.2a72.23,72.23,0,0,0-9.2-.6,44,44,0,0,0,5-2.1Zm-1,30.4a.76.76,0,0,0,.8.6l-1.4.4-.9.2a4.68,4.68,0,0,0,.9-2.8,7.57,7.57,0,0,0-.1-1.5c0-.3.3-.6.3-.9,0-.6-.4-.8-1-.9a.47.47,0,0,0-.5.5c0,.1,0,.2.1.2a.76.76,0,0,0-.4.2,6.06,6.06,0,0,0-1.4,2.9,8.47,8.47,0,0,1-1.5,3c-.1,0-.1.1-.2.1-.7.1-1.4.3-2.2.4.2-.4.5-.8.7-1.2.6-1.1,1.5-2.8,1.1-4a.19.19,0,0,0-.3-.1.1.1,0,0,0-.1.1,18.67,18.67,0,0,1-1.5,3.2,19.83,19.83,0,0,1-1.1,2,.37.37,0,0,0-.3.1V36l-2.2.3a1.21,1.21,0,0,0,.5-.5,18.24,18.24,0,0,0,2-3.6c.4-.8-.8-1.4-1.1-.7l-1.8,3.3a10.91,10.91,0,0,1-.6,1.1,2.09,2.09,0,0,0-.4.6,129.26,129.26,0,0,1-13.9.6h-2.8a25,25,0,0,1,2.1-3.5c.5-.6-.3-1.5-.9-.9a40.8,40.8,0,0,0-2.8,4.4h-4.4a5.56,5.56,0,0,0,.9-1.7.62.62,0,0,0-.2-.7.48.48,0,0,0-.6.2c-.2.4-.4.7-.6,1.1a8.79,8.79,0,0,1-.6,1v.1h-1.6a77.87,77.87,0,0,1-12.7-1.9c-4-.8-8.5-1.5-12.2-3.3-4.6-2.2-6.1-6.9-5.2-11.8,1.5-7.9,13.2-9.8,19.5-12.1a57.69,57.69,0,0,1,10.9-2.6.73.73,0,0,0,.6.2c9.1-1.4,18.6-3.1,27.7-3H64c-.3.1-.7.2-1,.3a.38.38,0,0,0-.3.5c0,.2.2.3.4.3a3.15,3.15,0,0,0,2.4-.9c.1-.1.1-.1.1-.2,1,0,2,0,3,.1-1.3.7-2.7,1.4-4,2.1l-.1.1c-4.4,0-8.8.4-13,.6-.1,0-.2.2-.2.3a.22.22,0,0,0,.2.2c6.2.3,12.5.1,18.7.9a44.86,44.86,0,0,1,9,1.8,25.52,25.52,0,0,1,5.7,2.9,9.67,9.67,0,0,0-2.9-.4,3.4,3.4,0,0,0-1,.1c-1.8-.3-3.5-.7-5.3-.9-3.3-.4-6.8,0-10.1,0a195.72,195.72,0,0,0-23,1.1c-6.7.9-13,1.1-19.6,2.9-2.8.8-9.1,2.8-11.5,5.9,0-.3.1-.6.1-.9.5-1.8,2.8-3,4.3-4a27.41,27.41,0,0,1,7.7-4.2c2.2-.7,4.8-.8,6.8-2,.1-.1.1-.2,0-.2s-.1-.1-.2-.1c-2.4,1.4-6.1,1.1-8.8,1.9a27.85,27.85,0,0,0-7.6,3.6c-3,1.8-5.8,4.4-4.4,8.3,1.7,4.7,7.8,5.4,12,6.2a82.49,82.49,0,0,0,16.4,1.9,189.11,189.11,0,0,0,33.6-3l1.3-.3c-.1.1-.1.2-.1.4a4.1,4.1,0,0,1-.1,1.1.57.57,0,0,0-.7-.4.66.66,0,0,0-.4.5c-.1,1.5-1,2.7-.5,4.2Zm1.3.5.3-.3a1.08,1.08,0,0,0,0-1.1v-.5h0a.54.54,0,0,0,.7.5h.2a.68.68,0,0,0,.8.4c.1,0,.2-.1.3-.1a1.38,1.38,0,0,0,.3.4Zm20-8.6c-3.6,3.4-8.2,5.3-12.9,6.7a5.06,5.06,0,0,0-.1-4,.75.75,0,0,0-1-.2.83.83,0,0,0-.3.8c.4,1.5-.5,2.8-1.2,4.2l-.7.2c0-.1,0-.1.1-.2a1,1,0,0,0,.4-1l.2-.5a4.49,4.49,0,0,0,.4-2.3.89.89,0,0,0-1-.6c0-.3.1-.5.1-.8a.55.55,0,0,0-.4-.6,40.92,40.92,0,0,0,4.9-1.8h.5c-.1,0-.2.1-.3.1a1.88,1.88,0,0,0-.8.2.63.63,0,0,0-.2.8.1.1,0,0,0,.1.1c.7.6,1.7.1,2.4-.2a.65.65,0,0,0,.2-.9l-.1-.1c1-.1,2.1-.2,3.2-.2-.4.3-.9.6-1.3.9a.37.37,0,0,0-.1.3c0,.1.1.1.2.1a4.93,4.93,0,0,0,3-1.6,37.76,37.76,0,0,0,4.3-3.8c1.4-1.6,3.2-3.5,3.8-5.6a12.58,12.58,0,0,1-3.4,10Z"/><path class="cls-1" d="M21.49,31.33C15,29.93,7.39,28,4.59,21.23a.32.32,0,1,0-.6.2c.6,2,.7,3.2,2.2,4.6a30.19,30.19,0,0,0,4.5,3.5,18.21,18.21,0,0,0,10.7,2.2A.21.21,0,0,0,21.49,31.33Z"/><path class="cls-1" d="M48.79,3.53a2.69,2.69,0,0,0-1.5.5c-.8.4-1.7.6-2.5,1-1.5.9-2.7,2.1-4.3,2.8-.3.1-.2.7.2.7,1.5,0,2.6-.9,3.7-1.8a17.49,17.49,0,0,1,2.7-1.6A13.3,13.3,0,0,0,49,3.73a.19.19,0,0,0,0-.3C48.89,3.63,48.89,3.53,48.79,3.53Z"/><path class="cls-1" d="M41.89,4.83a3.1,3.1,0,0,0-1.8.9c-.3.3-.6.5-.9.8s-.8.4-1.1.7a.33.33,0,0,0,.2.6c.7,0,1.2-.7,1.6-1.1A4.53,4.53,0,0,1,42,5.23C42.09,5.13,42.09,4.83,41.89,4.83Z"/><path class="cls-1" d="M57.09,32.13a3.52,3.52,0,0,0-1,1.9,5.12,5.12,0,0,1-1,2.1.64.64,0,0,0,0,.6.37.37,0,0,0,.3.1c1.8.1,1.3-3.4,2.1-4.2a.3.3,0,0,0,0-.4C57.39,32.13,57.19,32,57.09,32.13Z"/><path class="cls-1" d="M54.49,33.43a7.46,7.46,0,0,1-.7,1.2c-.3.4.3.7.6.5a3.25,3.25,0,0,0,1-1.3.42.42,0,0,0-.3-.6A.45.45,0,0,0,54.49,33.43Z"/><path class="cls-1" d="M39.09,34.93a5.5,5.5,0,0,0-.7.9,2.7,2.7,0,0,1-.7.8c-.1.1-.2.2-.1.4s.1.1.2.1c.9-.1,1.4-1,2-1.6S39.49,34.43,39.09,34.93Z"/><path class="cls-1" d="M80.49,64.73c8,4.6,17,5,26,5.8,10.5.9,20.9-1.4,31.1-3.3a95.83,95.83,0,0,0,27-9.2c7.2-3.7,9.9-9.8,7-17.5s-12.5-8.1-19.3-9.2c-8.4-1.3-16.6-.4-24.9-.3h-4a98.05,98.05,0,0,0-24.7,2.8.35.35,0,0,0-.2.1c-2,.5-4,1-6,1.6a.6.6,0,0,0-.4.1,51,51,0,0,0-7.4,2.8c-3.6,1.7-7.1,4-9.1,7.5C72.59,51.93,74.69,61.43,80.49,64.73Zm-2-17.5c2,0,4.3.7,6.2-.1a9.45,9.45,0,0,0-1.6,2.3,4.3,4.3,0,0,0,.2,4.5l-.5-.1c-1.4-.2-2.8,0-3.9-.9a.37.37,0,0,0-.3-.1,8,8,0,0,1-1.3-1.9,9,9,0,0,1,.3-1.6,7.84,7.84,0,0,1,.9-2.1Zm13.8,10.3c-2.8-1-8.7-4.5-6.6-8.2a4.17,4.17,0,0,1,.6-.8v.3l.1.3a.54.54,0,0,0,1,0,5.78,5.78,0,0,0,1.4-.5c.1.1.2.1.4.1a22,22,0,0,0,5.7-1,94,94,0,0,1,9.2-2,160.4,160.4,0,0,1,19.5-2.7c6.7-.4,13.1-1.5,19.8-1.2,5.2.2,12.6.3,17.1,3.6a8.11,8.11,0,0,1-3.6,3.5c-2.4,1.3-5,2.3-7.4,3.4-9.1,4.3-19.6,5.7-29.6,5.7-5.8,0-11.6.8-17.4.8a31.77,31.77,0,0,1-10.2-1.3Zm8.6,3.7a.45.45,0,0,0-.2.6,5.7,5.7,0,0,1,.1,1.3l-.9-1.8a.1.1,0,0,0-.1-.1Zm-9.8-1.8a17.33,17.33,0,0,0-3.2.3c-.3,0-.4.2-.5.5-1.2-.8-2.4-1.7-3.5-2.6.7.1,1.4.3,2.1.4a.63.63,0,0,0-.1.9.48.48,0,0,0,.6.2,9.85,9.85,0,0,0,1.7-.2,7.57,7.57,0,0,0,1.5-.1,7.25,7.25,0,0,0,1.4.6Zm-7-2.9h1.6l.4.3c-.7-.1-1.5-.2-2-.3Zm-3-1.4-.6-.5c.6.1,1.2.1,1.8.2s1.3.3,2,.4h-.1c-1.1,0-2.1-.1-3.1-.1Zm-.8-10.3c2-.1,4.4.9,6.4.4-.3.3-.7.6-1,.9.1-.3-.2-.8-.6-.7-1.1,0-2.2.2-3.3.2a7.61,7.61,0,0,1-2.1-.3,3.81,3.81,0,0,0,.6-.5Zm7.1-2.6a11,11,0,0,0,2.6.6,20.71,20.71,0,0,0-2.4,1.7c0-.1-.1-.1-.2-.1-1.3-.2-2.6-.2-3.9-.4a9.85,9.85,0,0,0-1.7-.2l.5-.3h.1c.4.1.8.2,1.3.3a.6.6,0,0,0,.7-.8,1,1,0,0,0-.6-.5l.5-.3.8-.4a18.45,18.45,0,0,1,2.3.4Zm-.2-1.6a9.11,9.11,0,0,0,3.6.9c.3.1.7.1,1,.2l-.1.1c-.6-.1-1.2,0-1.9-.1l-2.6-.6a2.77,2.77,0,0,0-.9-.1c.4-.2.7-.3.9-.4Zm2.9-1.2a30.15,30.15,0,0,0,3.6,1.3l.3.1-.3.1c-1.7-.4-3.6-.2-5.2-.8a11.11,11.11,0,0,1,1.6-.7Zm9.8-3a45.37,45.37,0,0,0,5.3,1.2,53.76,53.76,0,0,0-9,2.2l-.2.1c-.2-.1-.3-.1-.5-.2-.6-.2-1.3-.3-1.9-.5l-1.8-.6c1.2-.4,2.4-.8,3.6-1.1l1.6.3a11.31,11.31,0,0,0,4.5.3c.2,0,.3-.2.3-.4s-.1-.1-.1-.2c-1-.7-2.4-.6-3.5-.8Zm3.3,26.2a.75.75,0,0,0-.7-.5.54.54,0,0,0-.5.5c-.1-.4-.2-.7-.3-1,0-.1-.1-.3-.2-.3h1.3a189.11,189.11,0,0,0,33.6-3,87.26,87.26,0,0,0,15.8-4.8c4-1.5,9.9-3.3,10.7-8.3.7-4.1-2.5-6.1-5.8-7.4a28.46,28.46,0,0,0-8.1-2.1c-2.7-.2-6.3.7-8.9-.3a.22.22,0,0,0-.2.2c0,.1,0,.1.1.2,2.2.8,4.8.4,7.1.7a27.14,27.14,0,0,1,8.3,2.8c1.6.7,4.1,1.5,4.9,3.2l.3.9c-3-2.6-9.5-3.4-12.4-3.7-6.8-.6-13.1.2-19.8.6a173.43,173.43,0,0,0-22.8,3c-3.3.6-6.8.8-10,1.8a42.91,42.91,0,0,0-5,1.9,3.4,3.4,0,0,0-1,.1,13.09,13.09,0,0,0-2.8.9,24.61,24.61,0,0,1,5.1-3.9,44.37,44.37,0,0,1,8.5-3.4c5.9-1.9,12.1-2.8,18.2-4.2.1-.1.2-.2.1-.3a.22.22,0,0,0-.2-.2c-4.2.5-8.6,1-12.9,1.7a.1.1,0,0,0-.1-.1c-1.4-.5-2.9-.9-4.3-1.4l3-.6c0,.1.1.1.1.2a2.75,2.75,0,0,0,2.5.4.4.4,0,1,0,0-.8,4.1,4.1,0,0,0-1.1-.1l2.4-.5c9-1.7,18.7-1.7,27.8-2a.86.86,0,0,0,.6-.3,52.64,52.64,0,0,1,11.2.6c6.6,1.2,18.5,1,21.4,8.5,1.8,4.6,1.1,9.5-3,12.5-3.4,2.4-7.6,3.9-11.4,5.4a75,75,0,0,1-12.1,4.1l-1.6.3a.1.1,0,0,0-.1-.1,6.47,6.47,0,0,0-.8-.9,5.5,5.5,0,0,1-.7-.9c-.4-.5-1.2.1-.8.6l1.2,1.5-4.3.9a44,44,0,0,0-3.5-3.9c-.6-.5-1.3.5-.7,1a26.06,26.06,0,0,1,2.7,3.1h0l-2.7.5c-4.6.8-9.2,1.5-13.8,1.9-.1-.2-.3-.3-.5-.5a3.92,3.92,0,0,1-.8-1c-.8-1-1.6-1.9-2.3-2.9-.5-.7-1.5.2-1,.9a16.51,16.51,0,0,0,2.6,3.2c.2.1.4.3.6.4-.7,0-1.4.1-2.2.1v-.1c0-.1-.1-.2-.3-.2h-.1c-.5-.5-.9-1.3-1.4-1.8a19.41,19.41,0,0,1-2.1-2.9.19.19,0,0,0-.3,0l-.1.1c-.1,1.3,1.1,2.8,1.8,3.8.3.4.6.7.9,1.1h-2.2c0-.1-.1-.1-.2-.1a10.52,10.52,0,0,1-2-2.7,9.66,9.66,0,0,0-1.9-2.6.6.6,0,0,0-.4-.1.49.49,0,0,0-.3-.6h-.2c-.5.1-1,.4-.8,1,.1.3.3.5.4.8.1.5.1,1,.2,1.5a5.1,5.1,0,0,0,1.4,2.6l-.9-.1-1.5-.1a.85.85,0,0,0,.7-.8c.2-1.5-1-2.6-1.4-4Zm-2.6,4.6a.76.76,0,0,0,.2-.5c.1,0,.2.1.3.1a.75.75,0,0,0,.7-.5h.2a.65.65,0,0,0,.6-.6h0v-.5c.1.3.1.7.2,1a.91.91,0,0,0,.2,1.1.52.52,0,0,0,.4.2ZM77.19,53c1,2,3.1,3.4,4.8,4.8a40.06,40.06,0,0,0,4.9,3,4.81,4.81,0,0,0,3.3,1c.1,0,.2-.1.1-.3a.1.1,0,0,0-.1-.1l-1.5-.6c1.1-.2,2.1-.2,3.2-.4a.1.1,0,0,1-.1.1.68.68,0,0,0,.4.8c.7.2,1.8.5,2.4-.2a.61.61,0,0,0-.1-.8.1.1,0,0,1-.1-.1h-1.1l.5-.1a45.42,45.42,0,0,0,5.1.9.91.91,0,0,0-.3.7,1.45,1.45,0,0,0,.2.7.86.86,0,0,0-.8.8,3.49,3.49,0,0,0,.8,2.2l.3.4a.83.83,0,0,0,.5,1l.1.2-.8-.1c-.9-1.2-2.1-2.4-1.9-3.9a.68.68,0,0,0-.7-.7.84.84,0,0,0-.7.4,5.09,5.09,0,0,0,.6,4c-4.9-.5-9.8-1.6-13.9-4.3A10.85,10.85,0,0,1,77.19,53Z"/><path class="cls-1" d="M152.89,55.93c6.1-2.5,13.3-5.8,14.9-13,.1-.4.7-.4.6.1-.3,2.1-.1,3.3-1.4,4.9a26,26,0,0,1-3.8,4.3,18.05,18.05,0,0,1-10.1,4.1C152.79,56.33,152.59,56,152.89,55.93Z"/><path class="cls-1" d="M121.09,33.43a3,3,0,0,1,1.6.2,26.14,26.14,0,0,1,2.7.6c1.6.6,3,1.6,4.8,2,.4.1.3.6-.1.7-1.5.3-2.7-.4-4-1.1a14.46,14.46,0,0,0-2.9-1.1,20,20,0,0,1-2.1-1,.19.19,0,0,1,0-.3Z"/><path class="cls-1" d="M128.09,33.43a3.83,3.83,0,0,1,1.9.5c.3.2.7.4,1,.6s.8.3,1.2.5c.2.1.3.5,0,.6a3,3,0,0,1-1.8-.8,3.84,3.84,0,0,0-2.3-1.1A.15.15,0,0,1,128.09,33.43Z"/><path class="cls-1" d="M117.89,63a3.15,3.15,0,0,1,1.3,1.7,5.22,5.22,0,0,0,1.4,1.9.35.35,0,0,1,.1.5l-.2.2c-1.7.5-1.9-3.1-2.8-3.8a.3.3,0,0,1,0-.4C117.59,63,117.79,62.93,117.89,63Z"/><path class="cls-1" d="M120.79,63.83a9,9,0,0,0,.9,1c.3.3-.2.8-.5.6a3.18,3.18,0,0,1-1.2-1.1.49.49,0,1,1,.7-.7C120.69,63.73,120.79,63.73,120.79,63.83Z"/><path class="cls-1" d="M136.19,62.43a3,3,0,0,1,.8.8,2.18,2.18,0,0,0,.9.7c.1,0,.2.2.2.3a.22.22,0,0,1-.2.2c-.9.1-1.6-.7-2.2-1.2a.48.48,0,0,1,0-.7A.75.75,0,0,1,136.19,62.43Z"/></g></g></svg>