<?xml version="1.0" encoding="iso-8859-1"?>
<svg xmlns="http://www.w3.org/2000/svg" viewBox="0 0 223.38 63.03"><defs><style>.cls-1{fill:#EC8A00;}</style></defs><title>Asset 21</title><g id="Layer_2" data-name="Layer 2"><g id="Layer_1-2" data-name="Layer 1"><path class="cls-1" d="M200.74,25.86c-8.4,0-16.9.1-25.3-.7a.22.22,0,0,0-.2.2c0,.1,0,.1.1.1,2.8,1.3,6.6.9,9.6,1,5.3.2,10.6,0,15.8,0a.3.3,0,1,0,0-.6Z"/><path class="cls-1" d="M200,24.26c-5.6-1.1-11.4-1.1-17.2-1.2-3.7,0-7.4-.2-11.1-.1-1.1,0-3.7.8-4.6,0-.2-.2-.7,0-.6.3.9,2.3,9.2,1,10.8,1,7.6,0,15.1.3,22.7.4C200.24,24.76,200.24,24.36,200,24.26Z"/><path class="cls-1" d="M82.34,7.06c-3.2.4-6.4,1.9-9.4,3.2a44,44,0,0,0-8.4,4.2c-.4.3,0,.9.4.6a49.64,49.64,0,0,1,8.8-4c2.8-1.1,5.8-2.4,8.6-3.4A.3.3,0,0,0,82.34,7.06Z"/><path class="cls-1" d="M86.24,8.66c-7.3,1.1-13.2,6.6-20.1,8.9a.52.52,0,0,0,.3,1c3-.9,5.8-2.5,8.7-3.8,3.8-1.7,7.5-3.7,11.3-5.3a.37.37,0,0,0,.2-.5C86.64,8.76,86.44,8.56,86.24,8.66Z"/><path class="cls-1" d="M202.54,19.56c-12.7-6-26.8-8.9-40.4-11.6-15.6-3.1-31.4-3.8-47.1-6.2-7.3-1.1-15.7-2.4-23-1.4q-4.35.6-8.7,1.5c-4.5.8-9,1.8-13.4,2.5-9.2,1.6-17.9,4.3-26.8,6.9A175.76,175.76,0,0,0,19,20.46a73.18,73.18,0,0,0-12.2,7.6c-2.3,1.7-6.2,4.3-6.8,7.2a1.44,1.44,0,0,0,.3,1.3c1.3,1,2.6.7,4.2.5,3.7-.4,7.3-1,10.9-1.7a149.84,149.84,0,0,1,22.2-2.9c3.5-.1,7.1-.4,10.6-.4s6.7.7,10.2.9c5.9.3,11,2.4,15.9,5.1a.68.68,0,0,0,.6.4h.2c1.8,1,3.6,2,5.3,3.1,1.4.8,2.8,1.7,4.1,2.6a.81.81,0,0,0,.5,1.1,1.1,1.1,0,0,0,.8,0l.3-.1A87.87,87.87,0,0,1,98.24,55c3.1,3.1,8.3,8.8,13.2,8,5.5-.9,9.6-6.1,13.4-9.8,5.5-5.2,12.2-8.3,18.7-11.9.5-.3,1-.5,1.6-.8l.1-.1c13.1-6.6,27.3-7.4,41.8-5.8,7.3.8,14.3,2.1,21.4,3.3,3.1.6,6.2,1.3,9.4,1.8,1.4.3,3.2.8,4.5-.2C228.44,34.66,206,21.26,202.54,19.56Zm-21.9-4.7c-2.3.1-4.6.3-6.9.5q0-.15-.3-.3c-1.9-.6-3.9-1.1-5.8-1.6.3-.1.6-.2,1-.3a.79.79,0,0,0,.5-.8.82.82,0,0,0-.5-.5c4,1,8,1.9,12,3Zm-23.4,4.9a.34.34,0,0,0-.3-.5c-.8.1-.8.1-1.3.8a.1.1,0,0,1-.1.1c-1.1.3-2.1.5-3.2.9s-2.8,1.3-3.9,1.1c2.4-1.1,4.8-2.3,7.1-3.2l.4-.1,6.3-.9c-1.4.5-2.9,1-4.3,1.5Zm.7,1.4h-.2a35.79,35.79,0,0,1-3.5,1.1,4.33,4.33,0,0,0-.5.1c1.2-.4,2.4-.9,3.4-1.3a2.2,2.2,0,0,0,.8.1Zm-51.2-6.1a32.34,32.34,0,0,0-5.3.8l-.6.1c-1.6-.1-3.3-.3-4.9-.5l-4.5-.4c3.1-.9,6.2-1.7,9.4-2.5,2.8.6,5.5,1.3,8.2,1.8l3.3.7a14.58,14.58,0,0,1-4.1,1.6l-3.5-.3c.7-.1,1.4-.3,2.1-.4a.48.48,0,0,0,.2-.6l-.3-.3Zm-18.1-.2c-1.9-.2-3.5-.5-3.5-.7A.35.35,0,0,0,85,14l1.1-.4c1.9-.7,3.7-1.4,5.6-2,.4-.1.7-.3,1.1-.4,1.9.3,3.8.6,5.7,1a25,25,0,0,1-2.6.7c-2.5.6-4.9,1.3-7.3,2Zm14.8-2.9,5.5-1.4c.2,0,.3-.2.3-.4,1.2.3,2.4.6,3.6,1-1.3.6-2.5,1.3-3.8,1.8a.35.35,0,0,0-.2.1l-1.6-.3Zm7.5,1.6h0c1.4-.6,2.7-1.2,4-1.7h.1c1.2.3,2.3.5,3.5.8-1.1.4-2.3.8-3.4,1.2a4.18,4.18,0,0,0-1,.4Zm15.7-4.2c1.3.2,2.6.5,3.9.7-1.4.8-2.9,1.7-4.4,2.5l-1.6-.3-2.3-.5c1.4-.6,2.8-1.3,4.2-2,.2-.1.3-.2.2-.4Zm-5.4,2.2-3.5-.8a10.78,10.78,0,0,0,3.4-2.1.35.35,0,0,0,.1-.2c1.6.2,3.1.5,4.7.7a52.14,52.14,0,0,1-4.7,2.4Zm-1.6,1.2,4.4.9c-1.3.6-2.5,1.3-3.8,1.8-1.7-.4-3.4-.7-5.1-1.1a47.15,47.15,0,0,0,4.5-1.6Zm.4,3.9c1.1.2,2.2.4,3.3.5-1.5-.1-3-.2-4.5-.2a7,7,0,0,0,1.2-.3Zm1.9-.8a24,24,0,0,1,2.3-1.1c.5-.2.9-.5,1.4-.7l.8.2,3.5.8c-1.3.6-2.6,1.3-3.9,1.9h-.1a23.36,23.36,0,0,0-4-1.1Zm5.8-3c1.5-.8,3.1-1.6,4.6-2.5,1.6.3,3.2.7,4.8,1.1a41.36,41.36,0,0,1-4.3,2l-.6.3Zm8.9.2c.7-.4,1.3-.8,1.9-1.2l2,.5,2.2.6c-1.5.8-3,1.5-4.5,2.3l-4.1-.9c.8-.4,1.7-.8,2.5-1.3Zm9.4-1.8-1,.5a41.5,41.5,0,0,1-4.8-1.1h0l.6-.4a52.66,52.66,0,0,0,5.2,1Zm5.2.9.3.1-1.2.6c-1.1-.2-2.3-.5-3.4-.7l1.1-.6a30.29,30.29,0,0,1,3.2.6Zm-6.7,1.3c1.1.3,2.2.5,3.2.7-1.6.8-3.1,1.5-4.7,2.2l-2.9-.7c1.4-.7,2.9-1.5,4.4-2.2Zm5.4,1.1,3,.6c-1.8.8-3.6,1.5-5.4,2.2l-2.3-.6a49.56,49.56,0,0,0,4.7-2.2Zm2.5-1.3,1.1-.6,3.5.8-1.6.7c-1-.4-2-.6-3-.9Zm6.7.6,3,.6-2.9,1.5a.55.55,0,0,0-.3-.5,12.2,12.2,0,0,0-1.7-.7Zm5.1,1c1.6.3,3.3.5,4.9.7l-1.2.4c-2.7.3-5.4.7-8,1,1.5-.7,2.9-1.4,4.3-2.1Zm2.6,2.7c3.5-.3,7-.8,10.5-1.1-1.9.8-4.2.9-6.2,1.3l-6.7,1.5h-2.3a33.57,33.57,0,0,0,4.7-1.7Zm-85.1,21c-.3.5.3,1.2.8.8a4.05,4.05,0,0,1,.9-.5c-.3.4-.6.8-.8,1.1l-2.8-1.7c-.7-.4-1.3-.8-2-1.2a49.81,49.81,0,0,0,4.1-3.8h0l3.5,1.7a6.42,6.42,0,0,0-1.3,1c-.8.8-1.6,1.7-2.4,2.6Zm2.6,2.4h0c.5-.8,1.1-1.6,1.7-2.4a7.2,7.2,0,0,0,1.5-2.7l1.4.7c-.2,0-.3.1-.4.3-.6.4-2.8,3.2-4.2,4.1Zm52.2,1.2c0-.3.1-.6.1-1,0-.1.1-.3.1-.4a2.35,2.35,0,0,0,.2.8l.3.3Zm4-2.1c.1-.4.3-.9.4-1.4v.4a.91.91,0,0,0,.3.7Zm2-4.3c-.1-.1-.1-.3-.2-.4l1-.4a3,3,0,0,0-.8.8Zm8.6-.8c0-.6.1-1.2.1-1.8a.7.7,0,1,0-1.4,0c0,.7-.2,1.6-.3,2.5-1.4.6-2.8,1.3-4.1,2v-.6a2.27,2.27,0,0,0-.8-2,1.14,1.14,0,0,0-.8-.3h.1a57.27,57.27,0,0,1,8.2-3V32a11.53,11.53,0,0,0,.3,2.6,5,5,0,0,0-1.3.4Zm67.6,2.3c-1,.3-3.9-.6-4.9-.8-2.2-.4-4.3-.9-6.5-1.3-3.6-.7-7.1-1.6-10.8-2-4.2-.5-8.4-1.1-12.7-1.5a96.5,96.5,0,0,0-24.6,1,32.7,32.7,0,0,0-5.4,1.3,15,15,0,0,1-.2-2,1.42,1.42,0,0,0-.2-.6c2-.5,4-.9,6-1.3v.2c0,.7-.1,1.4.5,1.8a.85.85,0,0,0,.7,0c.6-.4.5-1.2.5-1.8a.76.76,0,0,0-.2-.5l2.7-.5c7.7-1.3,15.5-.4,23.3-1a.5.5,0,0,0,0-1c-14.3-1.1-29.5.2-42.9,5.3-11.9,4.4-24,8.8-34,16.8-.6.5.2,1.5.8,1.1,4.4-2.7,9-5,13.6-7.3,2.8-1.4,5.6-2.5,8.4-3.7v.4a2.6,2.6,0,0,0,.4,2.4c.3.4,1.1.4,1.2-.1a6.28,6.28,0,0,0-.3-1.9c.1-.4.2-.9.3-1.3.5,1.2,0,2.8.3,4,0,.1.1.2.1.3a93.6,93.6,0,0,0-14.1,10.2,9.42,9.42,0,0,0-1,1c-.1-1.2-.2-2.4-.2-3.6a19.56,19.56,0,0,1,.1-3.5c.2-.1.3-.6-.1-.6h-.3c-.1,0-.3.1-.3.2a1.42,1.42,0,0,0-.2.6.93.93,0,0,0-1.2-.3l-.1.1a3.63,3.63,0,0,0-.8,2.7,7.17,7.17,0,0,1-.5,2.1,14.77,14.77,0,0,1-.1-2.1.9.9,0,1,0-1.8,0c0,1.3-.3,2.6-.4,3.9a17.65,17.65,0,0,0,0,2.3.8.8,0,0,0,.5,1.4h.3a1.15,1.15,0,0,0,.9-.6,4.87,4.87,0,0,0,.1-1.2,1,1,0,0,0,1.4-.1c.1-.1.1-.2.2-.3a5,5,0,0,1,.4-1.3c.1.4.3.8.4,1.1a.68.68,0,0,0,.6.4c-2.4,2.4-5,4.9-8.4,4.5a5.1,5.1,0,0,0,1.4-2.6c.5-1.5,1.1-3,1.7-4.5.3-.7-.9-1.2-1.2-.5a32,32,0,0,0-1.6,3.9,26.54,26.54,0,0,1-1.1,3,.64.64,0,0,0,0,.6c-.3-.1-.5-.1-.8-.2a9.86,9.86,0,0,1-2.5-1.3c.2,0,.3,0,.4-.1a7.1,7.1,0,0,0,1-1.4,15.87,15.87,0,0,1,.7-2,6.72,6.72,0,0,0,1.3-3c.1-1.1-1.6-1.1-1.7,0s-1.2,1.9-1.5,3a11.27,11.27,0,0,0-.3,1.8,3.89,3.89,0,0,0-.2,1.5.1.1,0,0,0,.1.1c-2.6-1.8-4.9-4.6-6.9-6.6a62.34,62.34,0,0,0-8.1-6.5c.4-.3.7-.6,1-.8a22.66,22.66,0,0,1,4-2.9c.6-.3.2-1.4-.5-1.1a12.54,12.54,0,0,0-3.5,2.1l-1.8,1.2c-.3.2-.5.4-.8.6l-.2-.2a1,1,0,0,0,.5-.4,25.72,25.72,0,0,0,3.3-3.3,1.05,1.05,0,0,0,0-1.3.78.78,0,0,0-.8-.2.84.84,0,0,0-1.1-.4h0a22.55,22.55,0,0,1-2.2,1.1,8.35,8.35,0,0,0,1.2-1.6.75.75,0,0,0,0-.9c1.7.8,3.3,1.5,4.9,2.3,3.9,2,6.6,4.6,9.8,7.5.1.1.2,0,.3,0v-.2c-4.5-5.4-10.9-9.6-17.2-12.7-7.6-3.7-15.7-7.5-24.1-9A81.25,81.25,0,0,0,39.64,24c-4.2.5-8.1.3-12.2,1.5-3.4,1-7.7,1.2-10.7,3a.65.65,0,0,0,.7,1.1c2.9-1.4,6.8-1.3,10-2.1,3.8-1,7.2-.8,11.1-1.1,8.5-.7,17.2-1,25.7.5,5.8,1.1,11.2,3.5,16.6,6-.9.9-1.8,1.7-2.7,2.5-.5.4-.9.8-1.4,1.2-.8-.4-1.6-.9-2.4-1.3h.1a8.27,8.27,0,0,1,1.3-.7.87.87,0,1,0-.9-1.5,2.76,2.76,0,0,0-1.4,1.2,1.27,1.27,0,0,0-.1.6,41.24,41.24,0,0,0-14.6-4c-3.8-.4-7.7-.7-11.5-.8-4.4.1-8.8.4-13.1.8-7.7.7-15.3,2.1-23,3.2-2.5.4-5.1.6-7.7.8h0a1.7,1.7,0,0,0,.7-.1,30.69,30.69,0,0,0,2.6-2.5A63.74,63.74,0,0,1,19,23.86c3.8-2,7.8-3.2,11.7-4.9a117,117,0,0,1,12.8-5,243.07,243.07,0,0,1,25.3-7.1l2.6-.5c7.5-.9,14.8-2.8,22.3-3.1,8.1-.4,16.6,1.1,24.6,2.1,15.9,2,31.7,4,47.6,6.6a29.3,29.3,0,0,0,2.9.5h-.2c-1,.3-2,.6-3,1-1.2-.3-2.4-.5-3.6-.7,0-.4-.4-.6-.8-.6H161l-.6.3-4.2-.8h.1a.63.63,0,0,0,.1-.9.78.78,0,0,0-.8-.2l-1.4.8-3.5-.6a.64.64,0,1,0-.8-1h0l-1.2.6c-2.1-.4-4.3-.6-6.4-.9a.6.6,0,0,0-.4-.1h0l-3.6-.6a60.49,60.49,0,0,0-10.4-1.4c-.5,0-.5.7,0,.8,4,.3,7.7,1.4,11.5,2.3l-.5.4c-1.8-.5-3.7-.8-5.6-1.2a.57.57,0,0,0-.7-.4c-.1,0-.1,0-.2.1l-.3.1c-3.8-.6-7.6-1.1-11.4-1.4a.45.45,0,0,0-.5,0l-1.8-.2a.4.4,0,0,0,0,.8l.8.1a15.94,15.94,0,0,1-4.2,1.9,81.69,81.69,0,0,0-13-2c-.5,0-.4.7,0,.7a33.33,33.33,0,0,1,5.5,1,53.19,53.19,0,0,0-6.9,1.6c-2.2-.4-4.4-.7-6.7-.9a16.16,16.16,0,0,1,4.8-1.7.3.3,0,1,0,0-.6c-2-.1-3.4.6-5.2,1.3l-3,.9h-.6a.22.22,0,0,0-.2.2v.1c-.9.3-1.8.5-2.7.8-5.1,1.8-10.2,3.8-15.3,5.7-.9.3-.5,1.8.4,1.5l12-4.5V15l.1.3a.32.32,0,0,0,.3.3,10.92,10.92,0,0,0,1.7.5L82,17.56c-.6.2-.3,1.2.3,1,2-.7,3.9-1.3,5.9-1.9,1.8.4,3.8.8,5.7,1.1,0,.2.1.3.3.4a6.33,6.33,0,0,0,4.5.1,68.24,68.24,0,0,0,10.1-.1.46.46,0,0,0,.4-.5c0-.1,0-.2-.1-.2a20,20,0,0,0,4-1.7c1.6.3,3.3.7,5,1l-.4.1a.37.37,0,0,0-.2.5.1.1,0,0,0,.1.1c-1.1,0-2.2.1-3.3.2h-.1a.37.37,0,0,0-.3.1,62.8,62.8,0,0,0-12.9,2.6.57.57,0,0,0,.3,1.1h0c7.3-2,15.1-1.3,22.4-3.1.2-.1.3-.3.2-.4a.22.22,0,0,0-.2-.2l1.3.2a38.1,38.1,0,0,1-6.4,2.4c-.1,0-.2.2-.2.3a.22.22,0,0,0,.2.2c4.2-.1,8.1-2.1,11.7-4.1.6-.3,1.1-.6,1.7-.9l4.3.9c-3.2,1.7-7.4,4.1-10.7,3.9a.31.31,0,0,0-.1.6c2.8,1.1,6.9-1.3,9.4-2.5,1.1-.5,2.2-1.1,3.3-1.6l.8.2,2,.5c-1.9.8-3.7,1.5-5.6,2.2-1.3.5-3.5,2-4.9,1.9a.32.32,0,0,0-.3.3c0,.1,0,.2.1.2,2,1.6,7.4-1.8,9.2-2.5,1.3-.5,2.6-1,3.8-1.6a20,20,0,0,0,2.4.4l-5.6,2.1c-.7.3-4,1.4-4,1.4a.3.3,0,0,0-.5-.3l-.5.6a.48.48,0,0,0,0,.7c.1,0,.1.1.2.1,1.3.5,2.4-.1,3.7-.6,2.7-1,5.3-2.1,8-3.1s5.5-2.3,8.2-3.5c1,.2,2.1.5,3.1.7a16.85,16.85,0,0,1-2.8,1.2l-6.3.9c-.3,0-.2.5.1.6a26.21,26.21,0,0,0,2.8.1c-3.8,1.8-9.4,4.4-9.8,3.8a.48.48,0,0,0-.7,0c-.1.1-.1.1-.1.2l-.1.3c-.2.5.4.9.8.8a26.64,26.64,0,0,0,6.1-1.8v.1l.1.3a.32.32,0,0,0,.3.3l.4.1h0a.48.48,0,0,0,0,.7c.1.1.1.1.2.1,3.2.7,6.7-.5,10.1-1.8a.22.22,0,0,0,.2.2c1.3.9,3,.2,4.5.1l8.4-.6c6.8-.4,13.5-.8,20.3-.9a.4.4,0,0,0,0-.8c-6,0-12,.2-18,.5-2.8.2-5.5.5-8.3.6a40.06,40.06,0,0,0-4.9,0,22.51,22.51,0,0,1,2.4-.8l.2-.1c2-.1,4-.1,6-.3,5.4-.4,10.7-.7,16.1-.7.3,0,.5-.3.5-.7a.47.47,0,0,0-.5-.5c-5.2,0-10.3.1-15.4.5h-.6l2-.5c2.2-.6,4.5-.6,6.4-1.9.1-.1.2-.2.2-.3l2.1-.1a.6.6,0,0,0,.6-.7.52.52,0,0,0-.2-.4c3.9,1.1,7.7,2.3,11.6,3.7,7.3,2.6,14.7,5.8,20.5,11,1.3,1.2,2.6,2.3,3.8,3.6.7.7,3.6,3,1.4,3.6Z"/><path class="cls-1" d="M123,20.66c-6.8-.2-14,1.3-20.6,3a.44.44,0,0,0-.2.7.55.55,0,0,0,.5.3c6.7-1.6,13.7-1.8,20.4-3.5.1-.1.2-.2.1-.3S123.14,20.66,123,20.66Z"/><path class="cls-1" d="M125.14,23.76c-5.2.5-10.3,1.8-15.5,2.3-.7.1-.7,1.1,0,1.1a74.79,74.79,0,0,0,15.6-2.6C125.54,24.36,125.54,23.76,125.14,23.76Z"/><path class="cls-1" d="M106.84,31.66c-2.9-.9-5.5.2-8.4.7-.4.1-.3.9.1.8,1.4-.2,2.9-.6,4.3-.7a17,17,0,0,0,3.9-.2.52.52,0,0,0,.2-.4A.35.35,0,0,0,106.84,31.66Z"/><path class="cls-1" d="M108.84,33.56c-2.1-.7-4.3.5-6.3.8-1.3.2-2.9.4-3.3,1.9a.57.57,0,0,0,1.1.3c.4-1.1,2.8-.9,3.7-1a16.93,16.93,0,0,0,4.9-1.3C109.34,34.16,109.14,33.66,108.84,33.56Z"/><path class="cls-1" d="M112.24,35.86c-1.6-.4-3.4.4-5.1.4a.6.6,0,1,0,0,1.2,22.06,22.06,0,0,0,5.1-.5.57.57,0,0,0,.4-.7C112.54,36.06,112.34,35.86,112.24,35.86Z"/><path class="cls-1" d="M58,16.16a58.92,58.92,0,0,0-5.8,2.4c-1.1.4-2,1.1-3.1,1.6-.8.4-1.5.3-2.2.9-.3.2.1.6.4.5a18.42,18.42,0,0,1,2.5-.5,24.42,24.42,0,0,0,2.4-1c.9-.4,1.8-.6,2.7-1,1.1-.6,2.3-1.2,3.4-1.7a.81.81,0,0,0,.3-.9A.71.71,0,0,0,58,16.16Z"/><path class="cls-1" d="M48.44,17.06a17.77,17.77,0,0,1-2.7,1.7c-.7.3-1.3.6-1.1,1.4a.44.44,0,0,0,.8.1c.3-.5,1.2-.7,1.6-.9.7-.4,1.3-.8,1.9-1.2C49.74,17.66,49.14,16.66,48.44,17.06Z"/></g></g></svg>