<?xml version="1.0" encoding="iso-8859-1"?>
<svg xmlns="http://www.w3.org/2000/svg" viewBox="0 0 157.41 72.96"><defs><style>.cls-1{fill:#fff;}</style></defs><title>Asset 9</title><g id="Layer_2" data-name="Layer 2"><g id="Layer_1-2" data-name="Layer 1"><path d="M42.61,58.28h0v.1h0C42.51,58.38,42.61,58.28,42.61,58.28Z"/><path class="cls-1" d="M125.81,29.68c-2.1-3.6-4.1-7.2-7.5-10.2a18.07,18.07,0,0,0-13.4-4.7,58.87,58.87,0,0,0-12.7,1.6c-.3.1-.7.2-1,.3-.5.2-1,.3-1.5.5h0c-.2.1-.5.2-.7.3a11.73,11.73,0,0,0-1.1.5c-3.2,1.4-6.4,2.9-8.6,5.2a7.49,7.49,0,0,0-1.5,2,20.57,20.57,0,0,0-1.6,3.4h0c-2.3,6.5,1.1,11.9,9.5,16.7,4.9,2.8,10.9,3,17,2.9a25.56,25.56,0,0,0,14.4-4.4c3.8-2.7,7.2-5.5,8.8-9.5C126.31,32.68,126.71,31.18,125.81,29.68Zm-3.8,4.5c-3.2,6.1-9.8,10.3-17.9,11.4a5.7,5.7,0,0,1-1.3.1c-1,.1-2,.1-3,.1h-2.2a3.4,3.4,0,0,1-1-.1c-.4,0-.7-.1-1-.1a6.75,6.75,0,0,1-1.4-.2,18.73,18.73,0,0,1-3.4-.8,5,5,0,0,1-1.3-.5,14.17,14.17,0,0,1-1.8-.8,19.18,19.18,0,0,1-6.3-5.1l-.9-1.2h0c-.1-.2-.2-.3-.3-.5-2.8-5-1.1-10.7,4.8-14.3,6.8-4.1,14.5-5.4,22.9-4.7a13.43,13.43,0,0,1,7.5,2.8,26.48,26.48,0,0,1,7.1,8.7A5.34,5.34,0,0,1,122,34.18Z"/><path class="cls-1" d="M156.91,45c-2.4-3.8-5.1-7.6-10.8-9.7-1.6-.6-3.3-1.1-4.8-1.8-1.2-.5-1.4-1.3-1-2.2a7.74,7.74,0,0,1,2.7-2.7c4.1-3.2,4.2-6.8,1.9-10.5a77.73,77.73,0,0,0-5.1-6.6c-3.1-3.7-8-6.3-13.3-8.3-3.9-1.5-8.1-3-12.5-3.1-9.1-.4-17.9.5-24.8,5.3q-4.5,3.15-9.3,6a31.23,31.23,0,0,1-20.3,4.2,95.45,95.45,0,0,0-14.3-.6c-5.9-.2-11.9.5-18,.9a27.1,27.1,0,0,0-12.6,3.9C9.51,23,5.81,27,2.31,31A9.9,9.9,0,0,0,0,38.18c0,1.9.3,3.9.4,5.8a8.92,8.92,0,0,0,2.2,5.1c.2.2.3.4.5.6s.4.5.6.8l1.5,1.8c.3.4.7.9,1,1.3a2.65,2.65,0,0,0,.5.6l.9,1.2h0c.4.5.7,1,1.1,1.5s.7,1,1,1.6l.3.6h0a9.35,9.35,0,0,0,3.9,3.7c4.3,2.1,8.6,4.2,14.2,4.6,2,.1,4,.5,6,.8a34.58,34.58,0,0,0,9.1.2c3.4-.4,6.8-.7,10.3-1.1,6.4-.6,12.1.3,16.8,3.5,2.1,1.5,4.7,2,7.7,2.1,9,.2,17.9.2,26.2-2.7a20,20,0,0,1,15,.6,26,26,0,0,0,22.6-1.7,43,43,0,0,0,8.4-6.6,9.33,9.33,0,0,0,2.3-3.4c1.2-2.9,2.6-5.8,3.9-8.7C157.21,48.58,157.91,46.68,156.91,45Zm-3.7,5.5c-1.2,2.4-1.9,4.8-3,7.2a12.75,12.75,0,0,1-1.6,2.7,2.65,2.65,0,0,1-.5.6,14.84,14.84,0,0,1-3.4,3.2,1.38,1.38,0,0,1-.4.3,3.51,3.51,0,0,1-.8.5c-1.3.8-2.6,1.8-3.9,2.6-.4.3-.9.5-1.3.8l-.6.3c-.9.4-1.9.8-2.8,1.1-.1,0-.2.1-.4.1a21.47,21.47,0,0,1-8.4.5,4.33,4.33,0,0,1-.5-.1,28.64,28.64,0,0,1-2.8-.7,2.35,2.35,0,0,0-.8-.2c-.2-.1-.4-.1-.5-.2-1.1-.3-2.2-.7-3.4-1h0c-.2-.1-.4-.1-.6-.2-.6-.2-1.3-.4-1.9-.6a13.08,13.08,0,0,0-5.9-.5c-.3,0-.5.1-.8.1s-.7.1-1,.2c-1.7.4-3.4.9-5,1.4-.8.2-1.6.5-2.3.7s-1.3.4-2,.6a25.21,25.21,0,0,1-5.6.8h-1.4l-11.1.3h-1a13.34,13.34,0,0,1-7.8-1.9c-.1,0-.1-.1-.2-.1s-.2-.1-.3-.2-.2-.1-.2-.2h-.1c-.2-.2-.5-.3-.7-.5a21.54,21.54,0,0,0-5.9-2.4c-.2-.1-.5-.1-.7-.2a34,34,0,0,0-11.5-.1c-1.2.2-2.4.2-3.6.4-8.4,1.4-16.6.5-24.6-1.4-4.9-1.2-9-3.2-11.5-6.4a3.59,3.59,0,0,1-.7-1c0-.1-.1-.1-.1-.2a8.34,8.34,0,0,0-.8-1.2c-.3-.4-.5-.7-.8-1.1a.1.1,0,0,0-.1-.1c-.4-.6-.9-1.1-1.3-1.7-.2-.3-.5-.6-.7-.9s-.5-.6-.7-.9a25.79,25.79,0,0,1-2.4-3.7A14.35,14.35,0,0,1,3.51,44h0a7.37,7.37,0,0,1-.4-1.4h0a14.18,14.18,0,0,1,1.1-9.2,11.35,11.35,0,0,1,2.6-3.7c1.9-1.8,3.8-3.6,5.8-5.3,4.6-4.1,10.7-6.3,18.2-6.8,3.6-.3,7.3-.4,11-.6a83.26,83.26,0,0,1,15.8.6,41.89,41.89,0,0,0,17.3-1.5,26.19,26.19,0,0,0,6.1-2.7c2.3-1.4,4.6-2.7,6.9-4.1h0c.5-.3.9-.5,1.4-.8h0c1-.6,1.9-1.1,2.9-1.7h0c.4-.2.7-.4,1.1-.6l.1-.1c4.7-2.8,10.6-3.4,16.3-4.3a9.63,9.63,0,0,1,2.4,0c10.9,1.8,20.2,5.1,25.9,12,1.3,1.6,2.4,3.2,3.6,4.8,2.2,3.2,2,6.2-1.5,8.9a12.78,12.78,0,0,0-4,5.1c-.5,1.1,0,1.9,1.6,2.3a10.46,10.46,0,0,0,1.7.4,20.36,20.36,0,0,1,11.5,5.8C153.81,44,155,47.08,153.21,50.48Z"/><path class="cls-1" d="M2.51,46.38a32.12,32.12,0,0,1,1.9-9.1,24.82,24.82,0,0,1,2-4.4,23.27,23.27,0,0,1,3.1-4.1,29.8,29.8,0,0,1,4.3-3.5,24.9,24.9,0,0,1,5.2-2.5,40.5,40.5,0,0,1,5.7-1.6,38.09,38.09,0,0,1,5.9-.8l.1.2c-1.8.7-3.6,1.4-5.3,2s-3.5,1.3-5.2,2.1-3.3,1.5-4.9,2.3a18.09,18.09,0,0,0-4.2,2.8,21.72,21.72,0,0,0-3.2,3.6,33.76,33.76,0,0,0-2.4,4.1,45.37,45.37,0,0,0-2.9,8.8Z"/><path class="cls-1" d="M105,3.38a2.09,2.09,0,0,1-.6.4c-.2.1-.4.3-.6.4-.4.3-.8.5-1.2.8-.8.5-1.6,1-2.3,1.5l-1.1.7c-.4.2-.7.5-1.1.7a5.49,5.49,0,0,0-.9.7,3.39,3.39,0,0,0-.6.6,5.58,5.58,0,0,0-.5.8c-.1.2-.2.3-.3.5a2.19,2.19,0,0,1-.3.5c-.2.4-.4.7-.6,1.1a2.19,2.19,0,0,1-.3.5,2.19,2.19,0,0,1-.3.5l-1.4,2.1c-.2.4-.5.7-.7,1.1l-.4.6a2.09,2.09,0,0,1-.4.6h-.3a19.42,19.42,0,0,1,.2-2.4,21.72,21.72,0,0,1,.7-2.4c.3-.8.6-1.6.9-2.3a7.24,7.24,0,0,1,1.2-2.3,9.62,9.62,0,0,1,2.2-1.8c.4-.2.9-.5,1.3-.7s.9-.4,1.4-.6c.9-.4,1.9-.8,2.8-1.1s2-.6,3-.8Z"/><path class="cls-1" d="M93,5.58c.1.4.1.7.2,1V9a.6.6,0,0,1-.1.4,18.87,18.87,0,0,1-.9,3.4,13.69,13.69,0,0,1-1.6,3.2c-.1.1-.2.3-.3.4s-.2.3-.3.4c-.2.3-.4.5-.6.8a5,5,0,0,1-.7.8,6,6,0,0,1-.8.8h-.3l.2-.9.2-.9.2-.9.2-.9a33.82,33.82,0,0,1,1.1-3.4A25.18,25.18,0,0,1,91,8.78l.4-.8.4-.8.5-.8.5-.8Z"/><path class="cls-1" d="M83.71,12.68a3.92,3.92,0,0,0-.8,1,3.13,3.13,0,0,0-.5,1,11.76,11.76,0,0,0-.7,2l-.1.3c0,.1-.1.2-.1.3s-.1.3-.2.5a4.18,4.18,0,0,1-.4,1,11.92,11.92,0,0,1-.8,2c-.5,1.4-1,2.7-1.6,4.1a20,20,0,0,1-1,2.1,5.36,5.36,0,0,0-.5,1.1,6.73,6.73,0,0,1-.7,1.1H76v-2.3a17.85,17.85,0,0,1,.2-2.3,18.77,18.77,0,0,1,1.2-4.5,24.41,24.41,0,0,1,2.1-4.3,7.42,7.42,0,0,1,1.6-2,6.34,6.34,0,0,1,2.4-1.4Z"/><path class="cls-1" d="M78.91,23.18v-1.3a6.88,6.88,0,0,1,.2-1.3,1.42,1.42,0,0,1,.2-.6c.1-.2.1-.4.2-.6s.1-.4.2-.6.1-.4.2-.6a20,20,0,0,1,2.7-4.4,20.67,20.67,0,0,1,4-3.8c.2-.1.4-.3.6-.4s.4-.3.6-.4a8.26,8.26,0,0,1,1.3-.7c.5-.2.9-.5,1.4-.7.2-.1.5-.2.7-.3s.5-.2.8-.3l.2.1-1,.9-1,.9-1,.9-.9.9c-1.2,1.3-2.4,2.6-3.5,3.9s-2.1,2.7-3.1,4.1l-.7,1-.7,1.1-.7,1.1-.6,1.1Z"/><path class="cls-1" d="M95.31,20.28a2.65,2.65,0,0,1-.6.5c-.2.2-.4.3-.6.5s-.4.3-.6.5-.4.3-.6.5c-.7.7-1.4,1.3-2,2a44.67,44.67,0,0,0-3.5,4.1c-1.1,1.4-2.1,2.9-3.3,4.5-.6.8-1.2,1.5-1.8,2.3a11,11,0,0,1-1,1.1,6.28,6.28,0,0,1-1.2,1.1l-.3-.1c.3-.9.7-1.7,1.1-2.6s.8-1.7,1.2-2.5a28,28,0,0,1,3-4.9,21.89,21.89,0,0,1,4.3-4.3,24.63,24.63,0,0,1,2.7-1.7,28.8,28.8,0,0,1,3.1-1.3Z"/><path class="cls-1" d="M89.91,27.58l-.2.1c-.1,0-.1.1-.2.1s-.2.1-.3.2l-.2.1-.1.1c-.1.1-.2.2-.3.2l-.2.2-.2.2c-.1.2-.3.3-.4.5s-.1.2-.2.2a.31.31,0,0,0-.1.2c-.1.2-.2.3-.3.5s-.1.3-.2.5a.9.9,0,0,0-.1.5c0,.2-.1.3-.1.5v.6c0,.4-.1.7-.1,1.1v2.4a27.2,27.2,0,0,0,1,4.6l.9,2.4.1.3c0,.1.1.2.1.3l.3.6.3.6a4.87,4.87,0,0,1,.3.7l-.2.1a20.89,20.89,0,0,1-2.2-2,12.42,12.42,0,0,1-1.7-2.3,11.51,11.51,0,0,1-1.2-2.5,12.21,12.21,0,0,1-.6-2.6V34a2,2,0,0,1,.1-.7,6.07,6.07,0,0,1,.8-2.6,5.92,5.92,0,0,1,2-2.2,6.38,6.38,0,0,1,1.4-.8,4.71,4.71,0,0,1,1.6-.4Z"/><path class="cls-1" d="M94.91,46.58a5,5,0,0,1-1.3-.4A1.42,1.42,0,0,0,93,46l-.6-.3a13.24,13.24,0,0,1-2-1.2c-.6-.5-1.2-1-1.7-1.5a20.28,20.28,0,0,1-1.3-1.8,8.64,8.64,0,0,1-.7-2.1,5.45,5.45,0,0,1,.1-2.2,5.34,5.34,0,0,1,1.1-2.1c.1-.2.3-.3.4-.4s.3-.3.5-.4a2.19,2.19,0,0,0,.5-.3l.6-.3.2.1a5.56,5.56,0,0,0-.9,1.7,5.66,5.66,0,0,0-.3,1.8,7.3,7.3,0,0,0,.9,3.5,17.19,17.19,0,0,0,2.3,3.2,19.2,19.2,0,0,0,1.4,1.5,19.2,19.2,0,0,1,1.4,1.5Z"/><path class="cls-1" d="M96.21,46.78c-.1-.2-.2-.3-.3-.5s-.2-.3-.3-.5l-.6-.9a16.32,16.32,0,0,1-.9-1.9,7.85,7.85,0,0,1-.5-2.2,4.87,4.87,0,0,1,.1-1.2c0-.2.1-.4.1-.6s.1-.4.2-.6a6.36,6.36,0,0,1,1.4-2.2,8.7,8.7,0,0,1,2.1-1.7,11.18,11.18,0,0,1,2.5-1.1c.4-.1.9-.3,1.4-.4a6.75,6.75,0,0,1,1.4-.2l.2.2a13.73,13.73,0,0,0-2,1.3,12.38,12.38,0,0,0-1.8,1.4,7.52,7.52,0,0,0-1.5,1.6,8.11,8.11,0,0,0-1,1.8,4.33,4.33,0,0,0-.4,1.9,13.4,13.4,0,0,0,.1,2c.1.7.1,1.3.2,2v2Z"/><path class="cls-1" d="M104.31,46.28c-.4-.1-.7-.2-1-.3s-.6-.3-.9-.4a31249908.78,31249908.78,0,0,0-.8-.6l-.3-.3-.3-.3a4.77,4.77,0,0,1-1.1-2.9,4.87,4.87,0,0,1,.8-3l.3-.3.3-.3a4.35,4.35,0,0,1,.7-.6,3.51,3.51,0,0,1,.8-.5,10.37,10.37,0,0,1,1-.4l.2.1-.3.6-.3.6-.2.6-.2.6a7.07,7.07,0,0,0-.2,2.5,7.42,7.42,0,0,0,.5,2.5l.2.6.3.6.3.6.4.6Z"/><path class="cls-1" d="M98.91,47.08l-.3-.3-.3-.3-.6-.6a10.59,10.59,0,0,1-1-1.2,13.25,13.25,0,0,1-1.6-2.5l-.3-.6a4.87,4.87,0,0,1-.3-.7c-.2-.4-.4-.9-.6-1.3a8.33,8.33,0,0,1-.4-1.5,8.6,8.6,0,0,1-.1-1.6,2.77,2.77,0,0,1,.1-.9c0-.1.1-.3.1-.4s.1-.3.1-.4a.76.76,0,0,1,.2-.4l.2-.4c.1-.3.3-.5.4-.8l.3-.4.3-.3.3-.3.1-.2.2-.2.6-.6a2.65,2.65,0,0,1,.6-.5,21.11,21.11,0,0,1,2.7-1.8l1.4-.8,1.4-.9.2.1a20.28,20.28,0,0,1-1.8,2.3c-.7.7-1.4,1.4-2.1,2.2a13,13,0,0,0-1.8,2.3l-.3.6-.1.3c0,.1-.1.2-.1.3l-.1.3c0,.1-.1.2-.1.3s-.1.4-.1.7a7.46,7.46,0,0,0,.4,2.6,25.82,25.82,0,0,0,.8,2.6c.3.9.6,1.7.9,2.6s.7,1.7,1,2.6Z"/><path class="cls-1" d="M62.51,66.48c1.4-1.2,2.8-2.3,4.2-3.4a46.3,46.3,0,0,1,4.6-3.1c.4-.2.8-.5,1.2-.7s.8-.5,1.3-.7.9-.4,1.3-.6a7.84,7.84,0,0,1,1.4-.5c.5-.1,1-.3,1.5-.4s1-.2,1.6-.3a12.85,12.85,0,0,1,3.2,0l.1.2a8.26,8.26,0,0,1-1.3.7c-.4.2-.9.4-1.3.6s-.8.4-1.3.6-.8.4-1.3.6a5,5,0,0,1-1.3.5c-.4.2-.9.3-1.3.5l-1.3.5c-.4.2-.9.4-1.3.6-1.7.8-3.3,1.6-5,2.5s-3.3,1.8-4.9,2.7Z"/><path class="cls-1" d="M76.11,70.08a11.83,11.83,0,0,1,2.2-4.7c.5-.7,1.2-1.4,1.8-2.1a20,20,0,0,1,2.2-1.9l2.4-1.8a17.25,17.25,0,0,1,2.7-1.5c1-.4,2-.7,3-1a16.47,16.47,0,0,1,3.2-.6l.1.2c-.8.6-1.6,1.2-2.4,1.7s-1.6,1-2.5,1.5-1.7.9-2.5,1.3a19.65,19.65,0,0,0-2.5,1.3,18.82,18.82,0,0,0-2.3,1.6c-.7.6-1.4,1.1-2.1,1.8a14.32,14.32,0,0,0-3.1,4.2Z"/><path class="cls-1" d="M69.71,69.28l.9-2.1a18.65,18.65,0,0,1,1-2,4.18,4.18,0,0,0,.4-1,1.8,1.8,0,0,1,.6-.9,3.92,3.92,0,0,1,1-.8,4.58,4.58,0,0,1,1.4-.7l.2.1a3.18,3.18,0,0,1,.2,1.3,2,2,0,0,1-.3,1.1c-.1.2-.2.3-.3.5a1.76,1.76,0,0,1-.4.5l-.9.9a13.65,13.65,0,0,1-1.7,1.7,14.62,14.62,0,0,1-1.9,1.6Z"/><path class="cls-1" d="M79.61,71.38c.4-.7.7-1.4,1.1-2.1s.7-1.4,1.1-2.1a11.73,11.73,0,0,0,.5-1.1,3.59,3.59,0,0,1,.7-1,9,9,0,0,1,1-.9,4.58,4.58,0,0,1,1.4-.7l.2.1a6.15,6.15,0,0,1,.1,1.3l-.3,1.2a2.19,2.19,0,0,1-.3.5c-.1.2-.3.3-.4.5-.3.3-.7.6-1,.9-.6.6-1.2,1.2-1.9,1.8s-1.3,1.2-2,1.7Z"/><path class="cls-1" d="M86.61,70.58a35.83,35.83,0,0,1,2.6-2.9,27.85,27.85,0,0,1,3.2-2.6,5.55,5.55,0,0,0,.8-.6l.9-.6.9-.6a4.18,4.18,0,0,1,1-.4,4.88,4.88,0,0,0,1.1-.4l1.1-.3c.4-.1.8-.1,1.2-.2a4.82,4.82,0,0,1,1.2,0l.1.2a2.7,2.7,0,0,1-.8.7c-.3.2-.5.4-.8.6a5.55,5.55,0,0,0-.8.6,9.23,9.23,0,0,1-.8.5c-.3.2-.6.3-.9.5a3.55,3.55,0,0,1-.9.4l-1,.4c-.3.1-.6.3-.9.4-1.2.6-2.4,1.3-3.6,2a40.47,40.47,0,0,0-3.4,2.3Z"/><path class="cls-1" d="M70.41,69.68a26.85,26.85,0,0,1,1.8-3.3,35.53,35.53,0,0,1,2.3-3.1,5.55,5.55,0,0,0,.6-.8l.6-.8.7-.7c.3-.2.5-.4.8-.6l.9-.6a4.67,4.67,0,0,1,1-.5,3.58,3.58,0,0,1,1.1-.4l1.2-.3.2.2a4.05,4.05,0,0,1-.5.9c-.2.3-.4.5-.6.8a4.35,4.35,0,0,1-.6.7c-.2.2-.4.5-.6.7l-.7.7a5.55,5.55,0,0,1-.8.6l-.8.6c-.3.2-.5.4-.8.6a37.05,37.05,0,0,0-2.9,2.7c-1,.9-1.9,1.9-2.8,2.8Z"/><path class="cls-1" d="M91.41,70.88c.6-.9,1.3-1.9,1.9-2.8s1.2-1.9,1.8-2.8c.1-.2.3-.5.4-.7l.4-.7a5.51,5.51,0,0,1,.9-1.4l.6-.6a4.35,4.35,0,0,1,.7-.6c.2-.2.5-.4.7-.6a7,7,0,0,1,.9-.6l.3.1a4.73,4.73,0,0,1-.1,1.7c-.1.3-.1.5-.2.8s-.2.5-.3.8-.3.5-.4.7-.4.5-.6.7l-.6.6-.6.6a29.49,29.49,0,0,1-2.5,2.5,31.12,31.12,0,0,1-2.8,2.3Z"/><path class="cls-1" d="M102.61,68.18c.5-1.5,1.1-3,1.7-4.5s1.3-2.9,2-4.4a21.4,21.4,0,0,0,1-2.2c.2-.4.4-.7.6-1.1a3.59,3.59,0,0,1,.7-1c.5-.7,1.1-1.3,1.7-2a19.58,19.58,0,0,1,2.1-1.8l.2.1a5,5,0,0,1-.2,1.2l-.3,1.2c-.3.8-.6,1.5-.9,2.2a12,12,0,0,1-1.3,2.1l-.7,1c-.2.3-.5.7-.7,1l-2.7,4.1-2.7,4.1Z"/><path class="cls-1" d="M65.31,61.88c.2-.1.3-.1.5-.2s.3-.1.5-.1.3-.1.5-.1h.5a8.2,8.2,0,0,1,2.2.2,22.3,22.3,0,0,1,3.9,1.3,13.35,13.35,0,0,0,1.8.7c.6.2,1.1.5,1.6.7s1,.5,1.5.8a8.65,8.65,0,0,0,1.7.7v.2a4,4,0,0,1-2.2.5,8.52,8.52,0,0,1-2.3-.3,6.63,6.63,0,0,1-1.9-.9c-.5-.4-1-.7-1.5-1.1l-1.5-.9a8,8,0,0,0-1.6-.8,8.45,8.45,0,0,0-1.7-.5,6,6,0,0,0-1.9,0Z"/><path class="cls-1" d="M83.91,66.58c1.4-.3,2.7-.5,4.1-.8s2.7-.5,4.1-.7c.3-.1.7-.1,1-.2l1-.2a16.21,16.21,0,0,1,2-.3h2.1c.4,0,.7.1,1.1.1s.7.1,1.1.2l.1.2a8.18,8.18,0,0,1-1.9.9c-.7.2-1.3.4-2,.6-.3.1-.7.1-1,.2s-.7.1-1.1.1h-2.1c-1.4.1-2.8.1-4.2.1s-2.8,0-4.2-.1Z"/><path class="cls-1" d="M102.71,68a.37.37,0,0,1,.1.3c0,.1.1.2.1.3s.1.3.1.5a1.48,1.48,0,0,1-.1.7,1.42,1.42,0,0,1-.8.9,2.2,2.2,0,0,1-1.4.2,2.92,2.92,0,0,1-.9-.2c-.2-.1-.3-.1-.5-.2s-.2-.1-.3-.2-.2-.1-.3-.2l-.1-.2c.1,0,.2-.1.3-.1l.3-.1c.2-.1.3-.2.5-.2.3-.2.7-.3,1-.5s.7-.3,1-.5.3-.2.5-.3l.2-.1a.35.35,0,0,0,.2-.1Z"/><path class="cls-1" d="M109.41,68.18a15.33,15.33,0,0,1-1.1-2.7,13.73,13.73,0,0,1-.5-2.8,1.7,1.7,0,0,0-.1-.7,1.7,1.7,0,0,0-.1-.7v-.7a1.85,1.85,0,0,1,.2-.7c.1-.2.2-.5.3-.7a4.35,4.35,0,0,0,.4-.7l.6-.6.3-.3.2-.1c.1,0,.1-.1.2-.1l.3.1c0,.1,0,.1.1.2l.1.2c0,.1.1.2.1.4a1.7,1.7,0,0,1,.1.7v1.4a2,2,0,0,1-.1.7,1.42,1.42,0,0,1-.2.6l-.2.6a6.37,6.37,0,0,0-.2.7,12.41,12.41,0,0,0-.3,2.7,24.32,24.32,0,0,0,0,2.7Z"/><path class="cls-1" d="M100,65a2.2,2.2,0,0,1-.4-1.3,6.75,6.75,0,0,1,.2-1.4c.1-.2.1-.5.2-.7a1.33,1.33,0,0,1,.5-.6,6.89,6.89,0,0,1,.8-.3,3.75,3.75,0,0,1,1.1-.1l.2.1a2.92,2.92,0,0,1,.2.9c0,.2,0,.5-.1.6a.78.78,0,0,1-.4.4l-.6.3a7.64,7.64,0,0,0-.9.9,2.38,2.38,0,0,0-.6,1.1Z"/><path class="cls-1" d="M114.91,66.78a9.05,9.05,0,0,1-1.3-2.6,9.25,9.25,0,0,1-.4-2.9v-1.4a1.85,1.85,0,0,1,.2-.7c.1-.2.2-.5.3-.7a2.65,2.65,0,0,1,.5-.6l.6-.6a3,3,0,0,1,.7-.5c.1-.1.3-.1.4-.2l.2-.1a.35.35,0,0,0,.2-.1l.2.1v.8a1.7,1.7,0,0,1-.1.7c0,.2-.1.4-.1.7s-.1.4-.1.6a1.42,1.42,0,0,1-.2.6l-.3.6-.3.6a1.42,1.42,0,0,0-.2.6,10.86,10.86,0,0,0-.4,2.5,12.29,12.29,0,0,0,.2,2.7Z"/><path class="cls-1" d="M117.31,68.78c.2-.9.5-1.8.7-2.7s.5-1.8.9-2.7a5.73,5.73,0,0,0,.4-1.4,3.1,3.1,0,0,1,.6-1.3,10.59,10.59,0,0,1,1-1.2,8.54,8.54,0,0,1,1.4-1.1l.3.1a3.89,3.89,0,0,1,.2,1.5,5.9,5.9,0,0,1-.2,1.4,3.1,3.1,0,0,1-.6,1.3l-.9,1.2c-.5.8-1.1,1.7-1.6,2.5s-1.1,1.6-1.8,2.4Z"/><path class="cls-1" d="M121.21,69.48c.1,0,.1-.1.2-.1s.1-.1.1-.2l.1-.5.1-.5.1-.5a15.52,15.52,0,0,0,.4-2.1,3.75,3.75,0,0,0,.1-1.1.75.75,0,0,1,.1-.5c0-.2.1-.3.2-.5s.4-.7.6-1,.3-.3.4-.5.2-.2.3-.2l.1-.1c.1,0,.1-.1.2-.1h.3a3.38,3.38,0,0,1,.6,1.2,5,5,0,0,1,.2,1.2,2,2,0,0,1-.3,1.1l-.2.3-.2.3c-.1.2-.2.3-.3.5a13.73,13.73,0,0,1-1.3,2c-.2.3-.5.6-.8,1l-.2.2c-.1.1-.1.2-.2.2s-.2.2-.3.2a.75.75,0,0,1-.5.1Z"/><path class="cls-1" d="M125.31,70.88a11.76,11.76,0,0,0,1-3c.2-1,.4-2,.5-3v-2.4c0-.3.1-.5.1-.8s.1-.5.2-.8.2-.5.3-.8a3,3,0,0,1,.4-.8,3.51,3.51,0,0,1,.5-.8h.3a6,6,0,0,1,.8,1.6c.1.3.1.5.2.8s.1.5.1.8v.8a2.35,2.35,0,0,1-.2.8c-.1.3-.2.5-.3.8s-.2.5-.3.8a20.45,20.45,0,0,1-1.3,3.1,14,14,0,0,1-2.1,2.7Z"/><path class="cls-1" d="M124.21,68.18a13,13,0,0,0,.7-3.3,17.09,17.09,0,0,0,0-3.2c0-.3-.1-.5-.1-.8l-.2-.8c-.1-.3-.1-.5-.2-.8s-.1-.5-.1-.8v-.8a2,2,0,0,1,.1-.8c0-.3.1-.6.1-.9s.1-.6.2-.9l.3-.1a4.62,4.62,0,0,1,.7.7c.2.3.4.5.6.8a3,3,0,0,1,.4.8,6.89,6.89,0,0,0,.3.8c.1.3.1.6.2.9v.9c0,.3-.1.6-.1.9s-.1.6-.1.9a13,13,0,0,1-.8,3.4,9.68,9.68,0,0,1-1.8,3.1Z"/><path class="cls-1" d="M113.11,62.58l.9-.6c.3-.2.7-.3,1-.5s.7-.2,1.1-.3a4.33,4.33,0,0,0,.5-.1c.2,0,.4-.1.6-.1a14.6,14.6,0,0,1,4.2.1,16.37,16.37,0,0,1,3.8,1,.76.76,0,0,1,.4.2c.1.1.3.1.4.2.3.1.6.3.9.4a4.05,4.05,0,0,1,.9.5,4.7,4.7,0,0,1,.9.6v.2h-1l-1-.1-1-.1-1-.1-3.9-.6a25.79,25.79,0,0,0-3.9-.4h-3l-1,.1Z"/><path class="cls-1" d="M123.71,62.58a25.82,25.82,0,0,1-4.2-1c-1.4-.4-2.7-.9-4-1.4-.6-.2-1.3-.4-2-.6s-1.3-.4-1.9-.6-1.2-.5-1.8-.7-1.2-.5-1.9-.8v-.2a6.2,6.2,0,0,1,2.3-.4,16.41,16.41,0,0,1,2.3.2,6.49,6.49,0,0,1,2.1.7c.6.3,1.2.7,1.9,1,1.2.6,2.4,1.3,3.6,1.9s2.4,1.2,3.7,1.7Z"/><path class="cls-1" d="M103,60.88a36.85,36.85,0,0,1,5.8-.4c1.9-.1,3.9,0,5.8,0h2.9c.5,0,1,.1,1.4.1s.9.1,1.4.2a28.64,28.64,0,0,1,2.8.7c.9.3,1.8.6,2.7,1v.2c-1,.2-2,.2-3,.3h-2.9l-2.8-.3-1.4-.3a6.75,6.75,0,0,0-1.4-.2c-1.9-.3-3.7-.5-5.6-.7s-3.8-.3-5.7-.4Z"/><path class="cls-1" d="M143.11,63.88a8.08,8.08,0,0,0,0-3.1,12.53,12.53,0,0,0-1.8-4.3,9.14,9.14,0,0,1-.7-1.4,8.33,8.33,0,0,1-.4-1.5,4.73,4.73,0,0,1-.1-1.7l.3-.1A6.7,6.7,0,0,1,142,53a5.26,5.26,0,0,1,1.2,1.4,5.07,5.07,0,0,1,.7,1.5,9.36,9.36,0,0,0,.4,1.6,12.22,12.22,0,0,1,.2,3.3,7.65,7.65,0,0,1-1.1,3.2Z"/><path class="cls-1" d="M149.21,62.08a21,21,0,0,1-2.6-3.3,25,25,0,0,1-2.1-3.5,4.05,4.05,0,0,0-.5-.9l-.5-.9a3.18,3.18,0,0,1-.3-.9c-.1-.3-.1-.6-.2-1a3.4,3.4,0,0,0-.1-1,3.4,3.4,0,0,1,.1-1,3.55,3.55,0,0,1,.2-1,4.18,4.18,0,0,1,.4-1h.3l.6.9c.2.3.3.6.5.9a3.55,3.55,0,0,1,.4.9c.1.3.3.6.4.9l.3.9c.1.3.1.6.2.9l.2.9c.1.3.1.6.2.9.3,1.2.8,2.4,1.2,3.6s1,2.4,1.6,3.6Z"/><path class="cls-1" d="M144.61,64.88c-.5-1.5-.9-2.9-1.3-4.4s-.8-2.9-1.1-4.4c-.2-.7-.4-1.5-.6-2.2a4.25,4.25,0,0,1-.2-1.1,4.1,4.1,0,0,1-.1-1.1,17.7,17.7,0,0,1,.1-2.3,6.54,6.54,0,0,1,.6-2.3h.3a6,6,0,0,1,.6,1.1c.2.4.3.7.5,1.1a18.66,18.66,0,0,1,.7,2.2,8.33,8.33,0,0,1,.3,2.2,16.2,16.2,0,0,0,.1,2.2l.3,4.5c.1,1.5.2,3,.2,4.5Z"/><path class="cls-1" d="M151,55.28c-.9-1.1-1.8-2.1-2.6-3.2s-1.7-2.2-2.4-3.3l-.6-.9-.3-.4-.3-.4c-.2-.3-.3-.6-.5-.9s-.2-.6-.3-1-.1-.6-.2-1v-1a4.77,4.77,0,0,1,.4-2h.3c.3.3.4.6.7.9l.6.9c.1.1.2.3.3.4a.76.76,0,0,1,.2.4,2.18,2.18,0,0,0,.5.8,12.2,12.2,0,0,1,.7,1.7l.6,1.8c.5,1.2,1.1,2.4,1.6,3.5s1.1,2.4,1.6,3.6Z"/><path class="cls-1" d="M134.51,70.08a47.76,47.76,0,0,0,.6-5.3l.1-1.3v-3.9a5.7,5.7,0,0,0-.1-1.3L135,57a5.7,5.7,0,0,1-.1-1.3V53a5.7,5.7,0,0,1,.1-1.3c0-.4.1-.9.1-1.3s.1-.9.2-1.4h.3a5.39,5.39,0,0,1,.7,1.3,6.94,6.94,0,0,1,.5,1.3,6.47,6.47,0,0,1,.4,1.3,6.37,6.37,0,0,1,.2.7l.1.7a5.7,5.7,0,0,1,.1,1.3v1.3l-.1,1.3c-.1.4-.1.9-.2,1.3l-.2,1.3-.2,1.3-.3,1.3-.3,1.3a52.51,52.51,0,0,1-1.7,5.2Z"/><path class="cls-1" d="M137.71,69c.3-1.1.5-2.1.7-3.2s.4-2.1.5-3.2a2.2,2.2,0,0,1,.1-.8V61a2.2,2.2,0,0,1,.1-.8,2.35,2.35,0,0,1,.2-.8,2.35,2.35,0,0,0,.2-.8c.1-.3.2-.5.3-.8a3,3,0,0,1,.4-.8,3.51,3.51,0,0,1,.5-.8h.3a5.58,5.58,0,0,0,.5.8,6.89,6.89,0,0,0,.3.8c.1.3.1.6.2.8s.1.6.1.8a2,2,0,0,1-.1.8,1.88,1.88,0,0,1-.2.8l-.3.8c-.1.3-.2.5-.3.8-.4,1.1-.8,2.1-1.3,3.2a23.81,23.81,0,0,1-1.8,3Z"/><path class="cls-1" d="M134,62.68c1.4-.5,2.8-.9,4.2-1.4s2.7-1,4-1.5a16.18,16.18,0,0,0,1.8-1c.6-.3,1.1-.6,1.7-.9l1.8-.9c.6-.3,1.3-.6,2-.9l.2.1a3.7,3.7,0,0,1-.8,1.8,5.36,5.36,0,0,1-1.5,1.5,12.81,12.81,0,0,1-2,1.1,18.66,18.66,0,0,1-2.2.7,36.32,36.32,0,0,1-4.5,1l-4.6.6Z"/><path class="cls-1" d="M150.51,43.58a51.7,51.7,0,0,1-5.9,6.6l-1.7,1.5-1.8,1.5-1.9,1.4-1.9,1.4c-.7.4-1.3.9-2,1.3l-2,1.3-2.1,1.2a16,16,0,0,1-2.3,1l-1.2.4c-.4.1-.8.3-1.2.4-.8.3-1.6.5-2.4.8l-2.5.6a5.85,5.85,0,0,1-1.3.2l-.6.1c-.2,0-.4.1-.7.1l-.1-.2a2.19,2.19,0,0,0,.5-.3l.5-.3a5.36,5.36,0,0,1,1.1-.5c.7-.4,1.4-.7,2.2-1.1s1.4-.7,2.1-1.1a5.36,5.36,0,0,1,1.1-.5l1.1-.5c.7-.4,1.4-.7,2.1-1.1a20,20,0,0,1,2.1-1l2.1-1.1a21.16,21.16,0,0,1,2.1-1.1l2-1.2,1.9-1.3,1.9-1.3,1.8-1.4a77.29,77.29,0,0,0,6.7-6Z"/><path class="cls-1" d="M128.61,70.38c.1-.7.2-1.3.3-2a12.75,12.75,0,0,0,.1-1.9V66l-.1-.5a2.77,2.77,0,0,1,.1-.9c.1-.2.1-.3.2-.5s.2-.3.3-.5a1.76,1.76,0,0,1,.4-.5c.1-.1.1-.2.2-.2l.1-.1.1-.1h.3a.1.1,0,0,1,.1.1l.1.1c.1.1.2.2.2.3s.2.3.3.5.2.3.2.5a1.09,1.09,0,0,1,.1.5v.5c0,.2-.1.3-.1.5s-.2.3-.2.5-.2.3-.2.5a11.4,11.4,0,0,1-1,1.9,20.28,20.28,0,0,1-1.3,1.8Z"/><path class="cls-1" d="M131.51,62.48a6.8,6.8,0,0,1,.2,2,6.45,6.45,0,0,1-.3,2c0,.2-.1.3-.1.5s-.1.3-.1.5-.1.3-.2.5-.2.3-.3.5l-.4.4a1.76,1.76,0,0,0-.5.4l-.6.3c-.1,0-.2.1-.4.1l-.2.1h-.2l-.2-.1v-1.2a.9.9,0,0,1,.1-.5c0-.2.1-.3.1-.5a.76.76,0,0,1,.2-.4c.1-.1.2-.3.3-.4l.3-.4c.1-.1.2-.3.3-.4a15.06,15.06,0,0,0,1-1.7l.9-1.8Z"/><path class="cls-1" d="M4.81,48.08a.63.63,0,0,0-.6,0c-.4.5-.8,1.1-1.2,1.6.2.3.4.5.6.8a20.28,20.28,0,0,0,1.3-1.8C5,48.48,5,48.18,4.81,48.08Zm65.9-10.2c-.2-.1-.3-.1-.5.1-2.1,2.5-6.8,3.9-9.7,5.4s-5.6,2.9-8.4,4.4c-3.1,1.5-5.9,3.4-9,5a45.92,45.92,0,0,1-4.9,2.6l2-3.2c1-.6,2-1.1,3-1.7a10.42,10.42,0,0,0,1.8-1c-.3.6-.8,1.3-1.1,2-.1,0-.1.2,0,.3s.2.1.3,0a14.75,14.75,0,0,0,2.9-3.2,55.2,55.2,0,0,0,5.4-2.8c5.6-3.2,11.3-6,16.8-9.4.3-.2,0-.7-.4-.7-6.2,2-12,5.7-17.6,8.9l-2.7,1.5,1.1-2.2,1-.6a6.39,6.39,0,0,0-.8,1.9c-.1.1.2.1.1,0,.4-.8.8-1.5,1.2-2.2,4.8-2.6,9.7-5.1,14.4-7.9.3-.2,0-.6-.3-.6a66.93,66.93,0,0,0-11.9,5.4,8.34,8.34,0,0,0,.8-1.2l.3-.5,3-1.5c1.7-.9,3.3-2.2,5.1-3.1a.29.29,0,1,0-.3-.5,36.12,36.12,0,0,0-6.4,2.7,25.82,25.82,0,0,0,.8-2.6c.1-.5-.6-.5-.7-.1a16,16,0,0,1-1,3.1l-2.3,1.2c.5-1.1,1-2.4,1.6-3.5l.2-.2c0-.1.1-.2,0-.4l.4-.8c.3-.6-.8-1.2-1.1-.4l-.9,1.9a13.44,13.44,0,0,1-2.4,1.2,10.42,10.42,0,0,1,1-1.8c.4-.6-.7-1-1-.4-.5,1-1,1.9-1.5,2.9-1,.4-2.1.9-3,1.3.6-1.3,1.2-2.5,1.8-3.8a.59.59,0,1,0-1.1-.4c-.8,1.7-1.7,3.4-2.5,5.1h-.1l-3.4,1.7c.4-.8.8-1.5,1.2-2.2a34.57,34.57,0,0,1,3.1-2.2c.1,0,.2-.2.1-.4s-.2-.2-.4-.1a12.45,12.45,0,0,0-2,1,61.88,61.88,0,0,0,2.8-5.8l-1.9.8c-1,2.2-2.3,4.5-3.5,6.8a4.05,4.05,0,0,0-.9.5,25.5,25.5,0,0,1-2.9,1.3,67.33,67.33,0,0,0,3.8-7.6l-1.2.6c-1.3,2.8-2.9,5.5-4.4,8.1a2.62,2.62,0,0,0-.9.5l-1.4.8c.5-.9,1-1.9,1.5-2.9l.3-.1a.37.37,0,0,0,.2-.5c0-.1,0-.1-.2-.1.6-1.2,1.1-2.4,1.7-3.6.1-.4-.3-.6-.5-.2a23,23,0,0,1-2.3,4,44.57,44.57,0,0,0-7.8,4.1c.5-.6.9-1.2,1.4-1.7.3-.3-.1-.9-.4-.5a12.57,12.57,0,0,0-2.7,3.3c-1.7,1-3.5,2.1-5.2,3.1a.71.71,0,0,0-.3-.8c2.1-1.4,4.2-2.7,6.2-4.2.2-.1,0-.4-.2-.3-4.7,2.7-9.6,5.3-14.3,8.2a.63.63,0,0,0-.5-.6c-.2,0-.3,0-.4.2l-1.8,2.1h-.1l-.6.5a12.13,12.13,0,0,0-1.4,1c.3.4.7.9,1,1.3l1-1.3a4.35,4.35,0,0,1,.7-.4c2.4-1.6,4.8-3.1,7.3-4.7-1.2,1.1-2.4,2.4-3.5,3.6-1.1.7-2.1,1.3-3.1,2-.7.5-1.3.9-2,1.4l.9,1.2c.1,0,.1-.1.2-.1l-.1.1c.4.5.7,1,1.1,1.5.7-.4,1.3-.7,1.9-1.1.1,0,.1-.1.2-.1,3.1-1.9,6.2-3.7,9.3-5.5-.5.8-.9,1.6-1.4,2.4a62.81,62.81,0,0,1-6.9,4.5c-.6.3-1.1.6-1.7.9a.55.55,0,0,0-.3.5.71.71,0,0,0,.3.6.3.3,0,0,0,.4,0,18.65,18.65,0,0,0,2-1,54.82,54.82,0,0,0,5.2-3.1c-.2.7-.3,1.4-.5,2,0,.2.1.3.3.4a.31.31,0,0,0,.2-.1l.3-.1h.1a.45.45,0,0,0,.3.6c.1.1.2,0,.4-.1,3.1-1.4,6-3,9-4.7a15.06,15.06,0,0,0-1,1.7c-.1.2.1.5.3.3a18.1,18.1,0,0,0,2.5-3c1.6-.9,3.1-1.8,4.6-2.7-.4.9-.8,1.9-1.2,2.8a39.54,39.54,0,0,1-5.4,2.8c-.7.3-.2,1.4.5,1.1,1.5-.6,2.8-1.4,4.4-2.1-.1.2-.1.5-.2.7s.3.6.5.3c.3-.5.6-1.1.9-1.6,1.1-.6,2-1.2,3.1-1.8l-.9,1.8c-.4.2-.9.5-1.3.7s-.4.4-.2.6.4.4.6.2l.3-.1-.3.5c-.1.2.2.5.4.3a21.21,21.21,0,0,0,1.5-1.5c.7-.3,1.3-.7,2-1a10.33,10.33,0,0,0-.7,2.1c0,.1,0,.1.1.2a9.15,9.15,0,0,1-1.6.1.57.57,0,0,0-.3,1.1c1.9.6,3.8-.5,5.4-1.3,3.7-1.8,7.2-3.8,10.9-5.6a123.81,123.81,0,0,0,11.4-6c2.4-1.4,5.7-2.8,7.2-5.3C71,38.18,70.91,38,70.71,37.88Zm-24.5,9.2c-1.3.6-2.5,1.3-3.6,1.9l-.9.6,1.2-1.9,2.5-1.6,1.9-1.1C46.91,45.68,46.51,46.48,46.21,47.08Zm-6.1.8c.5-.9,1-1.9,1.5-2.7l.1-.2,2.4-1.4-1.6,2.7Zm8.3-5.3a25.94,25.94,0,0,0-3.9,2.5l1.5-2.5,3.3-1.8Zm4.9-4-.8,1.4-.2.4-1.7,1,.7-1.6.8-.5Zm-4.1-1.7c.9-.5,1.7-.9,2.6-1.4l-1.3,2.8-2.9,1.5C48.11,38.88,48.71,38,49.21,36.88Zm-4.6,2.4.6-.3a17.91,17.91,0,0,1,2.4-1.2c-.6,1.1-1.2,2-1.7,3.1l-2.6,1.4A27.11,27.11,0,0,1,44.61,39.28Zm-2.2,1.1-1.6,3.1-.9.5c-.8.4-1.7,1-2.5,1.5l1.5-3.2Zm-7,.8c1.3-.7,2.6-1.4,3.9-2.2a17.38,17.38,0,0,0-1,1.9l.2-.1c-1.4.8-2.7,1.5-4.1,2.2Zm-2.3,1.3-.1.4-.8,1.5-.3.1-2.2,1.2,1.2-1.8Zm-9.2,1.8c2.7-1.7,5.5-3.4,8.3-4.9-.7,1.1-1.3,2.2-2,3.2-2.6,1.5-5.1,3-7.6,4.4C23,46,23.51,45.18,23.91,44.28Zm4.6.8a15.06,15.06,0,0,0-1,1.7c-2,1.1-3.9,2.3-5.8,3.5l-.9.6a4.59,4.59,0,0,0,.7-1.6v-.2l.6-.3ZM10,54.58l-.1.1-.4.2.3-.3.6-.6c.1-.1.2-.1.2-.2l1-1.3,1.6-1.1c3-2.1,6-4.1,9-6.1a25.57,25.57,0,0,0-1.1,2.4l-.1.2C17.41,50.08,13.71,52.18,10,54.58Zm8.1,2.2c-.1,0-.2.2-.3.3,0-.1,0-.3-.1-.3h-.1a7.57,7.57,0,0,0,1.2-1.9c.1-.3.3-.5.4-.8s.2-.3.2-.5l1.5-1c1.7-1.1,3.4-2.2,5.2-3.2-.5,1.1-1.1,2.3-1.6,3.4-.1.1,0,.2.1.3C22.41,54.38,20.21,55.68,18.11,56.78Zm10.8-6.2h0c-1.4.8-2.6,1.5-3.9,2.3,1-1.5,1.9-2.9,2.9-4.4l2.9-1.7A33.66,33.66,0,0,1,28.91,50.58Zm2-1.2c.6-1.3,1.3-2.6,2-3.8l.8-.4a27.93,27.93,0,0,1,3.4-1.8l-1.8,3.4C33.81,47.68,32.31,48.48,30.91,49.38Zm3.5,1.7c.5-1,1-2,1.5-3.1l.1.1,3.3-1.9-1.7,3.1C36.51,49.88,35.51,50.48,34.41,51.08Zm3.4.9a19.83,19.83,0,0,1,1.1-2H39l1.9-1.2a23.92,23.92,0,0,0-1.3,2.1Z"/></g></g></svg>