<?xml version="1.0" encoding="iso-8859-1"?>
<svg xmlns="http://www.w3.org/2000/svg" viewBox="0 0 184.11 49.5"><defs><style>.cls-1{fill:#A14E31;}</style></defs><title>Asset 23</title><g id="Layer_2" data-name="Layer 2"><g id="Layer_1-2" data-name="Layer 1"><path class="cls-1" d="M182.84,23.78a11.5,11.5,0,0,0-2.1-2.3,23,23,0,0,1-3.6-5.2c-1-1.8-2-3.3-4-4-3-1.2-6.3-1-9.3-2.4-2.6-1.3-5.1-2.9-7.7-4a17.22,17.22,0,0,0-9.5-1.2,21.77,21.77,0,0,1-10.4-1.4,16.77,16.77,0,0,0-7.6-1.6c-1.9.1-3.7.7-5.6.6s-3.9-.5-5.9-.7q-6.15-.45-12.3-.3a53.63,53.63,0,0,1-12-1.1,9.92,9.92,0,0,0-4.2.1c-1.3-.1-2.7-.2-4.1-.2a15.34,15.34,0,0,0-5.2.5c-1.1.3-2.2.9-3.3,1.3-2.6.8-3.6.3-6,0-3.8-.5-7.7.2-11.5.8-2.6.4-5,1.1-7.6,1.6-3.1.6-5.8-.3-8.9-.2a27.73,27.73,0,0,0-5.6,1.1,34.93,34.93,0,0,1-6.5.6c-4.8.3-9.3,2-14.1,2.7-4,.6-7.4,1.3-10.6,3.9S1.64,18.18.84,22c-.7,3-1.6,6.7.3,9.4,1,1.5,2.4,2.1,3.7,3.2,1.8,1.5,2.1,3.1,3.4,4.8,3.1,3.9,6.3.5,10.1,2.4,1.4.7,2.3,2,3.7,2.7a12.29,12.29,0,0,0,6,1,28,28,0,0,0,5.8-.9,17,17,0,0,1,3.7-1c1.7-.1,2.2.4,3.8,1.2,3.6,1.8,6.4,2.5,10.4,1.8,2.2-.4,4.5-1.2,6.8-1.5,2.6-.2,3.8.8,5.9,1.7,4,1.6,8.4.6,12.5-.2,3.6-.7,5,1.2,8,2.1a10.24,10.24,0,0,0,6-.4,16.58,16.58,0,0,1,10.1.2,18.58,18.58,0,0,0,6.6,1c5.5-.6,9.8-3.8,15.4-2.3a10.21,10.21,0,0,0,5.2.2l1-.1c.2.1.4.1.5.2,3,.8,6.9.3,10,0A31.48,31.48,0,0,1,144,47a49.26,49.26,0,0,1,5.4.5,19.72,19.72,0,0,0,8.3-1.5c2.2-.8,3.7-1.7,6.1-1.4a16.7,16.7,0,0,0,3.8.6c2.7-.2,5.1-2.2,7.2-3.7,4.3-3.1,9.1-3.2,9.2-9.4C184.24,29.38,184,25.88,182.84,23.78Zm-4,12c-1.7,1-3.4,1.6-5.1,2.7l-2.4,1.6c-2.5,1.6-3.9,1.7-6.7,1.3-5.7-.8-10.4,3.7-16.3,2.7a24.91,24.91,0,0,0-7.7.3,1.3,1.3,0,0,0-1.2-.8,55.83,55.83,0,0,0-7.1.1c-1,.1-2,.3-3,.5a.54.54,0,0,0-.8-.2c-.1,0-.1.1-.2.1l-.3.3a10.07,10.07,0,0,1-3,.1c-1.6-.2-3-1.1-4.6-1.3a13.42,13.42,0,0,0-5.6,1.2c-4.1,1.4-7.9,2.4-12.3,1.2-4-1.1-6.7-1.9-10.9-.8-3.5.9-5.2.9-8.6-.6a12.07,12.07,0,0,0-3.8-1.2,15.57,15.57,0,0,0-4.3.8,20.75,20.75,0,0,1-8.6.2c-3.1-.8-4.2-2.9-7.6-2.3-4.4.8-9,2.9-13.3,1.4-3.2-1.1-4.6-3.3-8.2-2.8-4.3.5-8.5,3.1-12.9,1.7-3.4-1.1-4.9-3.7-8.7-3.8-.5,0-.9.3-1.4.3-3.4,0-3.3-.4-4.8-3.3a5.81,5.81,0,0,0-2.2-2.9,18.84,18.84,0,0,1-2.4-1.4c-1.8-1.7-1.4-3.8-1.3-6.1.2-1.6.5-3.2.8-4.8.6-3,1.1-4.6,3.7-6.4a16.82,16.82,0,0,1,6.8-2.4l5.6-.9c2.2-.4,4.3-1.4,6.5-1.7,4-.5,7.7-.6,11.7-1.6,4.7-1.2,9.2.2,13.9-.8,5.2-1,10.6-2.7,15.9-2.4,1.9.1,3.9,1,5.9.8,2.2-.3,4.2-1.9,6.3-2.6.5-.1,1-.3,1.5-.4a.93.93,0,0,0,.2,1.2.6.6,0,0,0,.4.1c2.1.3,3.8-.3,5.8-.7,3-.5,6.7.7,9.8.9,5.5.3,11,.3,16.5.6,2.9.2,5.7.9,8.6.9s5.4-1.1,8.3-.5c2.5.5,4.8,1.9,7.3,2.5a20.67,20.67,0,0,0,7,.4c3-.3,5.4-.5,8.3.6a71.57,71.57,0,0,1,7.8,4,26.1,26.1,0,0,0,6.7,2.1,13.67,13.67,0,0,1,4,.9c1.4.9,2.2,3,3,4.4,1.2,2.1,2.9,3.5,4.2,5.4a8.32,8.32,0,0,1,1.3,4.3c.2,3.3.3,5.5-2.5,7.1Z"/><path class="cls-1" d="M48.64,33.68a11,11,0,0,0-3.6-.3c-.9.1-2.2.6-3.1.3-1.3-.3-2.4-1.8-3.4-2.3-1.8-.9-2.5,0-4.3.6a6.72,6.72,0,0,1-2.4.4c-4.5-.7-1.4-1.1-2.6-2.4a4,4,0,0,0-1.3-1.3c-1.4-.6-2.5.6-3.8.5l-3.6-1.9v-.9c-.2-.6,0-1-.3-1.6a1.21,1.21,0,0,0-1-.8c-1.2-.1-2,.5-3.1.9-.8.3-1.8,1.1-2.8.8l-1.6-2.6a5.52,5.52,0,0,1,2.5-3.5c.4-.3.2-1.1-.4-.9-3.4,1.3-6.5,7.6-1.4,8.7a6,6,0,0,0,3.5-.4c1.1-.4,1.5-1.2,2.2.1.5,1-.1,2.2.7,3.3a3.66,3.66,0,0,0,3,1.6c1.2.1,3-1,4-.7,1.3.3,1.1,1.5,2.1,2.5,1.8,1.7,4.8,1.3,6.9.7a11.25,11.25,0,0,0,2.1-1.2,7,7,0,0,0,2.2,2c2.7,1.3,6.6.2,9.4-.3C49.44,35.08,49.34,33.78,48.64,33.68Z"/><path class="cls-1" d="M51.84,27.18c-1.8.3-4,1.9-5.9.5a11.4,11.4,0,0,0-1-1.9,1,1,0,0,0-1-.3c-1.4.2-2.2,1.3-3.6,1.7a2.83,2.83,0,0,1-3.2-1.6,14.91,14.91,0,0,1-.4-1.8,1.11,1.11,0,0,0-1.3-.8,32,32,0,0,1-3.8,1.4l-1.5-3a3.92,3.92,0,0,1,2.1-2.1.5.5,0,0,0-.2-.9c-2.5.1-5,3.5-4.3,5.9,1,3.3,4.8,2,7.3,1.1.2,1.5-.1,3,1.7,4,2.1,1.1,3.7-.1,5.5-.8,2.3-.9,1.6.7,3.3,1.7,2.3,1.3,5.1-.4,6.8-1.7a.7.7,0,0,0,.4-1C52.74,27.28,52.24,27.08,51.84,27.18Z"/><path class="cls-1" d="M103.74,35.08a.68.68,0,0,0-.8-.4c-.2,0-.3.1-.4.3-2.3,3.7-4.6,1.7-7.6.6a3.4,3.4,0,0,0-2-.3c-2.1.5-3.4,3.2-5.7.7a9.41,9.41,0,0,1-1.2-2.2,1,1,0,0,0-1.4-.3c-.1,0-.1.1-.2.1a10.63,10.63,0,0,0-.9,1.1c-1.5,1.7-3,5.5-6.6.8-.6-.8-.7-2-1.3-2.9a1,1,0,0,0-1.3-.3c-.9.5-1.5,1.3-2.4,1.9-1.2.8-.4,1.2-2.4.5s-1.6-1.3-1.3-3.2a.41.41,0,0,0-.8-.2c-.8,2.1-1.8,5.7,1,6.7,2.6.9,4.2-2,6-3.5.9,2.1,1.3,4.3,4.1,4.9a6.76,6.76,0,0,0,4.6-.9,4.47,4.47,0,0,0,1.6-2,6,6,0,0,0,1.6,2.5c2.9,2.3,4.5-.7,7-.9,1.3-.1,2,1.1,3.3,1.6a6.49,6.49,0,0,0,3.9,0C102.74,38.88,104.34,37.28,103.74,35.08Z"/><path class="cls-1" d="M128.54,21.18c-5.3,2.9-11.1,6.9-17,8.4a6.76,6.76,0,0,0,1.8-3.8.43.43,0,0,0-.4-.4c-.1,0-.1,0-.2.1-1.3,1-2.9,3.3-4.5,3.8-2.1.7-2.4-1.7-4-2.2-1.1-.3-1.7.3-2.4,1-.4.4-.7,1.4-1.3,1.7-2.9,1.4-3-1.4-3-2.8a.56.56,0,0,0-.6-.5c-.2,0-.4.2-.5.5,0,1.7-.2,4.2,1.5,5.2,2.2,1.3,3.4-.9,4.9-1.9,1.8-1.3,3.3,2,5.7,1.3a6.14,6.14,0,0,0,2.6-1.5h.1c6.4-.6,12.4-4.9,17.9-7.8C129.84,21.88,129.24,20.78,128.54,21.18Z"/><path class="cls-1" d="M155,30.88c-1.4.8-1.6,2.7-3.1,3.2-1.7.6-2.1-1.2-3.5-1.6a1.68,1.68,0,0,0-1.9.4c-.5.4-.7,1-1.1,1.4-2,2-4,1.3-5.9-.4a.78.78,0,0,0-1,.2.61.61,0,0,0,0,.8c1.3,1.5,2.6,3.2,4.9,2.8a6.6,6.6,0,0,0,2.7-1.2c.9-.7,1.1-1.9,2.1-1.6.8.2,1.3,1.5,2.2,1.8a3,3,0,0,0,2.3-.2c2.3-.9,2.9-2.7,3.4-4.8a.78.78,0,0,0-.6-.9A1.09,1.09,0,0,0,155,30.88Z"/><path class="cls-1" d="M170.84,22.08c-.9.4-1.7.8-2.5,1.2a28.26,28.26,0,0,0-2.9-.2c1.1-.7,2.3-1.3,3.4-2a.65.65,0,0,0,.2-.9.54.54,0,0,0-.8-.2c-1.9,1.1-3.8,2.1-5.7,3.1h-2.3c.9-.6,1.9-1.2,2.8-1.9l2-.3c.2-.1.3-.2.2-.4a.22.22,0,0,0-.2-.2l-.6-.1,1-.8c.6-.5-.3-1.4-.9-.9s-1.1.9-1.8,1.4a35.53,35.53,0,0,0-4.6-.3l2.3-1.7a6,6,0,0,1,2.3.2c.2.1.5.1.6-.1s.1-.4-.1-.5c-1.2-1.3-3.9-1.5-6.4-1.3a.61.61,0,0,0-.8,0h0l-.1.1c-1.4.1-2.8.3-3.7.3-7,0-13.8.9-20.8,1,.5-.3.9-.6,1.4-.9,2.7-.1,5.3-.3,8-.5,6.3-.5,12.8.2,19-.9.2-.1.2-.2.2-.4a.22.22,0,0,0-.2-.2c-7.5-1.4-15.2-.9-22.9-.2.9-.5,1.8-.9,2.7-1.4,2.4-.3,5.3-.2,7.2-1.5a.34.34,0,0,0-.3-.6,20.88,20.88,0,0,1-5,.8,9,9,0,0,0,1-.9c.5-.5-.3-1.2-.7-.7a11.78,11.78,0,0,1-2.2,1.7,16.59,16.59,0,0,0-2.4.2l-3.1.4c1.3-.9,2.6-1.8,3.9-2.6.6-.4,0-1.4-.6-1-2,1.3-3.9,2.6-5.9,3.9l-3.6.3-1.8.1,1-.5a19,19,0,0,0,3.4-2,11.17,11.17,0,0,0,4.8-1c.2-.1.2-.4.1-.6a.76.76,0,0,0-.4-.2,20,20,0,0,1-2.4.4L133,9a.75.75,0,0,0,0-.9.66.66,0,0,0-.6-.1,16.45,16.45,0,0,0-2.2,1.4c-1.4,0-2.8,0-4.1.1l-4.8.6a11.9,11.9,0,0,0,1.9-2l1.4-.2a.3.3,0,1,0,0-.6h0l-.9-.1c0-.1.1-.1.1-.2.3-.6-.6-1.1-.9-.5-.2.2-.3.5-.5.7a41.67,41.67,0,0,0-7.1.7,16.61,16.61,0,0,0,1.4-1.3c.1-.2.1-.4-.1-.5a.45.45,0,0,0-.5,0,25.38,25.38,0,0,1-3.4,2.3c-1.5.3-2.9.5-4.3.8-1.9.3-3.8.7-5.7,1.1,1.1-.7,2.1-1.3,3.2-2.1,1.6-.3,3.2-.5,4.8-.7a.3.3,0,1,0,0-.6c-1-.1-2-.1-3-.1l.6-.5c.6-.5-.3-1.4-.9-.9s-1.3,1-1.9,1.5a63.74,63.74,0,0,0-7.4,1.3,10.84,10.84,0,0,0,3-2.6.22.22,0,0,0-.3-.3,57.36,57.36,0,0,1-5.3,3.2,8.8,8.8,0,0,0-1,.6c-2,.5-4.1.9-6.1,1.2a59.59,59.59,0,0,0,6.5-4.7c.6-.5-.3-1.3-.9-.9-4.6,3.7-10,6.3-14.9,9.5-.4.2-.1.9.3.8a47.59,47.59,0,0,0,8.4-4.3c-.1.3.1.8.5.7,1.1-.1,2.2-.3,3.3-.4-.8.5-1.7.9-2.5,1.3-.1,0-.2.2-.2.3s.2.2.3.2a12.77,12.77,0,0,0,4.9-2.2c2.9-.5,5.8-1.2,8.7-1.8-.7.4-1.5.9-2.2,1.4-.5.3-.9.6-1.4.9-2.3.5-4.6,1.1-6.9,1.6-.2,0-.2.4.1.4l4.7-.6a11.8,11.8,0,0,1-4,1.7c-.2,0-.3.2-.3.4s.2.3.4.3c2.7-.1,4.8-1.5,6.9-2.9l8.5-1.5-2.6,1.2c-1.3.6-2.6,1.3-4,1.8a31.09,31.09,0,0,1-4.4.6.45.45,0,0,0,0,.9h.8l-.2.2a.32.32,0,0,0,.4.5,14.6,14.6,0,0,1,3.4-1c4.4-.5,8.7-1.4,13-2.1a29.55,29.55,0,0,1-3.8,2.3l-3.4.3c-.6,0-.7,1.1,0,1l.9-.1a.27.27,0,0,0,.3.3h0a8,8,0,0,0,2.1-.5c5.9-.5,11.9-1.3,17.8-1.8-.3.2-.5.3-.8.5a10.9,10.9,0,0,1-1.1.6l-6.1.3a.6.6,0,1,0,0,1.2,26.21,26.21,0,0,1,2.8.1,8.52,8.52,0,0,0-2.5,1.7.21.21,0,1,0,.3.3,12,12,0,0,1,4.1-2c1.8,0,3.5,0,5.3-.1a19.09,19.09,0,0,1-5.9,2.9c-.2,0-.2.3,0,.4,1.9.3,3.8-.7,5.5-1.8a.73.73,0,0,0,.6.7h.1c4,0,8-.3,12-.4-.1,0-.1.1-.2.1-2.9,2.7-6.4,4.3-9.7,6.5s-6.6,4.6-10.4,5.7c-.2.1-.2.4.1.4,3.7-.4,7.3-2.6,10.4-4.5,2.7-1.7,5.5-3.2,8.1-5a.37.37,0,0,0,.3.1,47,47,0,0,0,6.5-.1c-1.8,1-3.5,1.9-5.2,2.7-4.2,2.1-10.1,5.4-14.8,5.9a.3.3,0,1,0,0,.6,12.7,12.7,0,0,0,5.4-.8h0c.4,3.3-2.5,7-5.9,4.5-1-.7-1.5-2-2.9-2.3s-1.8.6-2.8,1.2c-3.3,1.6-2.9-.5-5.3-1.4a1,1,0,0,0-1,.3c-1.1,1-2.1,2.9-3.6,2.2-1-.5-1.6-1.8-2.2-2.7-.4-.5-1.2-.1-.9.5,1.6,2.7,2.1,6.6,5.9,3.6,1.9-1.4.7-1.4,2.3-.6.5.3.8.9,1.4,1.1,1.7.8,2.6.1,4-.7s1.3-1.2,2.8-.2c.9.6,1.1,1.1,2.1,1.6a6.21,6.21,0,0,0,5-.2c2.8-1.3,4.9-5.2,2.3-7.6,2.7-1.1,5.4-2.5,7.5-3.6,2.7-1.3,5.6-2.8,8.4-4.5h3.5l-3.6,2.3c-3.1,2-7.1,2.9-10,5.4-.2.1,0,.4.2.3,3.5-2,7.3-2.9,10.7-5.2l.6-.4c.1.1.2.2.3.2a28.86,28.86,0,0,0,2.9.4c-3.3,1.7-6.1,4-9.8,5.1-.2.1-.2.4.1.4,4.3-.4,7.8-3.1,11.5-5l.6-.3c.7,0,1.4.1,2.1.1l-.1.1c-2.4,1.5-5.9,2.6-7.7,4.6a.3.3,0,0,0,0,.4.19.19,0,0,0,.3,0c3.5-1.6,6.9-3.3,10.3-5.2,1.1,0,2.3,0,3.4-.1l-.3.2c-2.1,1-4.1,2.9-6.3,3.4-.1,0-.2.2-.2.3s.1.2.3.2c1.8-.1,3.4-1.3,4.9-2.1a31.33,31.33,0,0,0,3.2-1.5,10,10,0,0,0,1.4-.8l.8-.1c.2,0,.3-.3.2-.5a3.7,3.7,0,0,1,1.1-.5C171.74,22.88,171.44,21.78,170.84,22.08Zm-63.9-9.7,1.3-.6a41.11,41.11,0,0,0,4.2-2.1c2.9-.5,5.8-1,8.8-1.5a18.6,18.6,0,0,1-2.8,2.1l-2.1.3c-3.2.4-6.3,1.1-9.4,1.8Zm7.1,2.1c1-.6,2-1.2,2.9-1.8L118,12h.4l9.1-1.2a27.73,27.73,0,0,1-4.8,2.6c-2.9.2-5.8.7-8.7,1.1Zm15.5.5a17.4,17.4,0,0,0,1.8-1.1c1.7-.2,3.4-.3,5-.6a19.65,19.65,0,0,0-2.5,1.3Zm21.2,4.8c-2.8.2-5.6.5-8.3.5a5.24,5.24,0,0,0,1.1-1,.56.56,0,0,0,0-.9c-.1-.1-.2-.1-.3-.2,1.9-.1,3.8-.1,5.6-.1h4.1a9.24,9.24,0,0,1-2.2,1.7Zm2.5-.1c.6-.5,1.3-.9,1.9-1.4a16.21,16.21,0,0,0,2.2-.1,10,10,0,0,0,1.6-.2c-.7.5-1.3,1-2,1.5-1.2,0-2.5.1-3.7.2Zm4.3,3.4c-1.4,0-2.9,0-4.3-.1.8-.5,1.5-1,2.3-1.6,1.6,0,3.3.1,4.9,0-1,.6-2,1.2-2.9,1.7Z"/><path class="cls-1" d="M133.74,19.68c-2.4,2.4-5.4,3.8-8.2,5.8s-6.8,4.8-10.2,5.1a.2.2,0,0,0,0,.4c3.3.1,7.1-2.1,9.8-3.8,3.2-2,6.7-3.9,9.4-6.5C135.14,20,134.24,19.18,133.74,19.68Z"/><path class="cls-1" d="M118.84,23.38a32.94,32.94,0,0,1-3.9,1.7c-.2,0-.3.2-.2.4s.2.2.3.2c1.5,0,2.9-1,4.2-1.5a.45.45,0,0,0-.4-.8Z"/><path class="cls-1" d="M89,23.48c-2.3.8-4.4,2.8-6.7,3.9-2.9,1.3-6.1,3.3-9.3,4a.26.26,0,0,0,.1.5c2.8.4,5.9-1.8,8.3-2.9,2.9-1.3,5.2-3.2,7.8-4.9A.32.32,0,1,0,89,23.48Z"/><path class="cls-1" d="M83.54,22c-3.1,1.9-6.5,3.4-9.6,5.2-.4.2-.1.8.3.7a66,66,0,0,0,10.1-4.7.81.81,0,0,0,.3-.9A.91.91,0,0,0,83.54,22Z"/><path class="cls-1" d="M76,23.08a11.78,11.78,0,0,0-3.9,1.9c-.6.4-1.1.8-1.6,1.2-.7.4-1.6.7-2.3,1.1-.2.1-.2.3-.1.5s.2.2.4.1a11.66,11.66,0,0,0,3.6-1.6,37,37,0,0,1,4.3-2.5.37.37,0,0,0,.2-.5C76.44,23.08,76.14,23,76,23.08Z"/><path class="cls-1" d="M86.44,4.48c-2.2,1.5-4.1,3.4-6.4,4.7-1,.5-2,1-2.9,1.5-1.1.8-1.8,1.8-3.1,2.2-.2,0-.3.2-.3.4s.2.3.4.3c2.1-.1,3.7-2,5.6-2.9,2.8-1.4,4.8-3.5,7.4-5.2C87.64,5.08,87,4.08,86.44,4.48Z"/><path class="cls-1" d="M77.84,6.08c-3.3,2.3-6.7,4.6-10.1,6.8a.34.34,0,0,0,.3.6,52.86,52.86,0,0,0,10.4-6.4C79,6.68,78.44,5.68,77.84,6.08Z"/><path class="cls-1" d="M67.94,8.58c-1.1.9-2.3,1.7-3.4,2.5a16.65,16.65,0,0,1-2.8,1.8c-.1.1-.2.2-.2.3v.3a.32.32,0,0,0,.3.3c.1,0,.2-.1.3-.2v-.1a6.1,6.1,0,0,0,3-1.5c1.3-.9,2.6-1.6,3.8-2.6C69.44,9,68.64,8.08,67.94,8.58Z"/><path class="cls-1" d="M57.54,10.08a17.48,17.48,0,0,1-2.9,1.8,19.52,19.52,0,0,0-2.3,1.7c-1.1.7-3.1,1-3.5,2.5-.1.2.1.4.3.5a.6.6,0,0,0,.4-.1,9,9,0,0,1,2.4-1.2,8.27,8.27,0,0,0,2.3-1.5c1.3-1.1,3-1.7,4-3.2C58.34,10.18,57.84,9.78,57.54,10.08Z"/><path class="cls-1" d="M48.94,12.68c-1,.4-3.3.8-3,2.3a.49.49,0,0,0,.6.3c.1,0,.2-.1.3-.2.5-.8,1.8-.9,2.6-1.3a.63.63,0,0,0,.4-.8.66.66,0,0,0-.9-.3Z"/><path class="cls-1" d="M53.34,33.18a4.7,4.7,0,0,0-.8,2.6,5.19,5.19,0,0,0,.3,3,.55.55,0,0,0,.8.2l.2-.2c.2-.1.2-.3.1-.5a4.09,4.09,0,0,1-.3-2.2c0-.6-.1-1.7.3-2.1a.61.61,0,0,0,0-.8c0-.2-.4-.2-.6,0Z"/><path class="cls-1" d="M56.24,36.58a1.4,1.4,0,0,1-.3-.9c0-.2.1-.3.1-.5a1.7,1.7,0,0,1,.1-.7,2.76,2.76,0,0,0-.3-2.2c-.5-.6-1.6.2-1.1.9.2.2,0,.7,0,1a7.57,7.57,0,0,0-.1,1.5c.1.7.4,1.7,1.5,1.5.2-.1.3-.3.1-.6Z"/><path class="cls-1" d="M59.74,34.88a.7.7,0,1,0-1.4,0,2,2,0,0,1-.2,1.1c-.1.4-.3.8-.1,1.2a.54.54,0,0,0,.8.2c.4-.2.5-.8.6-1.2A3.08,3.08,0,0,0,59.74,34.88Z"/><path class="cls-1" d="M163.94,32.58a12.09,12.09,0,0,1-.5,1.8v-.8c0-.4-.4-.6-.8-.6a.65.65,0,0,0-.6.6,7.68,7.68,0,0,1-1,4.5c-.6.9.8,1.8,1.5.9a4.17,4.17,0,0,0,.8-1.8,1.2,1.2,0,0,0,.5.5h0c.1,0,.2.1.3.1a.66.66,0,0,0,.8-.5v-.5a1.48,1.48,0,0,0,.1-.7,5,5,0,0,1,.2-1.2,17.42,17.42,0,0,0,.5-2.2C165.84,31.78,164.14,31.58,163.94,32.58Z"/><path class="cls-1" d="M163.84,37.78Z"/><path class="cls-1" d="M167.84,32.78a.8.8,0,0,0-1,.6l-.6,1.5c-.2.5-.3,1.4.3,1.7a.62.62,0,0,0,.7-.1c.2-.2.2-.4.3-.7a2.19,2.19,0,0,1,.3-.5,3.51,3.51,0,0,0,.6-1.4A.91.91,0,0,0,167.84,32.78Z"/><path class="cls-1" d="M171.44,35.28v-.8a14.16,14.16,0,0,0-.4-2c-.2-1.3-2.2-.7-2,.5a14.62,14.62,0,0,1,.5,2,2.62,2.62,0,0,0,.5,1.9.75.75,0,0,0,.8.1A1.43,1.43,0,0,0,171.44,35.28Z"/><path class="cls-1" d="M50.94,18.48c-.9,1.3-1.8,2.6-2.8,3.8a6.88,6.88,0,0,1-1.1,1.3c-.1.1-.2.1-.4.2l-.3.1A.8.8,0,0,0,46,25l.1.1c1.1,1,2.3-.5,3-1.4a35.84,35.84,0,0,0,3.1-4.5.8.8,0,0,0-.3-1.1.91.91,0,0,0-1,.4Z"/><path class="cls-1" d="M46.54,23.88Z"/><path class="cls-1" d="M45,19.48Z"/><path class="cls-1" d="M45,19.48"/><path class="cls-1" d="M48.14,18.08a6.51,6.51,0,0,0-2.3,1.5,1,1,0,0,0-.7-.2l-.2.1c-.1,0-.2.1-.3.1a.76.76,0,0,1-.4.2,5.5,5.5,0,0,0-.9.7,2.41,2.41,0,0,0-.6.8,1.23,1.23,0,0,0,.1,1.3.67.67,0,0,0,1,0h0l.3-.3.1-.1.2-.3a.66.66,0,0,0,.9.3h0a2.34,2.34,0,0,0,.7-.7,3,3,0,0,1,.8-.8,7.61,7.61,0,0,1,1.9-1.2C49.64,19.18,49,17.78,48.14,18.08Z"/><path class="cls-1" d="M35.74,15.78a8,8,0,0,0-1.7,1.5l-.8.8a2.34,2.34,0,0,0-.7.7.3.3,0,0,0,0,.4c.6.5,1.6.1,2.1-.3a13.72,13.72,0,0,1,1.8-1.6.81.81,0,0,0,.2-1.1C36.44,15.78,36,15.58,35.74,15.78Z"/></g></g></svg>