<?xml version="1.0" encoding="iso-8859-1"?>
<svg xmlns="http://www.w3.org/2000/svg" viewBox="0 0 175.54 53.23"><defs><style>.cls-1{fill:#7aac15;}</style></defs><title>Asset 19</title><g id="Layer_2" data-name="Layer 2"><g id="Layer_1-2" data-name="Layer 1"><path class="cls-1" d="M79.39,13.41Z"/><path class="cls-1" d="M160.39,30.91c-1.5,1-3,1.9-4.6,2.8l-.7.4c1.8-1.2,3.6-2.6,5.4-3.6.2-.1.2-.3.1-.5s-.2-.2-.3-.2c-1.8-.1-3.1,1.3-4.6,2.2-.5.3-5.8,3.2-5.8,3.2a.45.45,0,0,0-.5,0,.35.35,0,0,0-.1.2l-.1.3a.44.44,0,0,0,.4.6h.2a7.49,7.49,0,0,0,1.6-.4c0,.1.1.1.1.2,1.4.4,2.7-.3,3.9-.9a61.55,61.55,0,0,0,5.5-3.3C161.69,31.51,161.09,30.41,160.39,30.91Z"/><path class="cls-1" d="M173.39,17.61h0c-.5-3.7-3.9-6.9-6.6-9a41.41,41.41,0,0,0-19.5-8.3,42.14,42.14,0,0,0-9.4-.1c-4.1.5-8.1,2.8-12.2,2.8-3.3,0-5.9-2.3-9.1-2.7-4-.5-8,.9-11.8,1.8A18.08,18.08,0,0,1,94,1.51c-2.9-1-5.6-1.7-8.8-1.1a35.31,35.31,0,0,0-8.9,3.3c-3.5,1.8-8.5,4.8-12.5,3.5-2.8-.9-4.3-1.4-7.2-.9-3.5.5-7,1.2-10.5,2a24.62,24.62,0,0,0-8.6,3.8c-3.3,2.4-6.2,6-10.6,5.1-2.7-.5-4.3-.9-7,.3a73.21,73.21,0,0,0-8.6,4.9,24.09,24.09,0,0,1-8.1,3.4c-1.2.3-2.8.4-3.1,1.9-1,4.7,7.1,3.9,9.3,3.9,4,.1,6.1.9,8.9,3.9a12.46,12.46,0,0,0,5.9,3.6,84.67,84.67,0,0,0,8.6,2.5c4.3.7,8.5,1.1,12.7,2.4a30.25,30.25,0,0,0,9.4,1.9c4.6,0,8.5-.6,12.4,2.2,5.6,4,11.8,3.1,18.2,2.1,2.8-.5,5-.7,7.7.3a42.19,42.19,0,0,0,4.5,1.8,17.3,17.3,0,0,0,9.3.5c4.3-1,8.4-3.1,12.7-3.5,4.1-.4,8.2.6,12.3,0a51.41,51.41,0,0,0,12.2-3.4,33.77,33.77,0,0,1,5.2-2.2c1.9-.5,3.6.2,5.5,0,7.7-.8,11.8-6.1,16.4-11.6,1.8-2.1,3.5-4.1,4-7C176.09,22.11,174.89,20.21,173.39,17.61ZM5.09,29.11a.37.37,0,0,0-.5-.2.1.1,0,0,0-.1.1c-.4-.4-.9-.9-.7-1.1s.8,0,.9-.1a3.19,3.19,0,0,1,1.4-.3c-.2.2-.2.5,0,.6a.37.37,0,0,0,.3.1l1.3.2a8.65,8.65,0,0,0-1,.2h0a.55.55,0,0,0-.3.5q0,.15.3.3a4.25,4.25,0,0,0,1.1.2C6.59,29.61,5.29,29.51,5.09,29.11Zm165.8-.6c-1.5,2-3.3,3.8-4.9,5.8a15.91,15.91,0,0,1-9.2,6c-2.7.6-5.3-.1-8,.6-3,.8-5.6,2.4-8.6,3.4-3.5,1.1-7.2,2.3-10.9,2.3-3.2,0-6.3-.5-9.4-.2a39.26,39.26,0,0,0-8.2,2c-3.6,1.1-6.8,2.2-10.5,1.6-3.4-.5-6.2-2.6-9.6-3.2-6.5-1.2-12.7,2.7-19.4.7-2.5-.7-4.1-2.9-6.5-3.9-2.7-1.1-5.8-.7-8.6-.7-6.5.1-12.4-2.6-18.7-3.5a60.87,60.87,0,0,1-9.6-2.2c-3.6-1.1-6.4-1.1-9.1-4.1a8.34,8.34,0,0,0-2.3-1.9,22.3,22.3,0,0,1,2.6-.6c7.1-1.4,14.8-2.4,21.6-4.9,4,2.5,9.3,3.5,13.4,5.6,4.4,2.3,9.2,7.9,14.6,6.3a.63.63,0,0,0,.4-.8.78.78,0,0,0-.4-.4c-5.6-1.8-9.6-5.9-14.9-8.1-3.2-1.3-6.5-2.3-9.7-3.5q4.2,0,8.4.3a119.15,119.15,0,0,1,13.2,1.7c.1.1.2.1.4.1h.4l4.7.9c2.3,3.2,6.2,5.3,9.3,7.5,3.8,2.7,7.4,5.7,12.4,4.9.8-.1.7-1.4,0-1.5-4.5-1.1-7.5-3.2-11.3-5.6a82.07,82.07,0,0,1-7.3-4.7,69.81,69.81,0,0,0,12.1,1.1c3.3,0,6.6-.2,9.9-.5,2.1,1.3,4.4,2.2,6.5,3.5,2.4,1.4,4.4,3.3,6.7,4.9,2.7,1.9,6.6,3.4,9.7,1.8a.54.54,0,0,0,.2-.8.55.55,0,0,0-.5-.3c-4.3.3-7.9-2.6-11.2-5a29.49,29.49,0,0,0-4.3-2.9,27.4,27.4,0,0,0-4-1.5,48.89,48.89,0,0,0,5.3-.9c6.1-1.2,11.8-3,18.1-3.1h.7c3.5,1.4,6.7,4.4,9.9,6.7a.48.48,0,0,0-.6.2c-1.3,1.4-3,1.9-4.5,2.9a25.68,25.68,0,0,1-5.2,2.7c-.1,0-.2.2-.2.3v.3c0,.1.1.3.2.3a.22.22,0,0,0,.2-.2c.1-.4,2.8-.8,3.1-1a19.65,19.65,0,0,0,2.5-1.3,15.23,15.23,0,0,0,4.8-3.1.74.74,0,0,0,.1-.9,12,12,0,0,0,2.4,1.5c3.5,2,7.3,4.3,11.4,4.8.7.1.9-1,.4-1.3-4.6-2.4-9.2-4.9-13.7-7.6-2-1.2-4-2.9-6.2-4.1,3.6.5,7.3,1.3,10.9,1.2,5.1-.1,9.7-1.6,14.5-2.9h.1l1.2.1c1.2,0,2.5.1,3.8.2l-.2.1a13.18,13.18,0,0,0-3.9,3.9c-2.2,1-4.3,2-6.5,2.8-.4.1-3.8,1.6-3.8.8a.21.21,0,0,0-.4-.1c-.6,1.5,1.6,1.2,2.4,1.1a33.11,33.11,0,0,0,9.1-3.8.48.48,0,0,0,.2-.6c1.6-.9,2.8-2.3,4.4-3.3a3.13,3.13,0,0,0,1.1-.9h.9c-1.1.7-2.2,1.4-3.2,2.1a30.6,30.6,0,0,0-3.6,3.6,45.38,45.38,0,0,1-4.5,2.1,16,16,0,0,1-3.1,1c-.3.1-1-.1-1.3.1a.76.76,0,0,0-.2.4c.4,1.6,4.6-.1,7.7-1.6h.1a3.77,3.77,0,0,0,1.5-.9,11.3,11.3,0,0,0,1.5-.9.48.48,0,0,0,.2-.6c.6-.6,1.3-1.2,2-1.8,2.7-2,5.7-3.7,8.4-5.7.6-.5.1-1.6-.6-1.1a34.46,34.46,0,0,1-3.2,2A7.72,7.72,0,0,0,163,22c.6-.5,1.2-1,1.8-1.6a.64.64,0,0,0-.9-.9,28.48,28.48,0,0,1-2.6,2.3c-2.4-.2-4.7-.1-7.1-.1h-.1a43.58,43.58,0,0,1-7.2-.5c-.6-.1-.8.8-.2.9.8.2,1.6.3,2.4.5a64.17,64.17,0,0,1-8.7.9c-4.8,0-9.4-1-14.1-1.4,1.9-.8,3.8-1.6,5.7-2.5a132.67,132.67,0,0,0,13.6-6.8.67.67,0,0,0,.3-.8h.1c1.6.4,3.4-.6,4.8-1.2,1.6-.7,3-1.9,4.6-2.6.8-.4.1-1.5-.7-1.1-1.4.6-2.6,1.6-4,2.3-.8.4-1.6.5-2.3.8a18.35,18.35,0,0,1-2.4,1.3c-.1,0-.2.1-.2.3a.55.55,0,0,0-.5-.3c-4.5.2-9.1,3.5-13,5.5-2.5,1.3-5.1,2.5-7.7,3.6-1.1.4-2.2.9-3.3,1.4a107.77,107.77,0,0,0-14.9,2.5,61.65,61.65,0,0,1-6.2,1c2-1,4-2,6-3.2,2.6-1.5,5.1-3.1,7.6-4.7a17.59,17.59,0,0,0,4-2.7h0a14.53,14.53,0,0,0,5.5.5c.8-.1,7.1-1,7.4-.6a.37.37,0,0,0,.3.1l.1-.1.1-.3c0-.2,0-.3-.2-.4-1.9-.8-3.9,0-5.8.1-1.1.1-2,.4-3.1.5-1.4.1-2.7-.2-4.1-.1l.3-.3a.62.62,0,0,0-.7-.9c-4.9,1.2-9,4.8-13.3,7.4-3,1.8-6.2,3.7-9.4,5.3a67.68,67.68,0,0,1-9,.3,92.41,92.41,0,0,1-11.8-1.1l.5-.2c3.2-1.3,6.5-2.3,9.6-3.7,2.6-1.2,5.1-2.6,7.6-4,2-1.2,4.6-1.8,6.1-3.7.5-.7-.5-1.4-1.1-1.1L91.39,15a.76.76,0,0,0-.1-.4c-.8-1-2.3-1.1-3.4-1.4a19.1,19.1,0,0,0-5.8-1,.6.6,0,0,0,0,1.2,17.13,17.13,0,0,1,5.5.9c1.1.3,2.2.5,3.3.9-6.9,3.2-13.8,6.7-21,9.4a106.61,106.61,0,0,0-17.8-2c2.2-.7,4.3-1.5,6.5-2.3,5.1-1.9,10.5-4.5,15.8-5.8-.2.2-.2.5,0,.6h.1c1.4.9,3.2.8,4.7.7h2.6a8.76,8.76,0,0,0,3.2-.7c.6-.1.4-.9-.1-.9a21,21,0,0,0-2.5.2,20.84,20.84,0,0,1-2.5,0c-1.6.1-3.6.7-5-.2h-.1a20.47,20.47,0,0,1,2.4-.5.36.36,0,0,0-.1-.7c-2.6-.1-5.6.8-8.1,1.5-3.7,1.1-7.4,2.1-11.1,3.4s-7.6,2.9-11.5,3.5c-2.9.5-7.3-.6-9.8,1.1l-.8.1a53.45,53.45,0,0,0-7.9,1.9,16.21,16.21,0,0,0-2.2.1c-3.2.4-6.2,1.4-9.5,1.3a59.48,59.48,0,0,0-8.4.7c.9-.5,1.7-1,2.5-1.5,2.2-1.3,4.7-2.4,6.9-3.7,1.4-.8,3.1-2.2,4.8-2.4s3.3.6,5,.7c5.6.5,8.8-3.8,13.1-6.4,4.9-3,12.8-4.7,18.5-4.9,2.8-.1,5.1,1.6,7.8,1.6s5.4-1.5,7.7-2.5S78.79,5,81.19,4a15.61,15.61,0,0,1,12-.3c2.4.8,5,1.8,7.6,1.6,3.3-.3,6.5-1.6,9.8-2.3,2.9-.5,5.4-.8,8.1.2,1.4.5,2.8,1.3,4.2,1.7a12.07,12.07,0,0,0,7.5-.6c8.2-2.7,16.2-3.2,24.4-.2a43.41,43.41,0,0,1,10.6,5.7,76.81,76.81,0,0,1,5.9,6.9,1.44,1.44,0,0,0-.5,1.8c2,4,2.7,6.6.1,10Z"/><path class="cls-1" d="M151.19,27.11c-1.6,1.8-4.5,1.6-6.1,3.3-.1.1,0,.3.2.2,1.1-.9,2.6-1.1,3.8-1.6.9-.4,2-.8,2.4-1.7C151.59,27.21,151.29,27,151.19,27.11Z"/><path class="cls-1" d="M166.49,16a57.66,57.66,0,0,0-7.2-.1c1.1-.8,2.1-1.6,3.2-2.5.6-.5-.2-1.5-.8-1.1l-3,2.2a6.6,6.6,0,0,0-1.4-.1l1-1.1a.64.64,0,0,0-.9-.9,25,25,0,0,1-2.3,2.3,20,20,0,0,1-2.4,1.6l-1.9.2h0c1.4-1,3.7-2.1,4.3-3.8a.66.66,0,0,0-.5-.8c-.3-.1-.5.1-.7.3-.8,1.5-2.9,2.3-4.2,3.3-.6.4-1.1.8-1.6,1.2h-.6c-.4,0-.6.3-.6.7v.2a6.59,6.59,0,0,1-2.4,1.1c-.2,0-.3.2-.3.4a.32.32,0,0,0,.3.3,6.86,6.86,0,0,0,3.9-1.4h1.7l-.1.1-.5-.1a.59.59,0,0,0-.7.5.6.6,0,0,0,.1.4,17.39,17.39,0,0,1-1.8,1.1.19.19,0,0,0-.3,0l-.4.3a.49.49,0,0,0,.3.8,5.57,5.57,0,0,0,3.8-1.7l.8.1c-.2.1-.2.3-.1.5s.2.2.3.2a4.06,4.06,0,0,0,1.9-.4,23.88,23.88,0,0,0,9.6-.5c.1,0,.2-.2.2-.4s-.1-.1-.2-.2c-1.9-.6-3.9-.3-5.9-.3h-1.6l.7-.5a34.4,34.4,0,0,0,10.1-1.6c.3,0,.3-.2.2-.3Zm-12.9,2.6c-.5,0-1-.1-1.5-.1h0c.1-.1.3-.2.4-.3h1.6A1.75,1.75,0,0,0,153.59,18.61Zm3-2.5-1,.1a4.35,4.35,0,0,0,.7-.6h1l-.7.5Z"/><path class="cls-1" d="M143.49,16.51c-.1.5-.7.7-1.1,1a1.39,1.39,0,0,0-.7,1.2.21.21,0,0,0,.4.1,3.13,3.13,0,0,1,1.1-.9,2.17,2.17,0,0,0,1.1-1C144.69,16.31,143.69,15.91,143.49,16.51Z"/><path class="cls-1" d="M138.29,7.81c-4.3-1-9.2-.3-13.6-.3a.56.56,0,0,0-.5.6c0,.2.2.4.5.5-1,.1-2,.3-3,.5-.8.1-.4,1.3.3,1.2,4.6-.7,9.2-.4,13.7-.8a.22.22,0,0,0,.2-.2c0-.1-.1-.1-.1-.2-.3-.1-.6-.2-1-.3a18.57,18.57,0,0,0,3.4-.5c.1,0,.2-.2.2-.3S138.39,7.81,138.29,7.81Z"/><path class="cls-1" d="M133.79,11.51c-4.3-1.5-9.6-.4-14,0-.8.1-.8,1.3,0,1.2,2.2-.1,4.4-.3,6.6-.3,2.4,0,5.1.3,7.4-.5.1,0,.2-.2.2-.3S133.89,11.51,133.79,11.51Z"/><path class="cls-1" d="M123.79,18.11a1.84,1.84,0,0,0-1.8-.8,4.79,4.79,0,0,1-2.8-.8.57.57,0,0,0-.7.2.66.66,0,0,0,.2.7,7.84,7.84,0,0,0,2.1.9c.8.1,1.8-.3,2.5.2C123.69,18.81,124,18.41,123.79,18.11Z"/><path class="cls-1" d="M136.49,34c-3.9.8-7.1,4-10.9,4.9-.3.1-.2.4.1.5,4,.5,7.5-3.3,11.2-4.1C137.59,35.11,137.29,33.81,136.49,34Z"/><path class="cls-1" d="M131,31.31c-1.6.9-3.2,1.6-4.8,2.4a16.84,16.84,0,0,1-4.8,2c-.2,0-.1.4.1.4a8.61,8.61,0,0,0,4.4-1c1.9-.9,3.9-1.8,5.8-2.8a.53.53,0,0,0-.1-.8A.73.73,0,0,0,131,31.31Z"/><path class="cls-1" d="M128.29,30.41c-1.4.6-2.9,1.2-4.2,1.9s-2.7,1.6-4.2,1.6a.32.32,0,0,0-.1.6c3.1.7,6.3-1.9,8.9-3.1C129.29,31.21,128.89,30.21,128.29,30.41Z"/><path class="cls-1" d="M123,29.81c-.3.5-.9.5-1.4.7s-.7.6-1.1.9c-.9.6-2.1.4-2.9,1.3a.64.64,0,0,0,0,.6.6.6,0,0,0,.4.1c.7-.4,1.6-.1,2.3-.2a2.22,2.22,0,0,0,1.3-.8c.8-.8,2.1-.8,2.5-2a.59.59,0,0,0-.5-.7A.38.38,0,0,0,123,29.81Z"/><path class="cls-1" d="M112.89,11.21a26.36,26.36,0,0,0-6.2.8c-1.9.5-4.2.8-5.9,1.9-.2.1-.2.6.1.6,1.7.3,3.3-.4,4.9-.9a34.33,34.33,0,0,1,7.1-1.4.47.47,0,0,0,.5-.5A.54.54,0,0,0,112.89,11.21Z"/><path class="cls-1" d="M109.19,13c-1.4,1.5-3.9,1.1-5.7,1.6-2.1.5-4.1,1.9-6.3,2.3-.3,0-.2.5.1.5,2.5.1,5.4-1.3,7.9-1.8,1.6-.3,3.6-.5,4.8-1.7a.61.61,0,0,0-.1-.8C109.69,12.81,109.49,12.81,109.19,13Z"/><path class="cls-1" d="M106.79,16.11a36.08,36.08,0,0,0-7.1,2.1c-2.4.9-4.9,1.4-7.3,2.2-.1,0-.2.2-.2.3s.2.2.3.2h0a35.84,35.84,0,0,0,6.5-1.4c2.6-.9,5-2.1,7.7-2.4C107.49,17.11,107.49,16,106.79,16.11Z"/><path class="cls-1" d="M100.49,19.21c-1.5.7-2.9,1.5-4.4,2.2-.1.1-.2.2-.2.3V22a.32.32,0,0,0,.3.3.22.22,0,0,0,.2-.2c.1-.3,1.7-.8,2.1-1l2.4-1.2A.41.41,0,0,0,100.49,19.21Z"/><path class="cls-1" d="M109.89,40.11a19.78,19.78,0,0,0-4.8,1.8,17.61,17.61,0,0,1-4.4,1.5.27.27,0,0,0-.3.3v.1c.7,1.2,2.4.4,3.4,0l3.4-1.3a18.15,18.15,0,0,1,3-1.1C111.09,41.31,110.69,40,109.89,40.11Z"/><path class="cls-1" d="M108.59,38.71c-1.1-.2-3.1,1.1-4.2,1.5-.9.3-4.3,1.8-4.7.9-.1-.1-.3-.2-.4-.1l-.1.1c-1,2,2.6,1.4,3.4,1.1a25,25,0,0,0,3.8-1.5c.6-.3,1.7-.9,2.2-1.1a.56.56,0,0,0,.6-.5C109.09,38.81,108.89,38.61,108.59,38.71Z"/><path class="cls-1" d="M106.49,36.61c-1.3.6-2.5,1.2-3.9,1.7-.6.3-4.1,2.1-4.7,1.2-.1-.1-.2-.1-.2,0l-.1.1c-.4,2.7,8.5-1.4,9.5-1.9A.63.63,0,0,0,106.49,36.61Z"/><path class="cls-1" d="M104.09,35.51l-.4.3a.52.52,0,0,0-.2.4,7.19,7.19,0,0,1-2.1,1.2c-.7.3-1.5.5-1.5,1.4a.47.47,0,0,0,.5.5.52.52,0,0,0,.4-.2,2.07,2.07,0,0,1,1-.6,5.36,5.36,0,0,1,1.1-.5,9.51,9.51,0,0,0,2-1.5C105.29,36,104.59,35.11,104.09,35.51Z"/><path class="cls-1" d="M81.89,17.91c-2.9-.9-6.6,1-9.5,1.1a.5.5,0,0,0,0,1,37.31,37.31,0,0,0,4.6-.4,20.18,20.18,0,0,0,4.9-.9.43.43,0,0,0,.4-.4A.37.37,0,0,0,81.89,17.91Z"/><path class="cls-1" d="M85.19,39.81c-1.8.8-3.6,1.5-5.4,2.4s-2.8,2.1-4.6,2.7a.49.49,0,0,0-.3.6.32.32,0,0,0,.3.3c1.6.6,3.1-.9,4.4-1.8a13,13,0,0,1,3.2-1.4c1.1-.5,2.1-1.1,3.1-1.5A.74.74,0,0,0,85.19,39.81Z"/><path class="cls-1" d="M83.79,37.31c-1.7.9-3.4,1.7-5,2.7a10.6,10.6,0,0,1-3,1c-.3.1-2.3.9-2.3.6s-.3-.3-.4,0a2.2,2.2,0,0,0-.1.8.27.27,0,0,0,.3.3h.1c1-.2,1.9-.8,2.9-1a10.15,10.15,0,0,0,2.5-.6c.8-.4,1.6-1.1,2.4-1.6a13.41,13.41,0,0,0,2.8-1.8.37.37,0,0,0,.1-.3C84.09,37.31,83.89,37.31,83.79,37.31Z"/><path class="cls-1" d="M79,36.71a37.19,37.19,0,0,1-3.4,1.9c-1.2.7-2.6,1.1-3.8,1.9a.38.38,0,0,0,.3.7,15.67,15.67,0,0,0,4.2-1.8,23.13,23.13,0,0,0,3.5-1.8C80.29,37,79.59,36.21,79,36.71Z"/><path class="cls-1" d="M56.79,36.31c-.4.8-1.7,1.1-2.4,1.4a13.79,13.79,0,0,1-2.9.8.57.57,0,0,0-.4.7.78.78,0,0,0,.4.4c1.2.4,2.7-.2,3.8-.7s2.6-1.1,2.7-2.3C58.19,36,57.09,35.81,56.79,36.31Z"/><path class="cls-1" d="M53.69,34.21a13.16,13.16,0,0,1-5,2.9,8.4,8.4,0,0,0-3.3,1.9c-.2.2.1.6.3.4,1.6-.7,3.3-.9,5-1.6a10.9,10.9,0,0,0,4-2.7.68.68,0,1,0-1-.9Z"/><path class="cls-1" d="M51,32.21c-.8.5-8.5,5.1-9,3.7-.1-.2-.4-.2-.4,0v.3a.22.22,0,0,0,.2.2c3.5.9,6.8-1.8,9.7-3.4a.48.48,0,0,0,0-.7A.44.44,0,0,0,51,32.21Z"/><path class="cls-1" d="M44.89,32.11c-.3.2-.5.3-.8.5s-.6.2-.8.4a.57.57,0,0,0-.2.7c.1.1.2.2.3.2.8.2,1.4-.4,2-.8a.62.62,0,0,0,.1-.8C45.29,32.11,45.09,32,44.89,32.11Z"/><path class="cls-1" d="M47.29,17.81a14.12,14.12,0,0,0-4.6-.2c-1.2,0-2.8.3-3.8-.5-.5-.4-1.3.3-.7.7a6,6,0,0,0,3.4,1.1,15.57,15.57,0,0,0,5.7-.1c.6,0,1,.1,1-.5a1,1,0,0,0-1-1Z"/><path class="cls-1" d="M51.09,16.21c-1.3-.7-2.9-.3-4.3-.5a13.84,13.84,0,0,0-4.5-.5c-.8.1-.8,1.3,0,1.3,2.7-.1,6.2,2.1,8.8.6a.57.57,0,0,0,.2-.7C51.29,16.31,51.19,16.31,51.09,16.21Z"/><path class="cls-1" d="M53.19,14.21a7,7,0,0,0-3.2-.3c-.8,0-2.5.1-3.1-.5s-1.4.3-.9.9c.7.8,2.1.9,3.1,1,1.3.1,2.9.4,4.1-.2C53.19,14.91,53,14.51,53.19,14.21Z"/><path class="cls-1" d="M55.09,12.71a3.91,3.91,0,0,0-.8-1,.71.71,0,0,0-1,.3.85.85,0,0,0,0,.7,3.92,3.92,0,0,0,1,.8.55.55,0,0,0,.8-.3A.45.45,0,0,0,55.09,12.71Z"/><path class="cls-1" d="M162.69,29a16.28,16.28,0,0,0-1.1,1.7.5.5,0,0,0,.8.6,7.46,7.46,0,0,0,1.4-1.7.63.63,0,0,0-.3-.8A.78.78,0,0,0,162.69,29Z"/><path class="cls-1" d="M146.69,9.31c-.5.1-1,.5-1.5.5-.2,0-.3.2-.3.4s.1.3.2.3c.7.3,1.2-.2,1.9-.3S147.29,9.21,146.69,9.31Z"/></g></g></svg>