<?xml version="1.0" encoding="iso-8859-1"?>
<svg xmlns="http://www.w3.org/2000/svg" viewBox="0 0 155.58 45.64"><defs><style>.cls-1{fill:#EC400F;}</style></defs><title>Asset 5</title><g id="Layer_2" data-name="Layer 2"><g id="Layer_1-2" data-name="Layer 1"><path class="cls-1" d="M153,7.6c-2.7-3.4-6.8-4.4-10.8-5.3a20.25,20.25,0,0,0-3.3-.9,46,46,0,0,0-5.2-.6,103.71,103.71,0,0,0-24.9-.1c-2.4.3-4.9.1-7.4.5l-1.3.2c-7.4.6-14.8,1.4-22.2,1.8a72.59,72.59,0,0,1-18.6-1.3,42,42,0,0,0-15.4-.1c-6.1,1-12.3,2.9-18.5,3-5.1.1-10.3-1.2-15.5-.1-3.6.7-7.1,2.8-8.6,6.3C0,14.2-1,19,1.71,21.9c3.1,3.3,5.6,1.1,9.2.2,1.4-.4,2.7-.8,3.4.4.9,1.5-.4,3.7-.9,5.1a5.32,5.32,0,0,0-.2,4.1c1.3,2.7,4.6,2.2,6.6.7a16.4,16.4,0,0,0,4.1-5,22.19,22.19,0,0,0,1.1-3l1.5-1.7c.7-1.9,1.5-2.2,2.6-1,1.3.9,1.2,1.3,1,2.8-.5,4.6-4.1,9.4-3.3,14.1.6,3.3,2.6,6.5,6.2,7,3.2.4,6.9-2.2,8.1-5.1,2-5-1-11.5,2.2-16.1,3.3-4.8,6,4.3,8.7,5.6s4.8,0,6-2.4c.5-1.1.9-4.1,1.8-4.7,1.8-1.2,2.9,2.2,4,3a4,4,0,0,0,3.5.7c2-.7,1.9-3.7,3.6-4.4a.19.19,0,0,0,.1-.3h0c.5.4,1.1.9,1.9,1.6,2.6,2.1,1.9.8,1.6,2.8-.2,1.4-1.1,2.9-1.5,4.3a12.26,12.26,0,0,0-.3,7.1c1,3.2,4.1,5.7,7.6,5.1,3.8-.7,5.9-5.5,6.3-8.9.3-3.2-.5-6.6.7-9.7.2-.5.7-2.1,1.3-2.3s2.4,1.6,2.6,2c.6.8.7,1.7,1.4,2.4a5.39,5.39,0,0,0,7.9-.3c.6-.6,1.1-1.8,1.7-2.4,1.9-1.6,2.9-1,4.2.2a4.93,4.93,0,0,0,4.6,1.3c1.9-.5,3.2-2.1,4.6-3.4,1.5-1.5,3.7-3.2,5.4-1.3,1.5,1.6.4,3.2-.1,5.1-1.1,3.6-1.7,8.2,1,11.3,2.1,2.5,5.5,3.4,8.2,1.3,4-3.1,1.7-8.5,3.7-12.5.4-.8,1.3-3.1,2.8-2.2.3.2.3,1.8.3,2.2a29.34,29.34,0,0,1,.3,4.1c.1,3.1-.1,6.3.9,9.2s3.8,6.2,7.4,5.6c9.6-1.7,8.5-17.7,9.5-24.5C156,15.6,155.91,11.3,153,7.6Zm-11.2-2.7c.8.2,1.6.4,2.5.6-.2,1.7-.4,3.3-.7,5l-1.7,1.7a9.7,9.7,0,0,1-.1-1.7l.2-.2a.61.61,0,0,0,0-.8c-.1-.1-.1-.1-.2-.1V9.1A29.4,29.4,0,0,0,141.81,4.9Zm1.5,8.1c0,.3-.1.7-.1,1a2.92,2.92,0,0,1-.2.9,2,2,0,0,0-.4.8,3.6,3.6,0,0,0-.2-1.1c0-.2-.1-.3-.1-.5Zm-6.1-9c1.1.2,2.4.4,3.6.7a19.57,19.57,0,0,1-.2,5.4c-1,1-1.9,2.1-2.9,3.2v.1c0-.7-.1-1.4-.1-2.2.5-.6,1-1.1,1.6-1.7a.5.5,0,1,0-.7-.7c-.3.3-.6.7-.9,1,0-.6-.1-1.2-.1-1.8,0-1.1.1-2.9-.6-4Zm-1.8-.3a.76.76,0,0,0,.2.5c1.1.8.5,4.2.5,5.4a4.87,4.87,0,0,0,.1,1.2,15.94,15.94,0,0,0-1.3,1.3l-.6.7c-.1-.2-.2-.3-.3-.5v-.1c.3-.3.5-.6.8-.9.4-.6.6-1.3,1-1.9s-.3-1.2-.7-.7a16.18,16.18,0,0,0-1,1.8,1.76,1.76,0,0,1-.4.5l-.1-.5a34.53,34.53,0,0,1-.8-7.2,20.24,20.24,0,0,1,2.6.4Zm-1.9,10.1c-.4.4-.9.7-1,.5s-.2-.2-.3-.1l1-.9c0,.1.2.3.3.5Zm-1.3-4.3c.1.8.3,1.7.5,2.6l-1,.9a13.65,13.65,0,0,0-.7-2.9,6.89,6.89,0,0,0,1.3-1.1A.75.75,0,0,0,132.21,9.5Zm-.5-6.3a29.66,29.66,0,0,0,.3,4.2c-.1,0-.1.1-.2.2a4.73,4.73,0,0,1-1.1,1.3c-.1-.3-.2-.7-.3-1a28.26,28.26,0,0,0-1.3-5l2.6.3Zm-3.6-.3v.3c.8,1.7,1,4,1.4,5.8.1.2.1.5.2.7a25.6,25.6,0,0,1-2.5,1.6,6.12,6.12,0,0,1-.5-1.2c-.2-.7-.3-1.5-.5-2.2a17,17,0,0,1-.9-5c0-.1,0-.2-.1-.2,1,.1,2,.1,2.9.2Zm-3.6-.2a.37.37,0,0,0-.1.3,23.52,23.52,0,0,0,1,5.9,11.05,11.05,0,0,0,.9,3.1c-.5.3-1,.7-1.6,1.1a5.71,5.71,0,0,1-1-3.1c.1-.1.3-.2.4-.4a.63.63,0,0,0-.1-.9.76.76,0,0,0-.5-.2c-.2-1.9-.4-3.9-.5-5.8Zm-3.8-.1h1.1c.1,2.3.3,4.5.5,6.8a11,11,0,0,0-1.1,1c-.1-.4-.2-.7-.3-1.1-.3-2.1-.5-4.2-.6-6.4,0-.1-.1-.2-.1-.3Zm32,17a.67.67,0,0,0-1,0l-.2.2c-1.4,2.8-3.2,5.2-4.6,7.9a.53.53,0,0,0,.7.7,9.92,9.92,0,0,0,2.6-3.2c.8-1.2,1.6-2.4,2.3-3.7-.2,1.8-.2,3.6-.3,5.4a65.39,65.39,0,0,1-1.3,7.5c-.8,3.4-5.7,11.9-9.5,5.2-2.6-4.5-.9-10.7-2-15.7-.5-2.3-1.8-4.1-4.3-2.9-2.9,1.4-3.7,5.5-4.1,8.3-.4,3.2-.6,8.2-5.4,7-3.9-.9-2.6-7.6-2-10,.7-2.7,2.2-6.1-.5-8.2-2.5-2-5.7-1.2-7.8.8-.8.7-1.3,1.9-2.2,2.4-4.9,3.2-4.3.3-6.3-1.2a3.29,3.29,0,0,0-2.5-.8,5.58,5.58,0,0,0-3.3,1.9c-.7.8-.8,1.9-1.6,2.8-1.3,1.9-3.2,1.5-5.6-1.3a8.8,8.8,0,0,0-.5-1.5c-1.4-1.9-2.3-3-4.9-1.9s-3.5,3.7-3.9,6.3c-.2-.4-1-.5-1.1.1a4.35,4.35,0,0,1-1,1.9c-.5.8-1,1.7-1.5,2.5-.7,1.1-1.8,1.9-1.6,3.2.1.6.9.5,1.1,0a5.67,5.67,0,0,1,1.2-1.8,17.1,17.1,0,0,0,1.3-2.3,11.48,11.48,0,0,0,1.4-2.7,12.75,12.75,0,0,0-.1,1.9c-.1,3,.6,7-1.6,9.5-2.9,3.4-6.4,2.1-7.4-1.5-.6-2-.1-4,.4-5.9.8-3.1,3-7.4.5-10.3a4.08,4.08,0,0,0-5.5-.8c-1.3.8-1.9,3.1-3.1,3.8-3.4,1.8-3.4-2-5.3-3.1s-3.3,0-4.3,1.6a32,32,0,0,0-1.6,3.9c-.8,1.7-1.6,3.9-4.4,1-.7-.7-.9-2-1.4-2.8-1.2-2.1-3.5-4.6-6.3-3.6a7.52,7.52,0,0,0-4.4,5.4c-.9,4.7,1.2,13.6-3.4,16.2-2.7,1.5-5.1,1.1-6.4-2s0-6.3.9-9.2c.7-2.6,2.5-6.8,1.1-9.5s-4.4-2.5-6.5-.8a5.46,5.46,0,0,0-1.8,2.4c-.7,1.7-2,6.9-4.4,7.4-5.6,1.3-2.3-5.5-2.2-7.1a3.52,3.52,0,0,0-.7-2.8c-2-2.1-6.2-.5-8.4.4C.31,23.4,2.71,11.7,6.81,9c4.7-3,11.3-1.6,16.5-1.3,6.3.4,12.2-1.7,18.4-2.6s11.5-1.4,17.6-.2a65.83,65.83,0,0,0,16.6,1.5c6.3-.4,12.6-.9,18.9-1.6,3.8-.4,7.7-1,11.6-1.4h.2c4.4-.1,8.8-.6,13.2-.7a.37.37,0,0,0-.1.3,45.56,45.56,0,0,0,.8,8.2c-1.2.9-2.3,1.7-3.4,2.7-.3.2.1.7.4.5a37,37,0,0,1,3.3-2.1l.3,1.5c.1.2.2.2.4.2a.22.22,0,0,0,.2-.2,5,5,0,0,0,.1-2.1c.4-.2.7-.5,1.1-.7a1.27,1.27,0,0,0,.1.6,4.31,4.31,0,0,0,.9,2.2,8.18,8.18,0,0,1-2.4,1c-.3.1-.2.4.1.5,2.2.1,4.1-1.1,5.9-2.3.2.1.3.2.5.3a.37.37,0,0,0,.5-.2v-.3c-.1-.1-.1-.2-.2-.4.6-.4,1.4-.9,2.2-1.4a23.08,23.08,0,0,0,1,2.8c-.9.8-2.3,2-2.6,1.4-.1-.1-.3-.2-.4-.1s-.1.1-.1.2c-.2,1.8,2.1.7,2.8.2a12.67,12.67,0,0,0,1.3-1.1c-.4,1.5,1.6,1,2.3.4h0c.2,0,.3-.1.4-.3l.1-.2c.6-.6,1-1.3,1.5-1.8h-.6a17.85,17.85,0,0,0,.2,2.3,5.5,5.5,0,0,1-.9.7c-.1-.1-.3,0-.4.1h0l-.1.3c-.1.3-.1.6.2.7h.1a1.44,1.44,0,0,0,1.3-.3c0,.2.1.5.1.7s.2.2.3.2.1-.1.2-.2a7.72,7.72,0,0,0,.2-1.5l.4-.5,2.6-3a7.57,7.57,0,0,0,.1,1.5c-.8.7-1.6,1.5-2.4,2.1-.1.1-.2.2-.2.3h0a.37.37,0,0,0,.1.3c.9,1,2.3-.4,3-1.1h0c.2.7.3,1.4.5,2.2.1.4.8.5.9,0a3.4,3.4,0,0,0,.1-1l.1.1a10.27,10.27,0,0,0-.1,2.5c0,.2.4.2.5,0a23.81,23.81,0,0,0,.5-2.6,14.22,14.22,0,0,0,3-3c.1-.2.3-.3.4-.5-.4,1.4-.9,2.7-1.4,4-.8,2-1,4.1-1.7,6.1-.1.2.3.4.4.2a4.21,4.21,0,0,0,1-2c.4-1.4,1.1-2.6,1.6-4a26.42,26.42,0,0,0,1.9-6.8h.1l.1-.2c.1-.1,0-.3-.1-.4V8.5c0-.3-.3-.5-.7-.5a.47.47,0,0,0-.5.5c0,.6-.1,1.1-.1,1.7-.7.6-1.3,1.3-1.9,1.9-.4.4-.9.8-1.4,1.3.1-.6.2-1.1.3-1.7l1.9-1.9a.78.78,0,0,0-1.2-1h0l-.4.4c.2-1.2.3-2.4.5-3.6,3,1,5.7,2.6,7,5.6,1,2.6.8,5.6.4,8.4Z"/><path class="cls-1" d="M114,6.9c-1.7,1-2.9,2.9-4.3,4.3a28.94,28.94,0,0,0-5,5.5.19.19,0,0,0,.1.3h.2a30.38,30.38,0,0,0,5-4.5c.8-.8,1.6-1.5,2.3-2.3a12,12,0,0,1,2.2-2.3A.56.56,0,0,0,114,6.9Z"/><path class="cls-1" d="M108.61,7.8c-1.5.8-2.4,2.4-3.7,3.4-.8.6-1.6,1.2-2.4,1.9s-1.6,1.8-2.8,1.9c-.2,0-.2.4,0,.4,1.6.3,2.7-.9,3.8-1.8s2.1-1.6,3-2.5A18.79,18.79,0,0,1,109,8.7C109.91,8.4,109.31,7.4,108.61,7.8Z"/><path class="cls-1" d="M103.21,9.5c-1,1-2.1,1.9-3.2,2.8a18.1,18.1,0,0,1-3,2.5,4.13,4.13,0,0,0-1.1.7c-.3.3-2,1.3-1.9.6a.21.21,0,0,0-.4-.1c-.9,1.9,1.7,1.3,2.7.8,3-1.5,5.5-4.1,7.7-6.5C104.51,9.8,103.71,9,103.21,9.5Z"/><path class="cls-1" d="M96.51,10.4a5.72,5.72,0,0,1-1.1,1.6.53.53,0,0,0,.1.8.66.66,0,0,0,.6.1,3.35,3.35,0,0,0,1.5-1.8C98.11,10.3,96.91,9.6,96.51,10.4Z"/><path class="cls-1" d="M31.51,10.2c-1.3-.2-2.6,1-3.5,1.7a52.09,52.09,0,0,0-5.2,4.1.57.57,0,0,0,.8.8,48.43,48.43,0,0,1,4.6-3.3,40.47,40.47,0,0,1,3.4-2.3.44.44,0,0,0,.2-.7A.27.27,0,0,0,31.51,10.2Z"/><path class="cls-1" d="M39,8.8c-1.9,1.3-4.1,1.8-6,3.1s-3.7,2.4-5.6,3.6a.54.54,0,1,0,.6.9c2-1.2,3.9-2.5,5.9-3.7a34.28,34.28,0,0,0,5.5-3.5C39.61,9.1,39.31,8.6,39,8.8Z"/><path class="cls-1" d="M42.81,10.5c-1.6.1-2.9,1.1-4.2,1.9-2,1.1-4.2,2.2-6.2,3.3a.47.47,0,0,0,.5.8c1.9-.9,3.7-2,5.6-2.9,1.5-.8,2.7-2.3,4.5-2.6C43.11,10.9,43.11,10.5,42.81,10.5Z"/><path class="cls-1" d="M50.41,9.6c-1.9,1.3-4.4,1.6-6.4,2.7a70.93,70.93,0,0,1-8.7,4.4.57.57,0,0,0,.3,1.1,44.85,44.85,0,0,0,8.6-4c2.2-1.3,4.9-1.8,6.6-3.6C51.11,9.8,50.71,9.4,50.41,9.6Z"/><path class="cls-1" d="M59.11,9.3c-2.4.3-4.4,1.5-6.5,2.4-3.3,1.5-6.4,3.1-9.7,4.7-.7.3-.1,1.3.6,1,2.9-1.3,5.7-2.8,8.5-4.1,2.4-1.1,4.6-2.7,7.2-3.5C59.31,9.6,59.31,9.2,59.11,9.3Z"/><path class="cls-1" d="M61.31,10.6c-.1.2-1.1.4-1.4.6-.8.4-1.6,1-2.4,1.5a43.59,43.59,0,0,1-7.3,3.2c-.7.3-.4,1.4.3,1.1a47,47,0,0,0,5.7-2.5c1.6-.9,3.5-2.6,5.2-3.2.1,0,.2-.1.2-.3v-.4C61.71,10.4,61.41,10.4,61.31,10.6Z"/><path class="cls-1" d="M67.51,10.5c-1.6,1-3.6,1.3-5.3,2.1a45.22,45.22,0,0,0-5,2.3.35.35,0,0,0-.1.5c.1.1.3.2.4.1a16.57,16.57,0,0,1,3.8-1.1c.6-.3,1.1-.6,1.7-.9,1.6-.8,3.4-1.3,4.7-2.6C68,10.7,67.81,10.3,67.51,10.5Z"/><path class="cls-1" d="M71.61,12.5c-1.1.4-2.2.7-3.3,1a13.64,13.64,0,0,1-3.6,1c-1,.1-.7,1.6.2,1.3,2.3-.8,5.1-1.3,7-2.9C72.21,12.7,71.81,12.4,71.61,12.5Z"/><path class="cls-1" d="M149.71,9.7a86.19,86.19,0,0,1-4.6,12.9.75.75,0,0,0-.5,1v.1l-.3.7c-.5.7.7,1.6,1.2.8a41.17,41.17,0,0,0,2.7-6.9,39.74,39.74,0,0,0,2.5-8.3C150.81,9.4,149.91,9.1,149.71,9.7Z"/><path class="cls-1" d="M150.41,16a46,46,0,0,1-2.9,5.9c-.9,1.3-1.5,2.9-2.4,4.2-.2.2.1.5.3.5,1.6.2,2.1-1.7,2.8-2.8a18.52,18.52,0,0,0,2.1-3.3c.6-1.2.9-2.5,1.5-3.7C152.21,15.9,150.81,15.1,150.41,16Z"/><path class="cls-1" d="M150,26.7a24,24,0,0,0-1.9,2.9.59.59,0,0,0,.8.8,17.55,17.55,0,0,0,2.4-3C151.81,26.7,150.51,26,150,26.7Z"/><path class="cls-1" d="M131.21,18.3a26.85,26.85,0,0,0-3.4,4.7,24.63,24.63,0,0,1-1.7,2.7,2,2,0,0,0-.6,1.4.19.19,0,0,0,.3.1c.4-.6.8-1.1,1.2-1.6a17.1,17.1,0,0,0,1.3-2.3,24.27,24.27,0,0,1,3.3-4.6A.28.28,0,1,0,131.21,18.3Z"/><path class="cls-1" d="M130.11,22.3a61.94,61.94,0,0,1-5.1,7.5c-.1.2.1.5.3.3,2.5-1.7,4.2-4.7,5.6-7.3C131.41,22.2,130.51,21.7,130.11,22.3Z"/><path class="cls-1" d="M129.21,26.7a20.74,20.74,0,0,0-1.9,3.2c-.4.9-1.4,1.9-1.5,2.9a.27.27,0,0,0,.3.3c.1,0,.2,0,.2-.1a10.52,10.52,0,0,0,2-2.7,30.63,30.63,0,0,1,2.1-2.9C130.81,26.7,129.71,26,129.21,26.7Z"/><path class="cls-1" d="M83.71,22c-.6.8-1.1,1.5-1.7,2.2a12,12,0,0,0-1.1,2.3c-.4.7-2.6,2.5-1.7,3.6.1.2.3.2.5.1l.1-.1a33.36,33.36,0,0,0,2.5-4,27.54,27.54,0,0,1,2-3.8C84.51,21.9,84,21.7,83.71,22Z"/><path class="cls-1" d="M37.81,24.1c-.2.6-1.1,1.3-1.4,1.9-.5.8-1,1.6-1.4,2.4-.8,1.2-1.8,2.5-1.8,4a.27.27,0,0,0,.3.3c.1,0,.1,0,.2-.1a24.15,24.15,0,0,0,2.9-4.2c.4-.8.8-1.6,1.3-2.4a5.37,5.37,0,0,0,1-1.6.57.57,0,0,0-1.1-.3Z"/><path class="cls-1" d="M37.91,27.4a35.06,35.06,0,0,0-3.3,6c-.7,1.6-2.5,3.3-2.3,5a.27.27,0,0,0,.3.3.35.35,0,0,0,.2-.1,24.07,24.07,0,0,0,3-4.8,31,31,0,0,1,3-5.7C39.31,27.6,38.31,26.9,37.91,27.4Z"/><path class="cls-1" d="M36.51,34c0,1.6-1,2.9-1.7,4.3-.5,1-1.2,2-.8,3.2,0,.1.1.2.3.2s.1-.1.2-.2c.8-2.5,3.2-4.7,3.2-7.4a.65.65,0,0,0-.6-.6.5.5,0,0,0-.6.5Z"/><path class="cls-1" d="M81.61,8.7c-1.5-.4-3,.7-4.1,1.6a23.26,23.26,0,0,1-2.6,1.7c-.9.5-1.4,1.4-2.3,2a.51.51,0,0,0,.5.9,10.7,10.7,0,0,0,1.6-1.4c.8-.6,1.7-.9,2.5-1.5,1.4-1,2.6-2.2,4.3-2.5C82.11,9.4,82,8.8,81.61,8.7Z"/><path class="cls-1" d="M84.71,10.4a24.55,24.55,0,0,0-8,4.2c-.7.5,0,1.6.7,1.2,2.4-1.7,5.2-3,7.6-4.8a.4.4,0,0,0,.2-.4A.37.37,0,0,0,84.71,10.4Z"/><path class="cls-1" d="M87.81,11.2h0a.75.75,0,0,0-.7-.5,4.14,4.14,0,0,0-1.9.5.78.78,0,0,0-.3,1,.91.91,0,0,0,1,.3c.3-.1.5-.2.8-.3s.6,0,.9-.3A.53.53,0,0,0,87.81,11.2Z"/><path class="cls-1" d="M19.71,9.9A11.05,11.05,0,0,0,16,12.6c-.2.3-.3.6-.7.8s-.4,0-.6.1a1.55,1.55,0,0,0-.8,1.1.62.62,0,0,0,.5.8.68.68,0,0,0,.8-.4c.1-.3.7-.3,1-.5.5-.3.7-.8,1.1-1.2,1-1,2.3-1.5,3-2.8.2-.2.2-.5,0-.6S19.91,9.7,19.71,9.9Z"/><path class="cls-1" d="M16.11,9.4c-.4.7-1.5.7-2.2.9s-1.4.6-2.2.8a6.26,6.26,0,0,0-3.3,2.2.51.51,0,0,0,.8.6c1.2-1.4,3-1.9,4.7-2.6.8-.3,2.3-.8,2.6-1.8,0-.1,0-.2-.2-.2S16.11,9.3,16.11,9.4Z"/></g></g></svg>